<?xml version="1.0" encoding="UTF-8"?>
<svg xmlns="http://www.w3.org/2000/svg" xmlns:xlink="http://www.w3.org/1999/xlink" version="1.2" >
<font id="Daimler CS Arab Demi">
<font-face  font-family="Daimler CS Arab" units-per-em="2048" ascent="1365" descent="-457" font-style="normal" font-weight="600" font-stretch="normal" cap-height="1365" x-height="972" underline-position="-207" underline-thickness="183" />
<missing-glyph  horiz-adv-x="512" d="M51 0 L51 1365 L461 1365 L461 0 L51 0 Z M410 51 L410 1314 L102 1314 L102 51 L410 51 Z " />
<glyph glyph-name="space" unicode="&#x20;" horiz-adv-x="512" d="" />
<glyph glyph-name="exclam" unicode="&#x21;" horiz-adv-x="513" d="M148 1335 L365 1335 L338 421 L169 421 L148 1335 Z M257 260 Q313 260 353.5 219 Q394 178 394 121 Q394 64 353 23.5 Q312 -17 255 -17 Q198 -17 157.5 23.5 Q117 64 117 121 Q117 179 157.5 219.5 Q198 260 257 260 Z " />
<glyph glyph-name="quotedbl" unicode="&#x22;" horiz-adv-x="882" d="M350 817 L220 817 L184 1365 L387 1365 L350 817 Z M662 817 L532 817 L496 1365 L699 1365 L662 817 Z " />
<glyph glyph-name="numbersign" unicode="&#x23;" horiz-adv-x="1229" d="M1138 563 L1115 420 L877 420 L811 0 L645 0 L712 420 L437 420 L370 0 L205 0 L271 420 L37 420 L60 563 L294 563 L336 829 L103 829 L125 972 L358 972 L421 1365 L586 1365 L524 972 L798 972 L861 1365 L1027 1365 L965 972 L1203 972 L1180 829 L942 829 L900 563 L1138 563 Z M776 829 L501 829 L459 563 L734 563 L776 829 Z " />
<glyph glyph-name="dollar" unicode="&#x24;" horiz-adv-x="1133" d="M620 1207 L620 799 Q793 740 864 698 Q1052 588 1052 379 Q1052 209 934 99.5 Q816 -10 620 -23 L620 -190 L515 -190 L515 -23 Q88 15 82 425 L282 425 Q292 191 515 156 L515 616 Q338 677 278 712 Q114 808 114 1007 Q114 1168 222 1271 Q330 1374 515 1389 L515 1534 L620 1534 L620 1388 Q795 1369 896.5 1270.5 Q998 1172 1003 1014 L803 1014 Q779 1173 620 1207 Z M515 1208 Q317 1173 317 1024 Q317 953 358 913.5 Q399 874 515 834 L515 1208 Z M620 153 Q723 163 783 217.5 Q843 272 843 357 Q843 440 796 487 Q749 534 620 580 L620 153 Z " />
<glyph glyph-name="percent" unicode="&#x25;" horiz-adv-x="1326" d="M974 1365 L1147 1365 L350 0 L178 0 L974 1365 Z M995 648 Q1109 648 1188.5 552 Q1268 456 1268 319 Q1268 180 1188.5 84.5 Q1109 -11 993 -11 Q877 -11 797.5 84.5 Q718 180 718 319 Q718 458 798 553 Q878 648 995 648 Z M995 525 Q933 525 895 468 Q857 411 857 319 Q857 227 895 169.5 Q933 112 993 112 Q1053 112 1091 169.5 Q1129 227 1129 319 Q1129 409 1091 467 Q1053 525 995 525 Z M335 1376 Q449 1376 528 1280 Q607 1184 607 1047 Q607 908 527.5 812.5 Q448 717 332 717 Q217 717 137.5 812.5 Q58 908 58 1047 Q58 1186 138 1281 Q218 1376 335 1376 Z M334 1253 Q273 1253 235 1196 Q197 1139 197 1047 Q197 955 234.5 897.5 Q272 840 332 840 Q392 840 430 897.5 Q468 955 468 1047 Q468 1137 430.5 1195 Q393 1253 334 1253 Z " />
<glyph glyph-name="ampersand" unicode="&#x26;" horiz-adv-x="1200" d="M884 657 L1046 657 Q1047 619 1047 598 Q1047 376 947 235 L1122 0 L906 0 L833 108 Q702 -18 504 -18 Q327 -18 211 72 Q71 181 71 364 Q71 474 127 561.5 Q183 649 331 767 Q237 889 210 943.5 Q183 998 183 1068 Q183 1190 272 1267.5 Q361 1345 500 1345 Q634 1345 715.5 1270 Q797 1195 797 1072 Q797 979 750 902.5 Q703 826 587 732 L841 386 Q884 469 884 617 Q884 632 884 657 Z M480 858 Q625 974 625 1079 Q625 1129 590 1160.5 Q555 1192 501 1192 Q445 1192 407 1158.5 Q369 1125 369 1076 Q369 1030 389 990.5 Q409 951 480 858 Z M443 619 Q261 477 261 353 Q261 262 330 204 Q399 146 509 146 Q642 146 728 240 L443 619 Z " />
<glyph glyph-name="quotesingle" unicode="&#x27;" horiz-adv-x="512" d="M321 817 L191 817 L155 1365 L358 1365 L321 817 Z " />
<glyph glyph-name="parenleft" unicode="&#x28;" horiz-adv-x="602" d="M382 1377 L535 1377 Q319 1046 319 491 Q319 -83 535 -410 L382 -410 Q134 -78 134 484 Q134 1037 382 1377 Z " />
<glyph glyph-name="parenright" unicode="&#x29;" horiz-adv-x="604" d="M221 -410 L67 -410 Q285 -84 285 476 Q285 1045 67 1377 L221 1377 Q470 1040 470 483 Q470 -74 221 -410 Z " />
<glyph glyph-name="asterisk" unicode="&#x2a;" horiz-adv-x="1024" d="M460 1084 L460 1331 L565 1331 L565 1084 L799 1161 L832 1061 L597 985 L742 785 L657 724 L512 924 L367 724 L283 785 L427 985 L193 1061 L225 1161 L460 1084 Z " />
<glyph glyph-name="plus" unicode="&#x2b;" horiz-adv-x="1133" d="M645 761 L1030 761 L1030 609 L645 609 L645 210 L487 210 L487 609 L103 609 L103 761 L487 761 L487 1160 L645 1160 L645 761 Z " />
<glyph glyph-name="comma" unicode="&#x2c;" horiz-adv-x="502" d="M187 -387 L57 -387 Q212 -196 231 3 Q92 10 92 130 Q92 187 134 227 Q176 267 236 267 Q304 267 345 215 Q386 163 386 76 Q386 -116 187 -387 Z " />
<glyph glyph-name="hyphen" unicode="&#x2d;" horiz-adv-x="547" d="M0 591 L547 591 L547 441 L0 441 L0 591 Z " />
<glyph glyph-name="period" unicode="&#x2e;" horiz-adv-x="518" d="M260 260 Q316 260 356.5 219 Q397 178 397 121 Q397 64 356.5 23.5 Q316 -17 258 -17 Q201 -17 160.5 23.5 Q120 64 120 121 Q120 179 160.5 219.5 Q201 260 260 260 Z " />
<glyph glyph-name="slash" unicode="&#x2f;" horiz-adv-x="1153" d="M75 -354 L911 1365 L1078 1365 L243 -354 L75 -354 Z " />
<glyph glyph-name="zero" unicode="0" horiz-adv-x="1133" d="M573 1358 Q776 1358 893 1195 Q1030 1005 1030 669 Q1030 335 893 144 Q776 -19 567 -19 Q356 -19 240 144 Q103 335 103 666 Q103 995 226.5 1176.5 Q350 1358 573 1358 Z M570 1187 Q454 1187 398 1088 Q311 937 311 666 Q311 423 378.5 287.5 Q446 152 567 152 Q679 152 735 251 Q822 403 822 669 Q822 913 755 1050 Q688 1187 570 1187 Z " />
<glyph glyph-name="one" unicode="1" horiz-adv-x="1133" d="M346 995 L346 1115 Q600 1121 646 1339 L787 1339 L787 0 L582 0 L582 995 L346 995 Z " />
<glyph glyph-name="two" unicode="2" horiz-adv-x="1133" d="M347 952 L169 952 Q170 1116 245 1213 Q357 1358 576 1358 Q753 1358 859.5 1264.5 Q966 1171 966 1016 Q966 897 879 765 Q792 633 418 187 L980 187 L980 0 L154 0 L154 164 Q191 211 316 361 Q593 694 674.5 814.5 Q756 935 756 1012 Q756 1086 703.5 1132 Q651 1178 567 1178 Q366 1178 347 952 Z " />
<glyph glyph-name="three" unicode="3" horiz-adv-x="1133" d="M363 984 L186 984 Q193 1161 300.5 1259.5 Q408 1358 594 1358 Q776 1358 878 1260 Q979 1164 979 1013 Q979 805 770 716 Q1009 641 1009 393 Q1009 208 887 94 Q765 -20 567 -20 Q360 -20 243.5 88.5 Q127 197 129 390 L314 390 Q319 159 562 159 Q674 159 738.5 220.5 Q803 282 803 390 Q803 508 725.5 561.5 Q648 615 477 615 Q461 615 436 615 L436 787 Q470 784 487 784 Q772 784 772 997 Q772 1080 718 1130 Q664 1180 575 1180 Q392 1180 363 984 Z " />
<glyph glyph-name="four" unicode="4" horiz-adv-x="1133" d="M824 467 L1061 467 L1061 298 L829 298 L829 -15 L622 -15 L622 298 L72 298 L72 460 L597 1339 L824 1339 L824 467 Z M632 467 L633 1100 L267 467 L632 467 Z " />
<glyph glyph-name="five" unicode="5" horiz-adv-x="1133" d="M277 1331 L919 1331 L903 1148 L431 1148 L376 828 Q476 902 593 902 Q775 902 887 781.5 Q999 661 999 467 Q999 257 871 119 Q743 -19 549 -19 Q369 -19 257 81 Q145 181 134 352 L327 352 Q358 160 541 160 Q650 160 717 242 Q784 324 784 457 Q784 582 723 657.5 Q662 733 561 733 Q428 733 340 608 L162 632 L277 1331 Z " />
<glyph glyph-name="six" unicode="6" horiz-adv-x="1133" d="M618 1356 L843 1356 Q620 1097 492 888 Q549 909 613 909 Q785 909 894.5 783 Q1004 657 1004 458 Q1004 246 884.5 113.5 Q765 -19 575 -19 Q393 -19 271 101 Q130 239 130 457 Q130 658 236.5 854.5 Q343 1051 618 1356 Z M567 747 Q466 747 402 665 Q338 583 338 453 Q338 323 403 239.5 Q468 156 569 156 Q672 156 734 237 Q796 318 796 452 Q796 583 732.5 665 Q669 747 567 747 Z " />
<glyph glyph-name="seven" unicode="7" horiz-adv-x="1133" d="M132 1331 L1002 1331 L1002 1170 L362 0 L134 0 L758 1136 L132 1136 L132 1331 Z " />
<glyph glyph-name="eight" unicode="8" horiz-adv-x="1133" d="M312 702 Q157 791 157 977 Q157 1156 294 1266 Q408 1358 566 1358 Q724 1358 838 1266 Q975 1156 975 977 Q975 791 821 702 Q1006 599 1006 386 Q1006 196 865 81 Q743 -19 566 -19 Q390 -19 268 81 Q127 196 127 387 Q127 599 312 702 Z M569 1191 Q477 1191 421 1134 Q365 1077 365 984 Q365 893 421 836 Q477 779 567 779 Q656 779 712 836.5 Q768 894 768 985 Q768 1076 712 1133.5 Q656 1191 569 1191 Z M569 613 Q465 613 400 548 Q335 483 335 380 Q335 278 400 213 Q465 148 567 148 Q668 148 733 213 Q798 278 798 380 Q798 481 733 547 Q668 613 569 613 Z " />
<glyph glyph-name="nine" unicode="9" horiz-adv-x="1133" d="M513 -25 L289 -25 Q507 227 641 446 Q587 425 521 425 Q352 425 241 552 Q130 679 130 872 Q130 1111 283 1250 Q402 1358 575 1358 Q745 1358 859 1254 Q1004 1121 1004 881 Q1004 678 893 473 Q782 268 513 -25 Z M573 1183 Q468 1183 403 1099.5 Q338 1016 338 881 Q338 751 402 669 Q466 587 567 587 Q669 587 732.5 669 Q796 751 796 884 Q796 1018 734.5 1100.5 Q673 1183 573 1183 Z " />
<glyph glyph-name="colon" unicode="&#x3a;" horiz-adv-x="518" d="M260 260 Q316 260 356.5 219 Q397 178 397 121 Q397 64 356.5 23.5 Q316 -17 258 -17 Q201 -17 160.5 23.5 Q120 64 120 121 Q120 179 160.5 219.5 Q201 260 260 260 Z M260 973 Q316 973 356.5 932 Q397 891 397 834 Q397 777 356.5 736.5 Q316 696 258 696 Q201 696 160.5 736.5 Q120 777 120 834 Q120 892 160.5 932.5 Q201 973 260 973 Z " />
<glyph glyph-name="semicolon" unicode="&#x3b;" horiz-adv-x="502" d="M236 973 Q292 973 332.5 932 Q373 891 373 835 Q373 777 332.5 736.5 Q292 696 234 696 Q177 696 136.5 736.5 Q96 777 96 834 Q96 892 136.5 932.5 Q177 973 236 973 Z M187 -387 L57 -387 Q212 -196 231 3 Q92 10 92 130 Q92 187 134 227 Q176 267 236 267 Q304 267 345 215 Q386 163 386 76 Q386 -116 187 -387 Z " />
<glyph glyph-name="less" unicode="&#x3c;" horiz-adv-x="1024" d="M955 1211 L955 1011 L282 692 L955 374 L955 175 L68 607 L68 779 L955 1211 Z " />
<glyph glyph-name="equal" unicode="&#x3d;" horiz-adv-x="1133" d="M103 916 L1030 916 L1030 762 L103 762 L103 916 Z M103 607 L1030 607 L1030 453 L103 453 L103 607 Z " />
<glyph glyph-name="greater" unicode="&#x3e;" horiz-adv-x="1024" d="M69 174 L69 375 L742 692 L69 1011 L69 1210 L956 778 L956 606 L69 174 Z " />
<glyph glyph-name="question" unicode="&#x3f;" horiz-adv-x="849" d="M415 260 Q471 260 511.5 219 Q552 178 552 121 Q552 64 511.5 23.5 Q471 -17 413 -17 Q356 -17 315.5 23.5 Q275 64 275 121 Q275 179 315.5 219.5 Q356 260 415 260 Z M509 417 L319 417 Q319 617 337 673.5 Q355 730 454 834 Q529 913 553 954 Q577 995 577 1043 Q577 1174 435 1174 Q279 1174 266 995 L101 995 Q113 1354 459 1354 Q614 1354 703 1273.5 Q792 1193 792 1053 Q792 971 759.5 911.5 Q727 852 623 743 Q544 661 526 619.5 Q508 578 508 481 Q508 457 509 417 Z " />
<glyph glyph-name="at" unicode="&#x40;" horiz-adv-x="1502" d="M994 1011 L1137 1011 L1057 597 Q1044 529 1044 503 Q1044 413 1106 413 Q1182 413 1244.5 528 Q1307 643 1307 783 Q1307 1004 1157 1137 Q1015 1263 787 1263 Q539 1263 378 1101 Q209 930 209 673 Q209 410 370.5 256 Q532 102 807 102 Q1018 102 1204 182 L1239 54 Q1045 -26 806 -26 Q473 -26 275 163 Q66 362 66 676 Q66 984 277 1191 Q479 1390 785 1390 Q1056 1390 1235 1236 Q1437 1062 1437 785 Q1437 529 1275 372 Q1194 294 1099 294 Q974 294 944 430 Q851 291 696 291 Q565 291 482 383.5 Q399 476 399 622 Q399 790 505.5 912 Q612 1034 758 1034 Q909 1034 973 905 L994 1011 Z M779 890 Q689 890 626 811 Q563 732 563 620 Q563 532 607.5 480 Q652 428 728 428 Q815 428 873 508 Q931 588 931 708 Q931 890 779 890 Z " />
<glyph glyph-name="A" unicode="A" horiz-adv-x="1198" d="M495 1369 L700 1369 L1167 0 L948 0 L847 320 L350 320 L247 0 L30 0 L495 1369 Z M791 502 L598 1116 L405 502 L791 502 Z " />
<glyph glyph-name="B" unicode="B" horiz-adv-x="1168" d="M169 1365 L481 1365 Q708 1365 806 1331 Q1018 1259 1018 1024 Q1018 801 793 731 Q1091 661 1091 388 Q1091 262 1025 166 Q959 70 849 35 Q739 0 452 0 L169 0 L169 1365 Z M377 798 L497 798 Q667 798 738 843.5 Q809 889 809 999 Q809 1125 708 1166 Q647 1191 486 1191 L377 1191 L377 798 Z M377 174 L504 174 Q701 174 769 204 Q873 250 873 400 Q873 556 746 603 Q676 628 507 628 L377 628 L377 174 Z " />
<glyph glyph-name="C" unicode="C" horiz-adv-x="1230" d="M1139 952 L952 952 Q903 1206 671 1206 Q508 1206 413 1073 Q310 926 310 681 Q310 440 407.5 299.5 Q505 159 673 159 Q936 159 967 487 L1159 487 Q1148 303 1080 187 Q956 -25 681 -25 Q434 -25 275 139 Q88 331 88 679 Q88 1056 297 1248 Q452 1390 672 1390 Q876 1390 998 1276 Q1120 1162 1139 952 Z " />
<glyph glyph-name="D" unicode="D" horiz-adv-x="1304" d="M169 1365 L446 1365 Q758 1365 897 1291 Q1044 1214 1129.5 1050.5 Q1215 887 1215 684 Q1215 481 1133.5 319.5 Q1052 158 910 79 Q824 31 727 15.5 Q630 0 417 0 L169 0 L169 1365 Z M380 182 L490 182 Q625 182 692 195.5 Q759 209 817 248 Q997 368 997 685 Q997 1003 802 1124 Q740 1162 673.5 1173 Q607 1184 439 1184 L380 1184 L380 182 Z " />
<glyph glyph-name="E" unicode="E" horiz-adv-x="1066" d="M380 798 L928 798 L928 616 L380 616 L380 182 L995 182 L995 0 L169 0 L169 1365 L977 1365 L977 1184 L380 1184 L380 798 Z " />
<glyph glyph-name="F" unicode="F" horiz-adv-x="1031" d="M380 798 L928 798 L928 616 L380 616 L380 0 L169 0 L169 1365 L977 1365 L977 1184 L380 1184 L380 798 Z " />
<glyph glyph-name="G" unicode="G" horiz-adv-x="1295" d="M721 692 L1177 692 L1177 127 Q961 -25 698 -25 Q432 -25 271 143 Q88 334 88 683 Q88 1033 272 1224 Q432 1390 679 1390 Q889 1390 1014 1276 Q1139 1162 1158 955 L971 955 Q925 1206 682 1206 Q516 1206 425 1089 Q310 943 310 683 Q310 434 412 296.5 Q514 159 699 159 Q856 159 997 248 L997 526 L721 526 L721 692 Z " />
<glyph glyph-name="H" unicode="H" horiz-adv-x="1350" d="M380 800 L969 800 L969 1365 L1180 1365 L1180 0 L969 0 L969 625 L380 625 L380 0 L169 0 L169 1365 L380 1365 L380 800 Z " />
<glyph glyph-name="I" unicode="I" horiz-adv-x="550" d="M381 0 L168 0 L168 1365 L381 1365 L381 0 Z " />
<glyph glyph-name="J" unicode="J" horiz-adv-x="641" d="M264 1365 L477 1365 L477 276 Q477 106 469.5 45.5 Q462 -15 435 -67 Q350 -231 57 -231 Q40 -231 -6 -229 L-6 -51 Q178 -52 229 7 Q252 34 258 80 Q264 126 264 274 L264 1365 Z " />
<glyph glyph-name="K" unicode="K" horiz-adv-x="1214" d="M909 1365 L1156 1365 L624 726 L1199 0 L923 0 L383 720 L909 1365 Z M169 1365 L380 1365 L380 0 L169 0 L169 1365 Z " />
<glyph glyph-name="L" unicode="L" horiz-adv-x="1016" d="M169 1365 L386 1365 L386 182 L975 182 L975 0 L169 0 L169 1365 Z " />
<glyph glyph-name="M" unicode="M" horiz-adv-x="1619" d="M169 1365 L472 1365 L809 228 L1148 1365 L1449 1365 L1449 0 L1255 0 L1255 1133 L916 0 L700 0 L363 1133 L363 0 L169 0 L169 1365 Z " />
<glyph glyph-name="N" unicode="N" horiz-adv-x="1368" d="M169 1365 L396 1365 L998 322 L998 1365 L1198 1365 L1198 0 L980 0 L370 1041 L370 0 L169 0 L169 1365 Z " />
<glyph glyph-name="O" unicode="O" horiz-adv-x="1353" d="M677 1390 Q920 1390 1082 1218 Q1265 1025 1265 683 Q1265 341 1082 147 Q920 -25 678 -25 Q432 -25 271 147 Q88 341 88 693 Q88 1024 271 1218 Q433 1390 677 1390 Z M677 1208 Q509 1208 416 1076 Q310 926 310 690 Q310 442 408 299.5 Q506 157 677 157 Q845 157 937 289 Q1043 440 1043 683 Q1043 924 944 1066 Q845 1208 677 1208 Z " />
<glyph glyph-name="P" unicode="P" horiz-adv-x="1119" d="M169 1365 L444 1365 Q711 1365 827 1326 Q942 1288 1008.5 1185.5 Q1075 1083 1075 944 Q1075 808 1010 707 Q945 606 834 569 Q724 532 471 532 L380 532 L380 0 L169 0 L169 1365 Z M380 714 L470 714 Q645 714 716 734 Q857 775 857 944 Q857 1100 743 1151 Q668 1184 468 1184 L380 1184 L380 714 Z " />
<glyph glyph-name="Q" unicode="Q" horiz-adv-x="1384" d="M1186 298 L1461 -8 L1213 -8 L1077 142 Q915 -25 675 -25 Q433 -25 271 147 Q88 342 88 683 Q88 1023 271 1218 Q433 1390 677 1390 Q920 1390 1082 1218 Q1265 1023 1265 686 Q1265 478 1186 298 Z M677 1208 Q510 1208 417 1075 Q310 922 310 689 Q310 444 409 300.5 Q508 157 677 157 Q844 157 936 289 Q1043 444 1043 682 Q1043 921 943 1064.5 Q843 1208 677 1208 Z " />
<glyph glyph-name="R" unicode="R" horiz-adv-x="1181" d="M169 1365 L463 1365 Q749 1365 867 1310 Q1074 1215 1074 961 Q1074 691 814 586 L1150 0 L901 0 L590 550 L380 550 L380 0 L169 0 L169 1365 Z M380 732 L475 732 Q654 732 723 757 Q856 805 856 963 Q856 1098 749 1150 Q681 1184 464 1184 L380 1184 L380 732 Z " />
<glyph glyph-name="S" unicode="S" horiz-adv-x="1140" d="M1009 987 L805 987 Q787 1206 562 1206 Q467 1206 403.5 1155.5 Q340 1105 340 1030 Q340 963 389.5 926 Q439 889 648 801 Q895 698 960 626 Q1048 530 1048 381 Q1048 196 920.5 85.5 Q793 -25 580 -25 Q348 -25 221 94.5 Q94 214 83 442 L288 442 Q312 159 584 159 Q693 159 762 211.5 Q831 264 831 346 Q831 425 775.5 471 Q720 517 518 603 Q293 700 210.5 786 Q128 872 128 1011 Q128 1178 251.5 1284 Q375 1390 569 1390 Q767 1390 882.5 1284 Q998 1178 1009 987 Z " />
<glyph glyph-name="T" unicode="T" horiz-adv-x="992" d="M33 1365 L960 1365 L960 1184 L601 1184 L601 0 L390 0 L390 1184 L33 1184 L33 1365 Z " />
<glyph glyph-name="U" unicode="U" horiz-adv-x="1334" d="M153 1365 L364 1365 L364 572 Q364 374 396 304 Q463 159 667 159 Q888 159 947 330 Q969 394 969 572 L969 1365 L1180 1365 L1180 569 Q1180 324 1136 229 Q1082 109 958 42 Q834 -25 667 -25 Q499 -25 375 42 Q251 109 196 229 Q153 324 153 569 L153 1365 Z " />
<glyph glyph-name="V" unicode="V" horiz-adv-x="1202" d="M21 1365 L247 1365 L603 242 L957 1365 L1179 1365 L707 -4 L489 -4 L21 1365 Z " />
<glyph glyph-name="W" unicode="W" horiz-adv-x="1691" d="M27 1365 L226 1365 L488 254 L756 1365 L938 1365 L1206 254 L1471 1365 L1665 1365 L1326 -4 L1090 -4 L844 968 L601 -4 L366 -4 L27 1365 Z " />
<glyph glyph-name="X" unicode="X" horiz-adv-x="1157" d="M60 1365 L302 1365 L581 895 L863 1365 L1105 1365 L703 712 L1128 0 L887 0 L581 519 L270 0 L30 0 L457 712 L60 1365 Z " />
<glyph glyph-name="Y" unicode="Y" horiz-adv-x="1103" d="M11 1365 L250 1365 L555 777 L856 1365 L1092 1365 L657 554 L657 0 L447 0 L447 554 L11 1365 Z " />
<glyph glyph-name="Z" unicode="Z" horiz-adv-x="1018" d="M107 1365 L967 1365 L967 1217 L303 182 L950 182 L950 0 L54 0 L54 165 L711 1186 L107 1186 L107 1365 Z " />
<glyph glyph-name="bracketleft" unicode="&#x5b;" horiz-adv-x="602" d="M169 1365 L531 1365 L531 1204 L347 1204 L347 -236 L531 -236 L531 -398 L169 -398 L169 1365 Z " />
<glyph glyph-name="backslash" unicode="&#x5c;" horiz-adv-x="1153" d="M1078 -354 L910 -354 L75 1365 L242 1365 L1078 -354 Z " />
<glyph glyph-name="bracketright" unicode="&#x5d;" horiz-adv-x="602" d="M433 -398 L71 -398 L71 -237 L255 -237 L255 1203 L71 1203 L71 1365 L433 1365 L433 -398 Z " />
<glyph glyph-name="asciicircum" unicode="&#x5e;" horiz-adv-x="1024" d="M246 720 L33 720 L380 1371 L645 1371 L992 720 L778 720 L512 1211 L246 720 Z " />
<glyph glyph-name="underscore" unicode="&#x5f;" horiz-adv-x="1024" d="M0 -116 L1024 -116 L1024 -299 L0 -299 L0 -116 Z " />
<glyph glyph-name="grave" unicode="&#x60;" horiz-adv-x="1024" d="M670 1106 L513 1106 L171 1415 L432 1415 L670 1106 Z " />
<glyph glyph-name="a" unicode="a" horiz-adv-x="1014" d="M318 698 L124 698 Q159 994 520 994 Q776 994 842 843 Q873 771 873 613 L873 234 Q873 71 903 0 L717 0 Q702 56 700 120 Q620 -22 422 -22 Q269 -22 179.5 52.5 Q90 127 90 255 Q90 463 313 547 Q419 587 678 632 L678 659 Q678 752 639 791.5 Q600 831 508 831 Q343 831 318 698 Z M678 493 Q466 461 381 413 Q296 365 296 278 Q296 215 342.5 176 Q389 137 462 137 Q575 137 626.5 204.5 Q678 272 678 418 L678 493 Z " />
<glyph glyph-name="b" unicode="b" horiz-adv-x="1085" d="M145 1373 L346 1373 L346 840 Q455 994 617 994 Q759 994 861 892 Q1005 747 1005 488 Q1005 225 853 80 Q747 -22 595 -22 Q419 -22 331 134 Q330 59 313 0 L134 0 Q145 71 145 265 L145 1373 Z M581 823 Q472 823 408.5 731.5 Q345 640 345 482 Q345 330 406 239.5 Q467 149 570 149 Q662 149 717 214 Q799 314 799 490 Q799 643 740 733 Q681 823 581 823 Z " />
<glyph glyph-name="c" unicode="c" horiz-adv-x="987" d="M900 651 L702 651 Q671 835 519 835 Q412 835 348.5 740 Q285 645 285 483 Q285 321 347.5 229 Q410 137 520 137 Q685 137 711 340 L907 340 Q896 170 792.5 71.5 Q689 -27 521 -27 Q341 -27 222 90 Q79 231 79 484 Q79 718 200 858.5 Q321 999 523 999 Q686 999 783 909.5 Q880 820 900 651 Z " />
<glyph glyph-name="d" unicode="d" horiz-adv-x="1084" d="M938 1373 L938 298 Q938 83 956 0 L766 0 Q754 52 754 95 Q754 111 756 137 Q662 -22 482 -22 Q321 -22 217 85 Q79 226 79 477 Q79 746 231 895 Q332 994 474 994 Q564 994 623 961.5 Q682 929 737 851 L737 1373 L938 1373 Z M518 823 Q419 823 364 755 Q285 656 285 480 Q285 327 345.5 238 Q406 149 510 149 Q606 149 660 215 Q741 313 741 487 Q741 642 681 732.5 Q621 823 518 823 Z " />
<glyph glyph-name="e" unicode="e" horiz-adv-x="1026" d="M946 442 L282 442 Q295 138 539 138 Q682 138 745 266 L926 253 Q842 -27 534 -27 Q363 -27 246 69 Q79 206 79 474 Q79 711 201.5 855 Q324 999 527 999 Q720 999 833.5 860 Q947 721 947 486 Q947 473 946 442 Z M741 592 Q712 838 522 838 Q336 838 288 592 L741 592 Z " />
<glyph glyph-name="f" unicode="f" horiz-adv-x="630" d="M368 972 L604 972 L604 813 L371 813 L371 0 L166 0 L166 813 L33 813 L33 972 L166 972 L166 1033 Q166 1213 213 1288 Q285 1401 447 1401 Q536 1401 638 1362 L638 1192 Q542 1226 484 1226 Q417 1226 392.5 1182 Q368 1138 368 1016 L368 972 Z " />
<glyph glyph-name="g" unicode="g" horiz-adv-x="1040" d="M999 972 L999 825 L800 827 Q866 752 866 630 Q866 455 727 389 Q653 354 440 323 Q338 308 338 253 Q338 224 370.5 214 Q403 204 543 190 Q770 168 847 127 Q975 59 975 -100 Q975 -248 852.5 -331.5 Q730 -415 513 -415 Q300 -415 174.5 -338.5 Q49 -262 49 -131 Q49 32 249 102 Q142 145 142 218 Q142 307 315 374 Q136 456 136 652 Q136 806 240 898 Q344 990 519 990 Q597 990 689 964 L999 972 Z M508 835 Q421 835 368.5 785.5 Q316 736 316 654 Q316 577 367 530.5 Q418 484 502 484 Q587 484 638.5 530.5 Q690 577 690 654 Q690 734 639 784.5 Q588 835 508 835 Z M490 28 Q225 28 225 -116 Q225 -183 303.5 -222.5 Q382 -262 515 -262 Q639 -262 710 -223.5 Q781 -185 781 -118 Q781 28 490 28 Z " />
<glyph glyph-name="h" unicode="h" horiz-adv-x="1086" d="M145 1373 L346 1373 L346 861 Q454 994 625 994 Q815 994 898 863 Q947 786 947 560 L947 0 L746 0 L746 526 Q746 672 720 726 Q675 816 565 816 Q346 816 346 515 L346 0 L145 0 L145 1373 Z " />
<glyph glyph-name="i" unicode="i" horiz-adv-x="495" d="M145 972 L350 972 L350 0 L145 0 L145 972 Z M251 1388 Q305 1388 339.5 1352.5 Q374 1317 374 1260 Q374 1204 339 1169.5 Q304 1135 247 1135 Q191 1135 156 1169 Q121 1203 121 1258 Q121 1315 157.5 1351.5 Q194 1388 251 1388 Z " />
<glyph glyph-name="j" unicode="j" horiz-adv-x="537" d="M191 972 L396 972 L396 114 Q396 -46 383.5 -113.5 Q371 -181 331 -238 Q232 -380 -22 -380 Q-35 -380 -70 -379 L-70 -205 Q-50 -205 -38 -205 Q125 -205 168 -118 Q190 -75 191 113 L191 972 Z M297 1388 Q352 1388 386 1353 Q420 1318 420 1261 Q420 1205 385 1170 Q350 1135 293 1135 Q237 1135 202 1169.5 Q167 1204 167 1259 Q167 1316 203 1352 Q239 1388 297 1388 Z " />
<glyph glyph-name="k" unicode="k" horiz-adv-x="1046" d="M731 972 L974 972 L590 527 L1005 0 L733 0 L350 523 L731 972 Z M145 1373 L346 1373 L346 0 L145 0 L145 1373 Z " />
<glyph glyph-name="l" unicode="l" horiz-adv-x="495" d="M145 1373 L350 1373 L350 0 L145 0 L145 1373 Z " />
<glyph glyph-name="m" unicode="m" horiz-adv-x="1642" d="M120 972 L316 972 Q335 917 335 841 Q436 994 624 994 Q818 994 898 832 Q1010 994 1206 994 Q1401 994 1469 859 Q1503 791 1503 580 L1503 0 L1302 0 L1302 577 Q1302 715 1265.5 765.5 Q1229 816 1130 816 Q924 816 924 561 L924 0 L723 0 L723 556 Q723 699 703 738 Q664 816 554 816 Q346 816 346 552 L346 0 L145 0 L145 709 Q145 898 120 972 Z " />
<glyph glyph-name="n" unicode="n" horiz-adv-x="1080" d="M118 972 L312 972 Q331 920 332 840 Q436 994 625 994 Q825 994 902 845 Q941 770 941 560 L941 0 L740 0 L740 526 Q740 676 716 728 Q675 816 565 816 Q345 816 345 519 L345 0 L144 0 L144 632 Q144 871 118 972 Z " />
<glyph glyph-name="o" unicode="o" horiz-adv-x="1066" d="M533 999 Q711 999 836 879 Q987 735 987 485 Q987 236 836 92 Q712 -27 534 -27 Q354 -27 230 92 Q79 236 79 492 Q79 737 230 879 Q356 999 533 999 Z M533 835 Q424 835 354.5 738.5 Q285 642 285 490 Q285 330 353 234 Q421 138 533 138 Q644 138 712.5 234 Q781 330 781 485 Q781 641 712 738 Q643 835 533 835 Z " />
<glyph glyph-name="p" unicode="p" horiz-adv-x="1084" d="M145 -403 L145 672 Q145 886 127 972 L317 972 Q335 919 335 844 Q432 994 606 994 Q755 994 856 896 Q1004 751 1004 489 Q1004 263 895 120.5 Q786 -22 614 -22 Q452 -22 346 119 L346 -403 L145 -403 Z M576 823 Q469 823 405.5 730.5 Q342 638 342 482 Q342 332 406 240.5 Q470 149 576 149 Q670 149 721 214 Q798 312 798 486 Q798 642 738.5 732.5 Q679 823 576 823 Z " />
<glyph glyph-name="q" unicode="q" horiz-adv-x="1084" d="M737 -403 L737 117 Q634 -22 483 -22 Q339 -22 236 71 Q79 212 79 479 Q79 710 191 852 Q303 994 485 994 Q664 994 748 845 Q748 919 765 972 L956 972 Q938 889 938 672 L938 -403 L737 -403 Z M511 823 Q419 823 365 756 Q285 657 285 482 Q285 329 346 239 Q407 149 511 149 Q618 149 679.5 239 Q741 329 741 485 Q741 638 678 730.5 Q615 823 511 823 Z " />
<glyph glyph-name="r" unicode="r" horiz-adv-x="723" d="M132 972 L324 972 Q339 898 339 823 Q339 803 337 766 Q442 994 602 994 Q643 994 699 974 L699 771 Q622 815 558 815 Q347 815 347 444 L347 0 L145 0 L145 656 Q144 888 132 972 Z " />
<glyph glyph-name="s" unicode="s" horiz-adv-x="949" d="M849 689 L655 689 Q635 843 479 843 Q409 843 364 808.5 Q319 774 319 720 Q319 667 360 640.5 Q401 614 551 570 Q732 517 796.5 457 Q861 397 861 281 Q861 137 761 55 Q661 -27 485 -27 Q84 -27 84 313 L275 313 Q290 130 480 130 Q658 130 658 266 Q658 322 615.5 347.5 Q573 373 382 431 Q237 475 177.5 536 Q118 597 118 701 Q118 834 218.5 916.5 Q319 999 482 999 Q649 999 744.5 918.5 Q840 838 849 689 Z " />
<glyph glyph-name="t" unicode="t" horiz-adv-x="691" d="M403 972 L617 972 L614 813 L400 813 L393 383 Q390 233 407.5 195 Q425 157 496 157 Q563 157 639 189 L636 19 Q536 -20 440 -20 Q305 -20 245 46.5 Q185 113 185 263 Q185 291 188 383 L200 813 L51 813 L54 972 L206 972 L213 1252 L408 1252 L403 972 Z " />
<glyph glyph-name="u" unicode="u" horiz-adv-x="1082" d="M139 972 L340 972 L340 399 Q340 269 382.5 212.5 Q425 156 523 156 Q736 156 736 438 L736 972 L937 972 L937 298 Q937 79 961 0 L768 0 Q752 48 748 120 Q657 -22 481 -22 Q279 -22 188 126 Q139 205 139 392 L139 972 Z " />
<glyph glyph-name="v" unicode="v" horiz-adv-x="961" d="M21 972 L233 972 L479 220 L726 972 L936 972 L591 -8 L366 -8 L21 972 Z " />
<glyph glyph-name="w" unicode="w" horiz-adv-x="1450" d="M29 972 L233 972 L427 246 L641 972 L807 972 L1020 246 L1216 972 L1419 972 L1132 -8 L923 -8 L721 658 L521 -8 L312 -8 L29 972 Z " />
<glyph glyph-name="x" unicode="x" horiz-adv-x="969" d="M56 972 L295 972 L485 665 L678 972 L919 972 L609 518 L962 0 L718 0 L485 359 L250 0 L7 0 L363 518 L56 972 Z " />
<glyph glyph-name="y" unicode="y" horiz-adv-x="964" d="M33 972 L247 972 L485 199 L732 972 L942 972 L617 47 Q551 -143 517 -206.5 Q483 -270 422 -320 Q311 -410 121 -410 Q100 -410 56 -408 L56 -233 Q81 -233 92 -233 Q216 -233 272.5 -192 Q329 -151 373 -28 L33 972 Z " />
<glyph glyph-name="z" unicode="z" horiz-adv-x="843" d="M93 972 L793 972 L793 822 L283 166 L792 166 L792 0 L46 0 L46 155 L549 806 L93 806 L93 972 Z " />
<glyph glyph-name="braceleft" unicode="&#x7b;" horiz-adv-x="602" d="M264 483 Q335 437 359.5 384.5 Q384 332 384 224 L384 -65 Q384 -190 414 -218 Q451 -253 578 -252 L578 -408 Q536 -409 514 -409 Q346 -409 277 -341 Q206 -271 206 -88 L206 231 Q206 319 180.5 361 Q155 403 92 418 L92 548 Q155 563 180.5 605 Q206 647 206 735 L206 1055 Q206 1237 272.5 1306.5 Q339 1376 515 1376 Q538 1376 578 1374 L578 1219 Q560 1219 552 1219 Q444 1219 414 1185.5 Q384 1152 384 1031 L384 742 Q384 634 359.5 581.5 Q335 529 264 483 Z " />
<glyph glyph-name="bar" unicode="&#x7c;" horiz-adv-x="1024" d="M411 1365 L612 1365 L612 -341 L411 -341 L411 1365 Z " />
<glyph glyph-name="braceright" unicode="&#x7d;" horiz-adv-x="602" d="M338 483 Q267 529 242.5 581.5 Q218 634 218 742 L218 1031 Q218 1140 199 1172 Q171 1219 52 1219 Q42 1219 24 1219 L24 1374 Q64 1376 87 1376 Q256 1376 325 1308 Q396 1238 396 1055 L396 735 Q396 647 422 605 Q448 563 510 548 L510 418 Q448 404 422 361.5 Q396 319 396 231 L396 -88 Q396 -271 329.5 -340 Q263 -409 87 -409 Q66 -409 24 -408 L24 -252 Q36 -252 52 -252 Q158 -252 188 -218.5 Q218 -185 218 -65 L218 224 Q218 332 242.5 384.5 Q267 437 338 483 Z " />
<glyph glyph-name="asciitilde" unicode="&#x7e;" horiz-adv-x="1365" d="M302 1172 L188 1246 Q261 1399 321 1451.5 Q381 1504 482 1504 Q556 1504 704 1442 Q839 1384 893 1384 Q987 1384 1061 1508 L1178 1439 Q1113 1305 1041 1247.5 Q969 1190 866 1190 Q804 1190 576 1284 Q512 1310 465 1310 Q375 1310 302 1172 Z " />
<glyph glyph-name="Adieresis" unicode="&#xc4;" horiz-adv-x="1198" d="M495 1369 L700 1369 L1167 0 L948 0 L847 320 L350 320 L247 0 L30 0 L495 1369 Z M791 502 L598 1116 L405 502 L791 502 Z M413 1774 Q468 1774 507 1734.5 Q546 1695 546 1640 Q546 1584 506.5 1544.5 Q467 1505 411 1505 Q356 1505 316.5 1544.5 Q277 1584 277 1639 Q277 1696 316.5 1735 Q356 1774 413 1774 Z M787 1774 Q842 1774 881 1734.5 Q920 1695 920 1640 Q920 1584 880.5 1544.5 Q841 1505 786 1505 Q730 1505 690.5 1544.5 Q651 1584 651 1639 Q651 1696 690.5 1735 Q730 1774 787 1774 Z " />
<glyph glyph-name="Aring" unicode="&#xc5;" horiz-adv-x="1198" d="M495 1369 L700 1369 L1167 0 L948 0 L847 320 L350 320 L247 0 L30 0 L495 1369 Z M791 502 L598 1116 L405 502 L791 502 Z M601 1853 Q681 1853 738 1795 Q795 1737 795 1656 Q795 1575 737.5 1517.5 Q680 1460 599 1460 Q518 1460 460 1517.5 Q402 1575 402 1656 Q402 1739 460 1796 Q518 1853 601 1853 Z M600 1757 Q557 1757 527.5 1727.5 Q498 1698 498 1656 Q498 1615 527.5 1585.5 Q557 1556 599 1556 Q640 1556 669.5 1585.5 Q699 1615 699 1656 Q699 1698 669.5 1727.5 Q640 1757 600 1757 Z " />
<glyph glyph-name="Ccedilla" unicode="&#xc7;" horiz-adv-x="1230" d="M692 -26 L659 -119 Q866 -153 866 -319 Q866 -412 799.5 -473.5 Q733 -535 633 -535 Q554 -535 448 -481 L448 -379 Q538 -418 583 -418 Q704 -418 704 -301 Q704 -183 560 -183 Q541 -183 504 -188 L562 -13 Q445 4 332 89 Q87 273 87 681 Q87 1065 304 1255 Q458 1390 673 1390 Q876 1390 997.5 1275.5 Q1119 1161 1138 952 L951 952 Q902 1206 670 1206 Q512 1206 420 1083 Q309 935 309 680 Q309 440 406.5 299.5 Q504 159 672 159 Q935 159 966 487 L1159 487 Q1129 -10 692 -26 Z " />
<glyph glyph-name="Eacute" unicode="&#xc9;" horiz-adv-x="1066" d="M380 798 L928 798 L928 616 L380 616 L380 182 L995 182 L995 0 L169 0 L169 1365 L977 1365 L977 1184 L380 1184 L380 798 Z M394 1486 L707 1794 L969 1794 L588 1486 L394 1486 Z " />
<glyph glyph-name="Ntilde" unicode="&#xd1;" horiz-adv-x="1368" d="M169 1365 L396 1365 L998 322 L998 1365 L1198 1365 L1198 0 L980 0 L370 1041 L370 0 L169 0 L169 1365 Z M455 1510 L352 1541 Q408 1750 554 1750 Q609 1750 701 1708 Q800 1663 837 1663 Q905 1663 944 1763 L1039 1733 Q1020 1632 967.5 1574 Q915 1516 843 1516 Q782 1516 691 1555 Q580 1603 553 1603 Q477 1603 455 1510 Z " />
<glyph glyph-name="Odieresis" unicode="&#xd6;" horiz-adv-x="1353" d="M491 1774 Q546 1774 585 1734.5 Q624 1695 624 1640 Q624 1584 584.5 1544.5 Q545 1505 490 1505 Q434 1505 394.5 1544.5 Q355 1584 355 1639 Q355 1696 394.5 1735 Q434 1774 491 1774 Z M865 1774 Q920 1774 959 1734.5 Q998 1695 998 1640 Q998 1584 958.5 1544.5 Q919 1505 864 1505 Q808 1505 768.5 1544.5 Q729 1584 729 1639 Q729 1696 768.5 1735 Q808 1774 865 1774 Z M676 1390 Q884 1390 1035 1261 Q1265 1065 1265 685 Q1265 301 1035 104 Q885 -25 669 -25 Q468 -25 318 104 Q88 301 88 683 Q88 1068 318 1261 Q471 1390 676 1390 Z M676 1208 Q506 1208 408 1068 Q310 928 310 683 Q310 430 419 281 Q511 157 672 157 Q847 157 945 296.5 Q1043 436 1043 685 Q1043 938 934 1084 Q841 1208 676 1208 Z " />
<glyph glyph-name="Udieresis" unicode="&#xdc;" horiz-adv-x="1334" d="M481 1774 Q536 1774 575 1734.5 Q614 1695 614 1640 Q614 1584 575 1544.5 Q536 1505 480 1505 Q424 1505 384.5 1544.5 Q345 1584 345 1639 Q345 1696 384.5 1735 Q424 1774 481 1774 Z M855 1774 Q910 1774 949 1734.5 Q988 1695 988 1640 Q988 1584 948.5 1544.5 Q909 1505 854 1505 Q798 1505 758.5 1544.5 Q719 1584 719 1639 Q719 1696 758.5 1735 Q798 1774 855 1774 Z M153 1365 L364 1365 L364 572 Q364 374 396 304 Q463 159 667 159 Q888 159 947 330 Q969 394 969 572 L969 1365 L1180 1365 L1180 569 Q1180 324 1136 229 Q1082 109 958 42 Q834 -25 667 -25 Q499 -25 375 42 Q251 109 196 229 Q153 324 153 569 L153 1365 Z " />
<glyph glyph-name="aacute" unicode="&#xe1;" horiz-adv-x="1014" d="M357 1106 L595 1415 L856 1415 L514 1106 L357 1106 Z M318 698 L124 698 Q159 994 520 994 Q776 994 842 843 Q873 771 873 613 L873 234 Q873 71 903 0 L717 0 Q702 56 700 120 Q620 -22 422 -22 Q269 -22 179.5 52.5 Q90 127 90 255 Q90 463 313 547 Q419 587 678 632 L678 659 Q678 752 639 791.5 Q600 831 508 831 Q343 831 318 698 Z M678 493 Q466 461 381 413 Q296 365 296 278 Q296 215 342.5 176 Q389 137 462 137 Q575 137 626.5 204.5 Q678 272 678 418 L678 493 Z " />
<glyph glyph-name="agrave" unicode="&#xe0;" horiz-adv-x="1014" d="M666 1106 L509 1106 L167 1415 L428 1415 L666 1106 Z M318 698 L124 698 Q159 994 520 994 Q776 994 842 843 Q873 771 873 613 L873 234 Q873 71 903 0 L717 0 Q702 56 700 120 Q620 -22 422 -22 Q269 -22 179.5 52.5 Q90 127 90 255 Q90 463 313 547 Q419 587 678 632 L678 659 Q678 752 639 791.5 Q600 831 508 831 Q343 831 318 698 Z M678 493 Q466 461 381 413 Q296 365 296 278 Q296 215 342.5 176 Q389 137 462 137 Q575 137 626.5 204.5 Q678 272 678 418 L678 493 Z " />
<glyph glyph-name="acircumflex" unicode="&#xe2;" horiz-adv-x="1014" d="M174 1115 L414 1415 L599 1415 L840 1115 L654 1115 L507 1299 L362 1115 L174 1115 Z M318 698 L124 698 Q159 994 520 994 Q776 994 842 843 Q873 771 873 613 L873 234 Q873 71 903 0 L717 0 Q702 56 700 120 Q620 -22 422 -22 Q269 -22 179.5 52.5 Q90 127 90 255 Q90 463 313 547 Q419 587 678 632 L678 659 Q678 752 639 791.5 Q600 831 508 831 Q343 831 318 698 Z M678 493 Q466 461 381 413 Q296 365 296 278 Q296 215 342.5 176 Q389 137 462 137 Q575 137 626.5 204.5 Q678 272 678 418 L678 493 Z " />
<glyph glyph-name="adieresis" unicode="&#xe4;" horiz-adv-x="1014" d="M318 698 L124 698 Q159 994 520 994 Q776 994 842 843 Q873 771 873 613 L873 234 Q873 71 903 0 L717 0 Q702 56 700 120 Q620 -22 422 -22 Q269 -22 179.5 52.5 Q90 127 90 255 Q90 463 313 547 Q419 587 678 632 L678 659 Q678 752 639 791.5 Q600 831 508 831 Q343 831 318 698 Z M678 493 Q466 461 381 413 Q296 365 296 278 Q296 215 342.5 176 Q389 137 462 137 Q575 137 626.5 204.5 Q678 272 678 418 L678 493 Z M328 1391 Q379 1391 415 1354.5 Q451 1318 451 1267 Q451 1215 414.5 1178.5 Q378 1142 327 1142 Q275 1142 238.5 1178.5 Q202 1215 202 1266 Q202 1319 238.5 1355 Q275 1391 328 1391 Z M682 1391 Q733 1391 769 1354.5 Q805 1318 805 1267 Q805 1215 768.5 1178.5 Q732 1142 681 1142 Q629 1142 592.5 1178.5 Q556 1215 556 1266 Q556 1319 592.5 1355 Q629 1391 682 1391 Z " />
<glyph glyph-name="atilde" unicode="&#xe3;" horiz-adv-x="1014" d="M292 1137 L197 1161 Q248 1376 375 1376 Q425 1376 513 1334 Q605 1290 637 1290 Q695 1290 731 1390 L821 1366 Q803 1262 756 1202 Q709 1142 644 1142 Q596 1142 501 1186 Q406 1230 377 1230 Q317 1230 292 1137 Z M318 698 L124 698 Q159 994 520 994 Q776 994 842 843 Q873 771 873 613 L873 234 Q873 71 903 0 L717 0 Q702 56 700 120 Q620 -22 422 -22 Q269 -22 179.5 52.5 Q90 127 90 255 Q90 463 313 547 Q419 587 678 632 L678 659 Q678 752 639 791.5 Q600 831 508 831 Q343 831 318 698 Z M678 493 Q466 461 381 413 Q296 365 296 278 Q296 215 342.5 176 Q389 137 462 137 Q575 137 626.5 204.5 Q678 272 678 418 L678 493 Z " />
<glyph glyph-name="aring" unicode="&#xe5;" horiz-adv-x="1014" d="M510 1476 Q589 1476 646.5 1418 Q704 1360 704 1279 Q704 1198 646.5 1140.5 Q589 1083 508 1083 Q427 1083 369 1140.5 Q311 1198 311 1279 Q311 1361 369 1418.5 Q427 1476 510 1476 Z M509 1380 Q466 1380 436.5 1351 Q407 1322 407 1279 Q407 1238 436.5 1208.5 Q466 1179 508 1179 Q549 1179 578.5 1208.5 Q608 1238 608 1279 Q608 1321 579 1350.5 Q550 1380 509 1380 Z M318 698 L124 698 Q159 994 520 994 Q776 994 842 843 Q873 771 873 613 L873 234 Q873 71 903 0 L717 0 Q702 56 700 120 Q620 -22 422 -22 Q269 -22 179.5 52.5 Q90 127 90 255 Q90 463 313 547 Q419 587 678 632 L678 659 Q678 752 639 791.5 Q600 831 508 831 Q343 831 318 698 Z M678 493 Q466 461 381 413 Q296 365 296 278 Q296 215 342.5 176 Q389 137 462 137 Q575 137 626.5 204.5 Q678 272 678 418 L678 493 Z " />
<glyph glyph-name="ccedilla" unicode="&#xe7;" horiz-adv-x="987" d="M517 -27 L489 -101 Q671 -134 671 -275 Q671 -357 613 -411 Q555 -465 466 -465 Q392 -465 301 -417 L301 -328 Q386 -362 422 -362 Q529 -362 529 -260 Q529 -155 400 -155 Q383 -155 352 -158 L408 -12 Q291 21 222 91 Q79 237 79 484 Q79 718 200 858.5 Q321 999 522 999 Q686 999 783 909.5 Q880 820 899 651 L701 651 Q671 835 519 835 Q412 835 348.5 740 Q285 645 285 484 Q285 321 347.5 229.5 Q410 138 520 138 Q685 138 710 340 L907 340 Q896 170 793.5 73.5 Q691 -23 517 -27 Z " />
<glyph glyph-name="eacute" unicode="&#xe9;" horiz-adv-x="1026" d="M384 1106 L622 1415 L883 1415 L541 1106 L384 1106 Z M946 442 L282 442 Q295 138 539 138 Q682 138 745 266 L926 253 Q842 -27 534 -27 Q363 -27 246 69 Q79 206 79 474 Q79 711 201.5 855 Q324 999 527 999 Q720 999 833.5 860 Q947 721 947 486 Q947 473 946 442 Z M741 592 Q712 838 522 838 Q336 838 288 592 L741 592 Z " />
<glyph glyph-name="egrave" unicode="&#xe8;" horiz-adv-x="1026" d="M682 1106 L525 1106 L183 1415 L444 1415 L682 1106 Z M946 442 L282 442 Q295 138 539 138 Q682 138 745 266 L926 253 Q842 -27 534 -27 Q363 -27 246 69 Q79 206 79 474 Q79 711 201.5 855 Q324 999 527 999 Q720 999 833.5 860 Q947 721 947 486 Q947 473 946 442 Z M741 592 Q712 838 522 838 Q336 838 288 592 L741 592 Z " />
<glyph glyph-name="ecircumflex" unicode="&#xea;" horiz-adv-x="1026" d="M200 1115 L440 1415 L625 1415 L865 1115 L679 1115 L533 1299 L387 1115 L200 1115 Z M946 442 L282 442 Q295 138 539 138 Q682 138 745 266 L926 253 Q842 -27 534 -27 Q363 -27 246 69 Q79 206 79 474 Q79 711 201.5 855 Q324 999 527 999 Q720 999 833.5 860 Q947 721 947 486 Q947 473 946 442 Z M741 592 Q712 838 522 838 Q336 838 288 592 L741 592 Z " />
<glyph glyph-name="edieresis" unicode="&#xeb;" horiz-adv-x="1026" d="M946 442 L282 442 Q295 138 539 138 Q682 138 745 266 L926 253 Q842 -27 534 -27 Q363 -27 246 69 Q79 206 79 474 Q79 711 201.5 855 Q324 999 527 999 Q720 999 833.5 860 Q947 721 947 486 Q947 473 946 442 Z M741 592 Q712 838 522 838 Q336 838 288 592 L741 592 Z M358 1391 Q409 1391 445 1354.5 Q481 1318 481 1267 Q481 1215 444.5 1178.5 Q408 1142 357 1142 Q305 1142 268.5 1178.5 Q232 1215 232 1266 Q232 1319 268.5 1355 Q305 1391 358 1391 Z M712 1391 Q763 1391 799 1354.5 Q835 1318 835 1267 Q835 1215 798.5 1178.5 Q762 1142 711 1142 Q659 1142 622.5 1178.5 Q586 1215 586 1266 Q586 1319 622.5 1355 Q659 1391 712 1391 Z " />
<glyph glyph-name="iacute" unicode="&#xed;" horiz-adv-x="495" d="M145 972 L350 972 L350 0 L145 0 L145 972 Z M131 1106 L314 1415 L555 1415 L281 1106 L131 1106 Z " />
<glyph glyph-name="igrave" unicode="&#xec;" horiz-adv-x="495" d="M145 972 L350 972 L350 0 L145 0 L145 972 Z M364 1106 L214 1106 L-60 1415 L181 1415 L364 1106 Z " />
<glyph glyph-name="icircumflex" unicode="&#xee;" horiz-adv-x="495" d="M145 972 L350 972 L350 0 L145 0 L145 972 Z M-30 1115 L155 1415 L340 1415 L526 1115 L354 1115 L248 1299 L144 1115 L-30 1115 Z " />
<glyph glyph-name="idieresis" unicode="&#xef;" horiz-adv-x="495" d="M145 972 L350 972 L350 0 L145 0 L145 972 Z M95 1387 Q144 1387 179 1351.5 Q214 1316 214 1266 Q214 1216 179 1181 Q144 1146 94 1146 Q44 1146 8.5 1181 Q-27 1216 -27 1266 Q-27 1317 8.5 1352 Q44 1387 95 1387 Z M404 1387 Q453 1387 488 1351.5 Q523 1316 523 1266 Q523 1217 488 1181.5 Q453 1146 403 1146 Q353 1146 317.5 1181.5 Q282 1217 282 1266 Q282 1317 317.5 1352 Q353 1387 404 1387 Z " />
<glyph glyph-name="ntilde" unicode="&#xf1;" horiz-adv-x="1080" d="M305 1137 L210 1161 Q262 1376 389 1376 Q439 1376 526 1334 Q618 1290 650 1290 Q708 1290 745 1390 L834 1366 Q817 1262 769.5 1202 Q722 1142 658 1142 Q609 1142 514 1186 Q419 1230 391 1230 Q331 1230 305 1137 Z M118 972 L312 972 Q331 920 332 840 Q436 994 625 994 Q825 994 902 845 Q941 770 941 560 L941 0 L740 0 L740 526 Q740 676 716 728 Q675 816 565 816 Q345 816 345 519 L345 0 L144 0 L144 632 Q144 871 118 972 Z " />
<glyph glyph-name="oacute" unicode="&#xf3;" horiz-adv-x="1066" d="M383 1106 L621 1415 L882 1415 L540 1106 L383 1106 Z M533 999 Q711 999 836 879 Q987 735 987 485 Q987 236 836 92 Q712 -27 534 -27 Q354 -27 230 92 Q79 236 79 492 Q79 737 230 879 Q356 999 533 999 Z M533 835 Q424 835 354.5 738.5 Q285 642 285 490 Q285 330 353 234 Q421 138 533 138 Q644 138 712.5 234 Q781 330 781 485 Q781 641 712 738 Q643 835 533 835 Z " />
<glyph glyph-name="ograve" unicode="&#xf2;" horiz-adv-x="1066" d="M675 1106 L518 1106 L176 1415 L437 1415 L675 1106 Z M533 999 Q711 999 836 879 Q987 735 987 485 Q987 236 836 92 Q712 -27 534 -27 Q354 -27 230 92 Q79 236 79 492 Q79 737 230 879 Q356 999 533 999 Z M533 835 Q424 835 354.5 738.5 Q285 642 285 490 Q285 330 353 234 Q421 138 533 138 Q644 138 712.5 234 Q781 330 781 485 Q781 641 712 738 Q643 835 533 835 Z " />
<glyph glyph-name="ocircumflex" unicode="&#xf4;" horiz-adv-x="1066" d="M200 1115 L440 1415 L625 1415 L866 1115 L680 1115 L533 1299 L388 1115 L200 1115 Z M533 999 Q711 999 836 879 Q987 735 987 485 Q987 236 836 92 Q712 -27 534 -27 Q354 -27 230 92 Q79 236 79 492 Q79 737 230 879 Q356 999 533 999 Z M533 835 Q424 835 354.5 738.5 Q285 642 285 490 Q285 330 353 234 Q421 138 533 138 Q644 138 712.5 234 Q781 330 781 485 Q781 641 712 738 Q643 835 533 835 Z " />
<glyph glyph-name="odieresis" unicode="&#xf6;" horiz-adv-x="1066" d="M533 999 Q711 999 836 879 Q987 735 987 485 Q987 236 836 92 Q712 -27 534 -27 Q354 -27 230 92 Q79 236 79 492 Q79 737 230 879 Q356 999 533 999 Z M533 835 Q424 835 354.5 738.5 Q285 642 285 490 Q285 330 353 234 Q421 138 533 138 Q644 138 712.5 234 Q781 330 781 485 Q781 641 712 738 Q643 835 533 835 Z M358 1391 Q409 1391 445 1354.5 Q481 1318 481 1267 Q481 1215 444.5 1178.5 Q408 1142 357 1142 Q305 1142 268.5 1178.5 Q232 1215 232 1266 Q232 1319 268.5 1355 Q305 1391 358 1391 Z M711 1391 Q762 1391 798 1354.5 Q834 1318 834 1267 Q834 1215 797.5 1178.5 Q761 1142 710 1142 Q658 1142 621.5 1178.5 Q585 1215 585 1266 Q585 1319 621.5 1355 Q658 1391 711 1391 Z " />
<glyph glyph-name="otilde" unicode="&#xf5;" horiz-adv-x="1066" d="M327 1137 L232 1161 Q282 1376 410 1376 Q461 1376 548 1334 Q640 1290 672 1290 Q731 1290 766 1390 L856 1366 Q839 1262 791.5 1202 Q744 1142 680 1142 Q631 1142 536 1186 Q441 1230 413 1230 Q352 1230 327 1137 Z M533 999 Q711 999 836 879 Q987 735 987 485 Q987 236 836 92 Q712 -27 534 -27 Q354 -27 230 92 Q79 236 79 492 Q79 737 230 879 Q356 999 533 999 Z M533 835 Q424 835 354.5 738.5 Q285 642 285 490 Q285 330 353 234 Q421 138 533 138 Q644 138 712.5 234 Q781 330 781 485 Q781 641 712 738 Q643 835 533 835 Z " />
<glyph glyph-name="uacute" unicode="&#xfa;" horiz-adv-x="1082" d="M388 1106 L626 1415 L887 1415 L545 1106 L388 1106 Z M139 972 L340 972 L340 399 Q340 269 382.5 212.5 Q425 156 523 156 Q736 156 736 438 L736 972 L937 972 L937 298 Q937 79 961 0 L768 0 Q752 48 748 120 Q657 -22 481 -22 Q279 -22 188 126 Q139 205 139 392 L139 972 Z " />
<glyph glyph-name="ugrave" unicode="&#xf9;" horiz-adv-x="1082" d="M702 1106 L545 1106 L202 1415 L464 1415 L702 1106 Z M139 972 L340 972 L340 399 Q340 269 382.5 212.5 Q425 156 523 156 Q736 156 736 438 L736 972 L937 972 L937 298 Q937 79 961 0 L768 0 Q752 48 748 120 Q657 -22 481 -22 Q279 -22 188 126 Q139 205 139 392 L139 972 Z " />
<glyph glyph-name="ucircumflex" unicode="&#xfb;" horiz-adv-x="1082" d="M204 1115 L443 1415 L629 1415 L869 1115 L683 1115 L536 1299 L391 1115 L204 1115 Z M139 972 L340 972 L340 399 Q340 269 382.5 212.5 Q425 156 523 156 Q736 156 736 438 L736 972 L937 972 L937 298 Q937 79 961 0 L768 0 Q752 48 748 120 Q657 -22 481 -22 Q279 -22 188 126 Q139 205 139 392 L139 972 Z " />
<glyph glyph-name="udieresis" unicode="&#xfc;" horiz-adv-x="1082" d="M139 972 L340 972 L340 399 Q340 269 382.5 212.5 Q425 156 523 156 Q736 156 736 438 L736 972 L937 972 L937 298 Q937 79 961 0 L768 0 Q752 48 748 120 Q657 -22 481 -22 Q279 -22 188 126 Q139 205 139 392 L139 972 Z M361 1391 Q412 1391 448 1354.5 Q484 1318 484 1267 Q484 1215 447.5 1178.5 Q411 1142 360 1142 Q308 1142 271.5 1178.5 Q235 1215 235 1266 Q235 1319 271.5 1355 Q308 1391 361 1391 Z M715 1391 Q766 1391 802 1354.5 Q838 1318 838 1267 Q838 1215 801.5 1178.5 Q765 1142 714 1142 Q662 1142 625.5 1178.5 Q589 1215 589 1266 Q589 1319 625.5 1355 Q662 1391 715 1391 Z " />
<glyph glyph-name="dagger" unicode="&#x2020;" horiz-adv-x="1024" d="M417 1331 L610 1331 L610 961 L932 961 L932 802 L610 802 L610 -270 L417 -270 L417 802 L91 802 L91 961 L417 961 L417 1331 Z " />
<glyph glyph-name="degree" unicode="&#xb0;" horiz-adv-x="1024" d="M512 1390 Q638 1390 726 1304 Q814 1218 814 1095 Q814 972 725.5 885 Q637 798 512 798 Q386 798 298 885.5 Q210 973 210 1098 Q210 1218 299 1304 Q388 1390 512 1390 Z M512 1267 Q440 1267 388 1217 Q336 1167 336 1097 Q336 1023 387 972 Q438 921 512 921 Q585 921 636.5 972 Q688 1023 688 1094 Q688 1166 636.5 1216.5 Q585 1267 512 1267 Z " />
<glyph glyph-name="cent" unicode="&#xa2;" horiz-adv-x="1133" d="M634 1043 L634 363 Q764 399 783 558 L980 558 Q973 409 879 311 Q785 213 634 196 L634 -1 L528 -1 L528 198 Q396 220 308 298 Q152 437 152 695 Q152 909 252 1044.5 Q352 1180 532 1209 L532 1381 L637 1381 L637 1210 Q935 1178 976 868 L773 868 Q754 1010 634 1043 Z M532 1038 Q357 968 357 694 Q357 421 532 365 L532 1038 Z " />
<glyph glyph-name="sterling" unicode="&#xa3;" horiz-adv-x="1133" d="M517 782 L829 782 L829 630 L488 630 Q445 335 346 163 Q454 191 560 191 Q600 191 689 187 Q738 184 760 184 Q830 184 855.5 219 Q881 254 884 352 L1052 352 Q1053 330 1053 319 Q1053 -9 759 -9 Q724 -9 559 4 Q475 10 405 10 Q254 10 81 -13 Q215 173 278 629 L99 629 L99 782 L307 782 L310 799 Q360 1081 410 1196 Q492 1386 714 1386 Q866 1386 941 1309 Q1016 1232 1028 1065 L848 1065 Q833 1211 718 1211 Q654 1211 620 1172.5 Q586 1134 562 1034 Q549 980 517 782 Z " />
<glyph glyph-name="section" unicode="&#xa7;" horiz-adv-x="1024" d="M879 995 L714 995 Q689 1195 517 1195 Q440 1195 391.5 1156 Q343 1117 343 1055 Q343 999 379 967 Q415 935 571 852 Q789 735 851.5 672 Q914 609 914 505 Q914 336 736 234 Q872 131 872 -20 Q872 -169 772.5 -253.5 Q673 -338 497 -338 Q104 -338 102 36 L272 36 Q287 -77 339 -126 Q391 -175 495 -175 Q685 -175 685 -18 Q685 49 638.5 87.5 Q592 126 357 250 Q105 385 105 557 Q105 712 285 822 Q157 925 157 1053 Q157 1185 258 1271.5 Q359 1358 513 1358 Q685 1358 779 1265 Q873 1172 879 995 Z M423 738 Q289 663 289 568 Q289 507 347 459 Q405 411 599 311 Q732 389 732 485 Q732 543 670 594 Q608 645 423 738 Z " />
<glyph glyph-name="bullet" unicode="&#x2022;" horiz-adv-x="1365" d="M689 978 Q804 978 886.5 894 Q969 810 969 694 Q969 576 886 493 Q803 410 685 410 Q568 410 484.5 493.5 Q401 577 401 694 Q401 813 484.5 895.5 Q568 978 689 978 Z " />
<glyph glyph-name="paragraph" unicode="&#xb6;" horiz-adv-x="1271" d="M447 -195 L447 651 Q428 650 420 650 Q255 650 152 747.5 Q49 845 49 1002 Q49 1365 522 1365 L1124 1365 L1124 1207 L988 1207 L988 -195 L814 -195 L814 1207 L621 1207 L621 -195 L447 -195 Z " />
<glyph glyph-name="germandbls" unicode="&#xdf;" horiz-adv-x="1078" d="M128 0 L128 862 Q128 1035 137.5 1098.5 Q147 1162 180 1219 Q276 1384 519 1384 Q673 1384 773 1309 Q900 1213 900 1050 Q900 845 691 774 Q998 702 998 389 Q998 214 897 100 Q796 -14 642 -14 Q558 -14 484 24 L484 202 Q552 164 617 164 Q698 164 745 222.5 Q792 281 792 382 Q792 520 703 598.5 Q614 677 459 677 Q453 677 438 677 L438 850 Q455 850 477 850 Q580 850 639 899.5 Q698 949 698 1035 Q698 1118 648 1168 Q598 1218 516 1218 Q388 1218 350 1115 Q329 1060 329 881 L329 0 L128 0 Z " />
<glyph glyph-name="registered" unicode="&#xae;" horiz-adv-x="1572" d="M523 1089 L712 1089 Q891 1089 967 1056 Q1099 998 1099 844 Q1099 685 939 620 L1151 270 L982 270 L789 596 L666 596 L666 270 L523 270 L523 1089 Z M666 715 L720 715 Q854 715 903 742.5 Q952 770 952 846 Q952 919 903 944.5 Q854 970 713 970 L666 970 L666 715 Z M795 1391 Q1078 1391 1287 1184 Q1494 977 1494 683 Q1494 391 1287 183 Q1079 -24 786 -24 Q493 -24 286 183 Q79 391 79 682 Q79 982 286 1184 Q499 1391 795 1391 Z M794 1299 Q538 1299 362 1121 Q183 940 183 682 Q183 427 361 246 Q537 67 787 67 Q1035 67 1212 246 Q1390 427 1390 683 Q1390 944 1211 1121 Q1030 1299 794 1299 Z " />
<glyph glyph-name="copyright" unicode="&#xa9;" horiz-adv-x="1572" d="M1119 848 L991 848 Q960 998 818 998 Q715 998 654 915.5 Q593 833 593 693 Q593 554 654 472 Q715 390 819 390 Q985 390 998 584 L1129 584 Q1126 439 1043 354.5 Q960 270 820 270 Q649 270 546.5 385 Q444 500 444 691 Q444 884 546 1001 Q648 1118 817 1118 Q950 1118 1029.5 1047 Q1109 976 1119 848 Z M795 1391 Q1078 1391 1287 1184 Q1494 978 1494 683 Q1494 391 1287 183 Q1079 -24 786 -24 Q493 -24 286 183 Q79 391 79 682 Q79 982 286 1184 Q499 1391 795 1391 Z M794 1291 Q542 1291 367 1115 Q191 937 191 682 Q191 430 367 251 Q541 75 787 75 Q1033 75 1207 251 Q1383 430 1383 683 Q1383 941 1206 1115 Q1028 1291 794 1291 Z " />
<glyph glyph-name="trademark" unicode="&#x2122;" horiz-adv-x="1650" d="M15 1365 L604 1365 L604 1246 L381 1246 L381 546 L238 546 L238 1246 L15 1246 L15 1365 Z M702 1365 L901 1365 L1134 705 L1368 1365 L1566 1365 L1566 546 L1434 546 L1434 1188 L1206 546 L1061 546 L834 1188 L834 546 L702 546 L702 1365 Z " />
<glyph glyph-name="acute" unicode="&#xb4;" horiz-adv-x="1024" d="M387 1106 L625 1415 L886 1415 L544 1106 L387 1106 Z " />
<glyph glyph-name="dieresis" unicode="&#xa8;" horiz-adv-x="1024" d="M337 1391 Q388 1391 424 1354.5 Q460 1318 460 1267 Q460 1215 423.5 1178.5 Q387 1142 336 1142 Q284 1142 247.5 1178.5 Q211 1215 211 1266 Q211 1319 247.5 1355 Q284 1391 337 1391 Z M691 1391 Q742 1391 778 1354.5 Q814 1318 814 1267 Q814 1215 777.5 1178.5 Q741 1142 690 1142 Q638 1142 601.5 1178.5 Q565 1215 565 1266 Q565 1319 601.5 1355 Q638 1391 691 1391 Z " />
<glyph glyph-name="notequal" unicode="&#x2260;" horiz-adv-x="1024" d="M547 956 L659 1182 L791 1120 L710 956 L956 956 L956 776 L628 776 L547 609 L956 609 L956 429 L464 429 L358 212 L226 273 L301 429 L68 429 L68 609 L384 609 L465 776 L68 776 L68 956 L547 956 Z " />
<glyph glyph-name="AE" unicode="&#xc6;" horiz-adv-x="1815" d="M832 1365 L1733 1365 L1733 1184 L1149 1184 L1149 796 L1682 796 L1682 614 L1149 614 L1149 182 L1744 182 L1744 0 L934 0 L934 320 L446 320 L263 0 L32 0 L832 1365 Z M934 502 L934 1175 L552 502 L934 502 Z " />
<glyph glyph-name="Oslash" unicode="&#xd8;" horiz-adv-x="1353" d="M1030 1268 L1114 1379 L1278 1379 L1121 1173 Q1265 984 1265 679 Q1265 308 1043 111 Q890 -25 679 -25 Q477 -25 320 101 L235 -14 L75 -14 L228 196 Q88 401 88 683 Q88 1085 335 1275 Q483 1390 675 1390 Q871 1390 1030 1268 Z M906 1114 Q809 1207 676 1207 Q521 1207 432 1094 Q310 940 310 674 Q310 531 366 383 L906 1114 Z M442 257 Q547 157 681 157 Q832 157 921 270 Q1043 425 1043 688 Q1043 841 984 997 L442 257 Z " />
<glyph glyph-name="infinity" unicode="&#x221e;" horiz-adv-x="1365" d="M688 564 Q541 374 358 374 Q216 374 126 464.5 Q36 555 36 698 Q36 848 136 937 Q229 1019 358 1019 Q541 1019 678 830 Q818 1019 1008 1019 Q1150 1019 1239.5 928.5 Q1329 838 1329 696 Q1329 543 1228 453 Q1137 373 1011 373 Q824 373 688 564 Z M783 697 Q881 544 984 544 Q1046 544 1088 587.5 Q1130 631 1130 696 Q1130 761 1087.5 804.5 Q1045 848 982 848 Q883 848 783 697 Z M583 696 Q486 848 382 848 Q319 848 277 804.5 Q235 761 235 697 Q235 632 277.5 588.5 Q320 545 383 545 Q482 545 583 696 Z " />
<glyph glyph-name="plusminus" unicode="&#xb1;" horiz-adv-x="1133" d="M645 790 L1030 790 L1030 638 L645 638 L645 290 L487 290 L487 638 L103 638 L103 790 L487 790 L487 1189 L645 1189 L645 790 Z M103 181 L1030 181 L1030 27 L103 27 L103 181 Z " />
<glyph glyph-name="lessequal" unicode="&#x2264;" horiz-adv-x="1024" d="M955 1303 L955 1112 L282 808 L955 505 L955 314 L68 720 L68 891 L955 1303 Z M955 254 L955 66 L68 66 L68 254 L955 254 Z " />
<glyph glyph-name="greaterequal" unicode="&#x2265;" horiz-adv-x="1024" d="M68 314 L68 505 L741 809 L68 1112 L68 1303 L955 890 L955 719 L68 314 Z M68 66 L68 254 L955 254 L955 66 L68 66 Z " />
<glyph glyph-name="yen" unicode="&#xa5;" horiz-adv-x="1133" d="M852 895 L1039 895 L1039 764 L785 764 L708 615 L1039 615 L1039 484 L675 484 L675 0 L464 0 L464 484 L94 484 L94 615 L430 615 L352 764 L94 764 L94 895 L284 895 L38 1365 L275 1365 L569 776 L861 1365 L1095 1365 L852 895 Z " />
<glyph glyph-name="mu" unicode="&#xb5;" horiz-adv-x="1024" d="M76 -348 L76 983 L277 983 L277 443 Q277 263 350 193 Q416 129 511 129 Q624 129 685.5 214 Q747 299 747 456 L747 983 L948 983 L948 0 L747 0 L747 148 Q664 -23 506 -23 Q362 -23 277 116 L277 -348 L76 -348 Z " />
<glyph glyph-name="partialdiff" unicode="&#x2202;" horiz-adv-x="1024" d="M153 1191 L180 1367 Q524 1325 716 1150 Q974 915 974 524 Q974 314 885 180 Q754 -20 511 -20 Q365 -20 245 65 Q49 205 49 445 Q49 641 183 772 Q303 888 474 888 Q636 888 752 763 Q698 885 649 947 Q600 1009 518 1063 Q360 1165 153 1191 Z M516 739 Q405 739 329 651.5 Q253 564 253 435 Q253 309 328.5 220.5 Q404 132 511 132 Q619 132 693.5 222.5 Q768 313 768 444 Q768 571 696 655 Q624 739 516 739 Z " />
<glyph glyph-name="summation" unicode="&#x2211;" horiz-adv-x="1365" d="M1245 1536 L1245 1047 L1064 1047 L1043 1347 L278 1347 L791 550 L278 -324 L1063 -324 L1074 -26 L1264 -26 L1264 -512 L51 -512 L51 -303 L555 550 L51 1328 L51 1536 L1245 1536 Z " />
<glyph glyph-name="product" unicode="&#x220f;" horiz-adv-x="1463" d="M78 1536 L1384 1536 L1384 1348 L1218 1348 L1218 -324 L1384 -324 L1384 -512 L850 -512 L850 -324 L1017 -324 L1017 1348 L445 1348 L445 -324 L610 -324 L610 -512 L78 -512 L78 -324 L244 -324 L244 1348 L78 1348 L78 1536 Z " />
<glyph glyph-name="integral" unicode="&#x222b;" horiz-adv-x="1024" d="M152 -491 L191 -311 Q251 -331 293 -331 Q394 -331 407 -228 Q411 -197 411 -73 L411 1059 Q413 1291 430 1354 Q481 1536 710 1536 Q773 1536 871 1514 L832 1335 Q772 1355 730 1355 Q629 1355 616 1252 Q613 1229 612 999 L612 -35 Q612 -224 602.5 -288 Q593 -352 557 -401 Q479 -510 301 -510 Q218 -510 152 -491 Z " />
<glyph glyph-name="ordfeminine" unicode="&#xaa;" horiz-adv-x="1024" d="M393 1188 L265 1188 Q279 1381 519 1381 Q676 1381 723 1290 Q744 1251 744 1149 L744 922 Q744 824 765 777 L640 777 Q630 812 628 840 Q567 764 455 764 Q359 764 302.5 810 Q246 856 246 934 Q246 1043 355 1101 Q408 1129 592 1168 L615 1173 L615 1190 Q615 1275 511 1275 Q407 1275 393 1188 Z M615 1080 Q481 1053 431.5 1025 Q382 997 382 949 Q382 868 481 868 Q615 868 615 1032 L615 1080 Z M228 662 L782 662 L782 567 L228 567 L228 662 Z " />
<glyph glyph-name="ordmasculine" unicode="&#xba;" horiz-adv-x="1024" d="M512 1382 Q636 1382 716.5 1295 Q797 1208 797 1073 Q797 935 716.5 848 Q636 761 509 761 Q387 761 307 849 Q227 937 227 1072 Q227 1207 307 1294.5 Q387 1382 512 1382 Z M512 1275 Q445 1275 404 1219 Q363 1163 363 1072 Q363 981 404 924.5 Q445 868 510 868 Q579 868 620 924 Q661 980 661 1072 Q661 1163 619.5 1219 Q578 1275 512 1275 Z M235 662 L789 662 L789 567 L235 567 L235 662 Z " />
<glyph glyph-name="ae" unicode="&#xe6;" horiz-adv-x="1629" d="M1550 443 L873 443 Q874 298 945 217 Q1016 136 1143 136 Q1288 136 1350 266 L1531 253 Q1501 124 1397.5 48.5 Q1294 -27 1147 -27 Q883 -27 767 180 Q672 -27 425 -27 Q274 -27 182 48 Q90 123 90 247 Q90 409 240.5 499.5 Q391 590 668 594 L668 647 Q668 750 631 793 Q594 836 507 836 Q353 836 315 681 L122 681 Q138 834 240.5 916.5 Q343 999 517 999 Q733 999 822 853 Q946 999 1127 999 Q1322 999 1436 857 Q1550 715 1550 472 Q1550 462 1550 443 Z M1334 592 Q1303 839 1118 839 Q928 839 882 592 L1334 592 Z M668 445 Q652 445 645 445 Q296 445 296 261 Q296 203 339 167.5 Q382 132 453 132 Q668 132 668 405 L668 445 Z " />
<glyph glyph-name="oslash" unicode="&#xf8;" horiz-adv-x="1067" d="M165 165 Q160 175 157 180 Q79 326 79 482 Q79 736 235 882 Q359 998 533 998 Q684 998 825 890 L902 972 L1045 972 L901 810 Q907 793 937 736 Q987 643 987 485 Q987 234 831 89 Q707 -27 532 -27 Q360 -27 241 82 L169 0 L21 0 L165 165 Z M310 318 L695 756 Q644 834 529 834 Q422 834 353.5 734.5 Q285 635 285 480 Q285 399 310 318 Z M752 658 L367 211 Q444 137 533 137 Q643 137 712 235 Q781 333 781 491 Q781 568 752 658 Z " />
<glyph glyph-name="questiondown" unicode="&#xbf;" horiz-adv-x="849" d="M461 973 Q518 973 558.5 932.5 Q599 892 599 835 Q599 777 558.5 736.5 Q518 696 459 696 Q403 696 362.5 737 Q322 778 322 835 Q322 892 362.5 932.5 Q403 973 461 973 Z M367 537 L557 537 L557 514 Q557 332 537.5 276.5 Q518 221 422 119 Q346 40 322.5 -0.5 Q299 -41 299 -90 Q299 -221 442 -221 Q597 -221 610 -41 L775 -41 Q761 -401 417 -401 Q262 -401 173 -320.5 Q84 -240 84 -100 Q84 -18 116.5 42.5 Q149 103 253 211 Q332 294 350 335.5 Q368 377 368 477 Q368 497 367 537 Z " />
<glyph glyph-name="exclamdown" unicode="&#xa1;" horiz-adv-x="513" d="M365 -381 L148 -381 L174 534 L344 534 L365 -381 Z M255 973 Q313 973 353.5 932.5 Q394 892 394 835 Q394 777 353.5 736.5 Q313 696 254 696 Q198 696 157.5 737 Q117 778 117 835 Q117 892 157.5 932.5 Q198 973 255 973 Z " />
<glyph glyph-name="logicalnot" unicode="&#xac;" horiz-adv-x="1024" d="M754 0 L754 358 L68 358 L68 546 L955 546 L955 0 L754 0 Z " />
<glyph glyph-name="radical" unicode="&#x221a;" horiz-adv-x="1365" d="M1365 1700 L1365 1512 L980 1512 L585 0 L325 0 L180 586 L0 586 L0 774 L346 774 L404 548 Q418 492 449 256 L465 256 Q507 544 602 911 L806 1700 L1365 1700 Z " />
<glyph glyph-name="florin" unicode="&#x192;" horiz-adv-x="1133" d="M763 972 L983 972 L983 821 L736 821 L634 239 Q584 -43 543 -122 Q462 -278 291 -278 Q165 -278 25 -196 L55 -31 Q185 -106 271 -106 Q340 -106 368.5 -46 Q397 14 437 239 L539 821 L344 821 L344 972 L566 972 L587 1090 Q621 1284 673 1359 Q751 1472 901 1472 Q1002 1472 1108 1415 L1080 1255 Q971 1303 919 1303 Q861 1303 832 1252.5 Q803 1202 777 1054 L763 972 Z " />
<glyph glyph-name="approxequal" unicode="&#x2248;" horiz-adv-x="1024" d="M131 712 L17 787 Q79 927 146 985.5 Q213 1044 311 1044 Q384 1044 533 982 Q670 924 721 924 Q776 924 811.5 950 Q847 976 890 1048 L1007 979 Q942 846 870 788 Q798 730 695 730 Q632 730 405 824 Q341 850 294 850 Q204 850 131 712 Z M131 337 L17 411 Q78 550 145.5 609.5 Q213 669 311 669 Q384 669 533 606 Q670 549 721 549 Q776 549 811 575 Q846 601 890 673 L1007 604 Q943 471 870.5 413 Q798 355 696 355 Q633 355 405 449 Q341 475 295 475 Q204 475 131 337 Z " />
<glyph glyph-name="guillemotleft" unicode="&#xab;" horiz-adv-x="898" d="M768 0 L605 0 L400 476 L605 976 L768 976 L596 476 L768 0 Z M438 0 L275 0 L70 476 L275 976 L438 976 L266 476 L438 0 Z " />
<glyph glyph-name="guillemotright" unicode="&#xbb;" horiz-adv-x="898" d="M130 976 L293 976 L498 499 L293 0 L130 0 L302 499 L130 976 Z M460 976 L623 976 L828 499 L623 0 L460 0 L632 499 L460 976 Z " />
<glyph glyph-name="ellipsis" unicode="&#x2026;" horiz-adv-x="1442" d="M260 260 Q316 260 356.5 219 Q397 178 397 121 Q397 64 356.5 23.5 Q316 -17 258 -17 Q201 -17 160.5 23.5 Q120 64 120 121 Q120 179 160.5 219.5 Q201 260 260 260 Z M721 260 Q777 260 817.5 219 Q858 178 858 121 Q858 64 817.5 23.5 Q777 -17 719 -17 Q662 -17 621.5 23.5 Q581 64 581 121 Q581 179 621.5 219.5 Q662 260 721 260 Z M1183 260 Q1239 260 1279.5 219 Q1320 178 1320 121 Q1320 64 1279.5 23.5 Q1239 -17 1181 -17 Q1124 -17 1083.5 23.5 Q1043 64 1043 121 Q1043 179 1083.5 219.5 Q1124 260 1183 260 Z " />
<glyph glyph-name="Agrave" unicode="&#xc0;" horiz-adv-x="1198" d="M496 1369 L701 1369 L1168 0 L949 0 L848 320 L351 320 L248 0 L31 0 L496 1369 Z M792 502 L599 1116 L406 502 L792 502 Z M741 1486 L546 1486 L166 1794 L427 1794 L741 1486 Z " />
<glyph glyph-name="Atilde" unicode="&#xc3;" horiz-adv-x="1198" d="M495 1369 L700 1369 L1167 0 L948 0 L847 320 L350 320 L247 0 L30 0 L495 1369 Z M791 502 L598 1116 L405 502 L791 502 Z M365 1510 L261 1541 Q317 1750 464 1750 Q519 1750 611 1708 Q710 1663 747 1663 Q814 1663 853 1763 L949 1733 Q930 1632 877.5 1574 Q825 1516 752 1516 Q692 1516 601 1555 Q489 1603 463 1603 Q388 1603 365 1510 Z " />
<glyph glyph-name="Otilde" unicode="&#xd5;" horiz-adv-x="1353" d="M447 1510 L343 1541 Q399 1750 545 1750 Q600 1750 692 1708 Q791 1663 829 1663 Q896 1663 935 1763 L1030 1733 Q1011 1632 958.5 1574 Q906 1516 834 1516 Q773 1516 682 1555 Q570 1603 544 1603 Q468 1603 447 1510 Z M676 1390 Q884 1390 1035 1261 Q1265 1065 1265 685 Q1265 301 1035 104 Q885 -25 669 -25 Q468 -25 318 104 Q88 301 88 683 Q88 1068 318 1261 Q471 1390 676 1390 Z M676 1208 Q506 1208 408 1068 Q310 928 310 683 Q310 430 419 281 Q511 157 672 157 Q847 157 945 296.5 Q1043 436 1043 685 Q1043 938 934 1084 Q841 1208 676 1208 Z " />
<glyph glyph-name="OE" unicode="&#x152;" horiz-adv-x="1940" d="M1047 1235 L1047 1365 L1852 1365 L1852 1184 L1256 1184 L1256 798 L1803 798 L1803 617 L1257 617 L1257 182 L1870 182 L1870 0 L1047 0 L1047 131 Q906 -25 683 -25 Q438 -25 279 133 Q88 324 88 681 Q88 1031 268 1224 Q423 1390 684 1390 Q908 1390 1047 1235 Z M683 1208 Q528 1208 439 1108 Q310 963 310 678 Q310 435 408 296 Q506 157 678 157 Q829 157 917 259 Q1046 409 1046 682 Q1046 923 947.5 1065.5 Q849 1208 683 1208 Z " />
<glyph glyph-name="oe" unicode="&#x153;" horiz-adv-x="1724" d="M1643 438 L969 438 Q973 293 1042 214.5 Q1111 136 1234 136 Q1393 136 1445 267 L1626 254 Q1544 -27 1236 -27 Q1006 -27 874 158 Q741 -27 538 -27 Q363 -27 238 89 Q79 237 79 487 Q79 739 234 883 Q359 999 538 999 Q767 999 876 806 Q1014 999 1223 999 Q1413 999 1528.5 859.5 Q1644 720 1644 491 Q1644 470 1643 438 Z M1437 583 Q1413 839 1213 839 Q1018 839 976 583 L1437 583 Z M535 835 Q423 835 354 738.5 Q285 642 285 484 Q285 330 354 233.5 Q423 137 533 137 Q641 137 709 233.5 Q777 330 777 485 Q777 639 709 737 Q641 835 535 835 Z " />
<glyph glyph-name="endash" unicode="&#x2013;" horiz-adv-x="1024" d="M115 591 L908 591 L908 441 L115 441 L115 591 Z " />
<glyph glyph-name="emdash" unicode="&#x2014;" horiz-adv-x="1241" d="M0 591 L1241 591 L1241 441 L0 441 L0 591 Z " />
<glyph glyph-name="quotedblleft" unicode="&#x201c;" horiz-adv-x="765" d="M575 1390 L695 1390 Q588 1271 574 1153 Q702 1146 702 1036 Q702 983 663.5 946 Q625 909 571 909 Q509 909 470.5 955.5 Q432 1002 432 1077 Q432 1218 575 1390 Z M238 1390 L358 1390 Q251 1272 237 1153 Q365 1146 365 1036 Q365 983 326.5 946 Q288 909 234 909 Q172 909 133.5 955.5 Q95 1002 95 1078 Q95 1217 238 1390 Z " />
<glyph glyph-name="quotedblright" unicode="&#x201d;" horiz-adv-x="775" d="M190 910 L70 910 Q176 1028 191 1147 Q63 1153 63 1264 Q63 1316 101 1353 Q139 1390 194 1390 Q256 1390 294.5 1343.5 Q333 1297 333 1221 Q333 1080 190 910 Z M537 910 L416 910 Q523 1028 537 1147 Q409 1153 409 1264 Q409 1316 447.5 1353 Q486 1390 541 1390 Q603 1390 641.5 1343.5 Q680 1297 680 1222 Q680 1081 537 910 Z " />
<glyph glyph-name="quoteleft" unicode="&#x2018;" horiz-adv-x="428" d="M238 1390 L358 1390 Q251 1272 237 1153 Q365 1146 365 1036 Q365 983 326.5 946 Q288 909 234 909 Q172 909 133.5 955.5 Q95 1002 95 1078 Q95 1217 238 1390 Z " />
<glyph glyph-name="quoteright" unicode="&#x2019;" horiz-adv-x="443" d="M205 910 L85 910 Q192 1029 206 1147 Q78 1153 78 1264 Q78 1316 116.5 1353 Q155 1390 210 1390 Q272 1390 310.5 1343.5 Q349 1297 349 1222 Q349 1081 205 910 Z " />
<glyph glyph-name="divide" unicode="&#xf7;" horiz-adv-x="1133" d="M567 496 Q617 496 652 460.5 Q687 425 687 375 Q687 325 651.5 289.5 Q616 254 566 254 Q516 254 480.5 289.5 Q445 325 445 375 Q445 426 480.5 461 Q516 496 567 496 Z M567 1112 Q616 1112 651.5 1076.5 Q687 1041 687 991 Q687 941 651.5 905.5 Q616 870 566 870 Q516 870 480.5 905.5 Q445 941 445 991 Q445 1042 480.5 1077 Q516 1112 567 1112 Z M103 762 L1030 762 L1030 608 L103 608 L103 762 Z " />
<glyph glyph-name="lozenge" unicode="&#x25ca;" horiz-adv-x="1365" d="M683 1419 L1214 683 L683 -53 L151 683 L683 1419 Z M683 1238 L279 683 L683 129 L1086 683 L683 1238 Z " />
<glyph glyph-name="ydieresis" unicode="&#xff;" horiz-adv-x="964" d="M33 972 L247 972 L485 199 L732 972 L942 972 L617 46 Q551 -143 517 -206.5 Q483 -270 422 -320 Q311 -410 121 -410 Q99 -410 56 -409 L56 -233 Q77 -233 92 -233 Q216 -233 272 -192.5 Q328 -152 373 -28 L33 972 Z M306 1391 Q357 1391 393 1354.5 Q429 1318 429 1267 Q429 1215 392.5 1178.5 Q356 1142 305 1142 Q253 1142 216.5 1178.5 Q180 1215 180 1266 Q180 1319 216.5 1355 Q253 1391 306 1391 Z M659 1391 Q710 1391 746 1354.5 Q782 1318 782 1267 Q782 1215 745.5 1178.5 Q709 1142 658 1142 Q606 1142 569.5 1178.5 Q533 1215 533 1266 Q533 1319 569.5 1355 Q606 1391 659 1391 Z " />
<glyph glyph-name="Ydieresis" unicode="&#x178;" horiz-adv-x="1103" d="M366 1774 Q421 1774 460 1734.5 Q499 1695 499 1639 Q499 1584 459.5 1544.5 Q420 1505 364 1505 Q309 1505 269.5 1544.5 Q230 1584 230 1639 Q230 1696 269.5 1735 Q309 1774 366 1774 Z M740 1774 Q795 1774 834 1734.5 Q873 1695 873 1639 Q873 1584 833.5 1544.5 Q794 1505 738 1505 Q683 1505 643.5 1544.5 Q604 1584 604 1639 Q604 1696 643.5 1735 Q683 1774 740 1774 Z M11 1365 L250 1365 L555 777 L856 1365 L1092 1365 L657 554 L657 0 L447 0 L447 554 L11 1365 Z " />
<glyph glyph-name="fraction" unicode="&#x2044;" horiz-adv-x="227" d="M417 1331 L583 1331 L-191 0 L-356 0 L417 1331 Z " />
<glyph glyph-name="currency" unicode="&#xa4;" horiz-adv-x="1365" d="M79 265 L280 467 Q183 596 183 754 Q183 902 281 1039 L76 1242 L189 1355 L392 1152 Q530 1248 684 1248 Q835 1248 970 1154 L1172 1354 L1284 1242 L1083 1042 Q1182 902 1182 754 Q1182 603 1086 468 L1288 266 L1178 153 L975 355 Q838 258 684 258 Q539 258 392 354 L191 154 L79 265 Z M686 1067 Q554 1067 462 976 Q370 885 370 753 Q370 624 462 531.5 Q554 439 683 439 Q811 439 903 531 Q995 623 995 753 Q995 882 904 974.5 Q813 1067 686 1067 Z " />
<glyph glyph-name="guilsinglleft" unicode="&#x2039;" horiz-adv-x="562" d="M439 0 L267 0 L62 476 L267 975 L439 975 L267 476 L439 0 Z " />
<glyph glyph-name="guilsinglright" unicode="&#x203a;" horiz-adv-x="562" d="M123 975 L294 975 L500 499 L294 0 L123 0 L295 499 L123 975 Z " />
<glyph glyph-name="fi" unicode="&#xfb01;" horiz-adv-x="1116" d="M368 972 L604 972 L604 813 L371 813 L371 0 L166 0 L166 813 L33 813 L33 972 L166 972 L166 1033 Q166 1213 213 1288 Q285 1401 447 1401 Q536 1401 638 1362 L638 1192 Q542 1226 484 1226 Q417 1226 392.5 1182 Q368 1138 368 1016 L368 972 Z M766 972 L971 972 L971 0 L766 0 L766 972 Z M872 1388 Q926 1388 960.5 1352.5 Q995 1317 995 1260 Q995 1204 960 1169.5 Q925 1135 868 1135 Q812 1135 777 1169 Q742 1203 742 1258 Q742 1315 778.5 1351.5 Q815 1388 872 1388 Z " />
<glyph glyph-name="fl" unicode="&#xfb02;" horiz-adv-x="1116" d="M368 972 L604 972 L604 813 L371 813 L371 0 L166 0 L166 813 L33 813 L33 972 L166 972 L166 1033 Q166 1213 213 1288 Q285 1401 447 1401 Q536 1401 638 1362 L638 1192 Q542 1226 484 1226 Q417 1226 392.5 1182 Q368 1138 368 1016 L368 972 Z M766 1373 L971 1373 L971 0 L766 0 L766 1373 Z " />
<glyph glyph-name="daggerdbl" unicode="&#x2021;" horiz-adv-x="1024" d="M417 1331 L606 1331 L606 1124 L934 1124 L934 963 L606 963 L606 147 L934 147 L934 -14 L606 -14 L606 -270 L417 -270 L417 -14 L90 -14 L90 147 L417 147 L417 963 L90 963 L90 1124 L417 1124 L417 1331 Z " />
<glyph glyph-name="periodcentered" unicode="&#xb7;" horiz-adv-x="518" d="M260 652 Q316 652 356.5 611 Q397 570 397 513 Q397 456 356.5 415.5 Q316 375 259 375 Q201 375 160.5 415.5 Q120 456 120 513 Q120 571 160.5 611.5 Q201 652 260 652 Z " />
<glyph glyph-name="quotesinglbase" unicode="&#x201a;" horiz-adv-x="443" d="M205 -236 L85 -236 Q192 -117 206 1 Q78 8 78 118 Q78 171 116.5 208 Q155 245 210 245 Q272 245 310.5 198.5 Q349 152 349 77 Q349 -64 205 -236 Z " />
<glyph glyph-name="quotedblbase" unicode="&#x201e;" horiz-adv-x="775" d="M190 -236 L70 -236 Q176 -119 191 1 Q63 8 63 118 Q63 171 101.5 208 Q140 245 195 245 Q257 245 295 198.5 Q333 152 333 76 Q333 -64 190 -236 Z M537 -236 L416 -236 Q523 -118 537 1 Q409 8 409 118 Q409 171 447.5 208 Q486 245 541 245 Q603 245 641.5 198.5 Q680 152 680 77 Q680 -63 537 -236 Z " />
<glyph glyph-name="perthousand" unicode="&#x2030;" horiz-adv-x="1971" d="M974 1365 L1147 1365 L350 0 L178 0 L974 1365 Z M995 648 Q1109 648 1188.5 552 Q1268 456 1268 319 Q1268 180 1188.5 84.5 Q1109 -11 993 -11 Q877 -11 797.5 84.5 Q718 180 718 319 Q718 458 798 553 Q878 648 995 648 Z M995 525 Q933 525 895 468 Q857 411 857 319 Q857 227 895 169.5 Q933 112 993 112 Q1053 112 1091 169.5 Q1129 227 1129 319 Q1129 409 1091 467 Q1053 525 995 525 Z M1640 648 Q1754 648 1833 552 Q1912 456 1912 319 Q1912 180 1832.5 84.5 Q1753 -11 1637 -11 Q1522 -11 1442.5 84.5 Q1363 180 1363 319 Q1363 458 1443 553 Q1523 648 1640 648 Z M1639 525 Q1578 525 1540 468 Q1502 411 1502 319 Q1502 228 1540 170 Q1578 112 1637 112 Q1697 112 1735 169.5 Q1773 227 1773 319 Q1773 409 1735.5 467 Q1698 525 1639 525 Z M335 1376 Q449 1376 528 1280 Q607 1184 607 1047 Q607 908 527.5 812.5 Q448 717 332 717 Q217 717 137.5 812.5 Q58 908 58 1047 Q58 1186 138 1281 Q218 1376 335 1376 Z M334 1253 Q273 1253 235 1196 Q197 1139 197 1047 Q197 955 234.5 897.5 Q272 840 332 840 Q392 840 430 897.5 Q468 955 468 1047 Q468 1137 430.5 1195 Q393 1253 334 1253 Z " />
<glyph glyph-name="Acircumflex" unicode="&#xc2;" horiz-adv-x="1198" d="M495 1369 L700 1369 L1167 0 L948 0 L847 320 L350 320 L247 0 L30 0 L495 1369 Z M791 502 L598 1116 L405 502 L791 502 Z M232 1500 L506 1779 L691 1779 L966 1500 L772 1500 L599 1669 L426 1500 L232 1500 Z " />
<glyph glyph-name="Ecircumflex" unicode="&#xca;" horiz-adv-x="1066" d="M380 798 L928 798 L928 616 L380 616 L380 182 L995 182 L995 0 L169 0 L169 1365 L977 1365 L977 1184 L380 1184 L380 798 Z M208 1500 L483 1779 L668 1779 L942 1500 L749 1500 L575 1669 L403 1500 L208 1500 Z " />
<glyph glyph-name="Aacute" unicode="&#xc1;" horiz-adv-x="1198" d="M495 1369 L700 1369 L1167 0 L948 0 L847 320 L350 320 L247 0 L30 0 L495 1369 Z M791 502 L598 1116 L405 502 L791 502 Z M456 1486 L769 1794 L1031 1794 L650 1486 L456 1486 Z " />
<glyph glyph-name="Edieresis" unicode="&#xcb;" horiz-adv-x="1066" d="M380 798 L928 798 L928 616 L380 616 L380 182 L995 182 L995 0 L169 0 L169 1365 L977 1365 L977 1184 L380 1184 L380 798 Z M390 1774 Q445 1774 484 1734.5 Q523 1695 523 1640 Q523 1584 483.5 1544.5 Q444 1505 389 1505 Q333 1505 293.5 1544.5 Q254 1584 254 1639 Q254 1696 293.5 1735 Q333 1774 390 1774 Z M763 1774 Q818 1774 857 1734.5 Q896 1695 896 1640 Q896 1584 856.5 1544.5 Q817 1505 762 1505 Q706 1505 666.5 1544.5 Q627 1584 627 1639 Q627 1696 666.5 1735 Q706 1774 763 1774 Z " />
<glyph glyph-name="Egrave" unicode="&#xc8;" horiz-adv-x="1066" d="M375 798 L923 798 L923 616 L375 616 L375 182 L990 182 L990 0 L164 0 L164 1365 L972 1365 L972 1184 L375 1184 L375 798 Z M748 1486 L553 1486 L173 1794 L434 1794 L748 1486 Z " />
<glyph glyph-name="Iacute" unicode="&#xcd;" horiz-adv-x="550" d="M382 0 L168 0 L168 1365 L382 1365 L382 0 Z M141 1486 L400 1794 L648 1794 L322 1486 L141 1486 Z " />
<glyph glyph-name="Icircumflex" unicode="&#xce;" horiz-adv-x="550" d="M381 0 L168 0 L168 1365 L381 1365 L381 0 Z M-44 1500 L182 1779 L367 1779 L594 1500 L408 1500 L275 1669 L144 1500 L-44 1500 Z " />
<glyph glyph-name="Idieresis" unicode="&#xcf;" horiz-adv-x="550" d="M382 0 L169 0 L169 1365 L382 1365 L382 0 Z M114 1767 Q166 1767 203.5 1729 Q241 1691 241 1638 Q241 1585 203 1547 Q165 1509 112 1509 Q59 1509 21 1547 Q-17 1585 -17 1638 Q-17 1692 21 1729.5 Q59 1767 114 1767 Z M441 1767 Q493 1767 530.5 1729 Q568 1691 568 1638 Q568 1585 530 1547 Q492 1509 439 1509 Q386 1509 348 1547 Q310 1585 310 1638 Q310 1692 348 1729.5 Q386 1767 441 1767 Z " />
<glyph glyph-name="Igrave" unicode="&#xcc;" horiz-adv-x="550" d="M381 0 L168 0 L168 1365 L381 1365 L381 0 Z M409 1486 L228 1486 L-98 1794 L150 1794 L409 1486 Z " />
<glyph glyph-name="Oacute" unicode="&#xd3;" horiz-adv-x="1353" d="M495 1486 L809 1794 L1070 1794 L690 1486 L495 1486 Z M676 1390 Q884 1390 1035 1261 Q1265 1065 1265 685 Q1265 301 1035 104 Q885 -25 669 -25 Q468 -25 318 104 Q88 301 88 683 Q88 1068 318 1261 Q471 1390 676 1390 Z M676 1208 Q506 1208 408 1068 Q310 928 310 683 Q310 430 419 281 Q511 157 672 157 Q847 157 945 296.5 Q1043 436 1043 685 Q1043 938 934 1084 Q841 1208 676 1208 Z " />
<glyph glyph-name="Ocircumflex" unicode="&#xd4;" horiz-adv-x="1353" d="M310 1500 L584 1779 L769 1779 L1043 1500 L850 1500 L677 1669 L504 1500 L310 1500 Z M676 1390 Q884 1390 1035 1261 Q1265 1065 1265 685 Q1265 301 1035 104 Q885 -25 669 -25 Q468 -25 318 104 Q88 301 88 683 Q88 1068 318 1261 Q471 1390 676 1390 Z M676 1208 Q506 1208 408 1068 Q310 928 310 683 Q310 430 419 281 Q511 157 672 157 Q847 157 945 296.5 Q1043 436 1043 685 Q1043 938 934 1084 Q841 1208 676 1208 Z " />
<glyph glyph-name="Ograve" unicode="&#xd2;" horiz-adv-x="1353" d="M859 1486 L664 1486 L284 1794 L545 1794 L859 1486 Z M676 1390 Q884 1390 1035 1261 Q1265 1065 1265 685 Q1265 301 1035 104 Q885 -25 669 -25 Q468 -25 318 104 Q88 301 88 683 Q88 1068 318 1261 Q471 1390 676 1390 Z M676 1208 Q506 1208 408 1068 Q310 928 310 683 Q310 430 419 281 Q511 157 672 157 Q847 157 945 296.5 Q1043 436 1043 685 Q1043 938 934 1084 Q841 1208 676 1208 Z " />
<glyph glyph-name="Uacute" unicode="&#xda;" horiz-adv-x="1334" d="M478 1486 L792 1794 L1054 1794 L673 1486 L478 1486 Z M153 1365 L364 1365 L364 572 Q364 374 396 304 Q463 159 667 159 Q888 159 947 330 Q969 394 969 572 L969 1365 L1180 1365 L1180 569 Q1180 324 1136 229 Q1082 109 958 42 Q834 -25 667 -25 Q499 -25 375 42 Q251 109 196 229 Q153 324 153 569 L153 1365 Z " />
<glyph glyph-name="Ucircumflex" unicode="&#xdb;" horiz-adv-x="1334" d="M300 1500 L574 1779 L759 1779 L1034 1500 L840 1500 L667 1669 L495 1500 L300 1500 Z M153 1365 L364 1365 L364 572 Q364 374 396 304 Q463 159 667 159 Q888 159 947 330 Q969 394 969 572 L969 1365 L1180 1365 L1180 569 Q1180 324 1136 229 Q1082 109 958 42 Q834 -25 667 -25 Q499 -25 375 42 Q251 109 196 229 Q153 324 153 569 L153 1365 Z " />
<glyph glyph-name="Ugrave" unicode="&#xd9;" horiz-adv-x="1334" d="M857 1486 L662 1486 L282 1794 L543 1794 L857 1486 Z M153 1365 L364 1365 L364 572 Q364 374 396 304 Q463 159 667 159 Q888 159 947 330 Q969 394 969 572 L969 1365 L1180 1365 L1180 569 Q1180 324 1136 229 Q1082 109 958 42 Q834 -25 667 -25 Q499 -25 375 42 Q251 109 196 229 Q153 324 153 569 L153 1365 Z " />
<glyph glyph-name="dotlessi" unicode="&#x131;" horiz-adv-x="495" d="M145 972 L350 972 L350 0 L145 0 L145 972 Z " />
<glyph glyph-name="circumflex" unicode="&#x2c6;" horiz-adv-x="1024" d="M179 1115 L419 1415 L604 1415 L844 1115 L659 1115 L512 1299 L366 1115 L179 1115 Z " />
<glyph glyph-name="tilde" unicode="&#x2dc;" horiz-adv-x="1024" d="M295 1137 L200 1161 Q250 1376 378 1376 Q429 1376 516 1334 Q608 1290 640 1290 Q699 1290 735 1390 L824 1366 Q807 1262 759.5 1202 Q712 1142 648 1142 Q600 1142 504 1186 Q409 1230 381 1230 Q321 1230 295 1137 Z " />
<glyph glyph-name="overscore" unicode="&#xaf;" horiz-adv-x="1024" d="M224 1327 L800 1327 L800 1196 L224 1196 L224 1327 Z " />
<glyph glyph-name="breve" unicode="&#x2d8;" horiz-adv-x="1024" d="M247 1396 L342 1396 Q398 1246 516 1246 Q626 1246 683 1396 L778 1396 Q764 1263 694.5 1186 Q625 1109 518 1109 Q408 1109 334 1187.5 Q260 1266 247 1396 Z " />
<glyph glyph-name="dotaccent" unicode="&#x2d9;" horiz-adv-x="1024" d="M514 1391 Q565 1391 601 1354.5 Q637 1318 637 1267 Q637 1215 600.5 1178.5 Q564 1142 513 1142 Q461 1142 424.5 1178.5 Q388 1215 388 1266 Q388 1319 424.5 1355 Q461 1391 514 1391 Z " />
<glyph glyph-name="ring" unicode="&#x2da;" horiz-adv-x="1024" d="M515 1476 Q594 1476 651.5 1418 Q709 1360 709 1279 Q709 1198 651.5 1140.5 Q594 1083 512 1083 Q431 1083 373.5 1140.5 Q316 1198 316 1279 Q316 1361 374 1418.5 Q432 1476 515 1476 Z M514 1380 Q471 1380 441.5 1351 Q412 1322 412 1279 Q412 1238 441.5 1208.5 Q471 1179 512 1179 Q554 1179 583.5 1208.5 Q613 1238 613 1280 Q613 1321 584 1350.5 Q555 1380 514 1380 Z " />
<glyph glyph-name="cedilla" unicode="&#xb8;" horiz-adv-x="1024" d="M438 0 L556 0 L515 -102 Q697 -134 697 -275 Q697 -357 639 -411 Q581 -465 492 -465 Q418 -465 327 -417 L327 -328 Q412 -362 448 -362 Q555 -362 555 -260 Q555 -155 426 -155 Q409 -155 378 -158 L438 0 Z " />
<glyph glyph-name="hungarumlaut" unicode="&#x2dd;" horiz-adv-x="1024" d="M294 1106 L494 1415 L722 1415 L438 1106 L294 1106 Z M595 1106 L795 1415 L1023 1415 L739 1106 L595 1106 Z " />
<glyph glyph-name="ogonek" unicode="&#x2db;" horiz-adv-x="1024" d="M642 0 L813 0 Q614 -107 614 -199 Q614 -285 717 -285 Q761 -285 807 -266 L807 -365 Q747 -393 677 -393 Q584 -393 525 -341.5 Q466 -290 466 -208 Q466 -77 642 0 Z " />
<glyph glyph-name="caron" unicode="&#x2c7;" horiz-adv-x="1024" d="M844 1415 L604 1115 L419 1115 L179 1415 L365 1415 L512 1231 L657 1415 L844 1415 Z " />
<glyph glyph-name="Lslash" unicode="&#x141;" horiz-adv-x="1016" d="M170 715 L170 1365 L387 1365 L387 835 L708 1073 L708 884 L387 646 L387 182 L975 182 L975 0 L170 0 L170 526 L33 419 L33 608 L170 715 Z " />
<glyph glyph-name="lslash" unicode="&#x142;" horiz-adv-x="495" d="M145 772 L145 1373 L350 1373 L350 874 L497 977 L497 818 L350 715 L350 0 L145 0 L145 612 L-1 507 L-1 666 L145 772 Z " />
<glyph glyph-name="Scaron" unicode="&#x160;" horiz-adv-x="1140" d="M1010 987 L805 987 Q786 1206 560 1206 Q462 1206 397.5 1154 Q333 1102 333 1023 Q333 952 384 915 Q435 878 645 798 Q886 707 960 624 Q1048 525 1048 380 Q1048 191 923 83 Q798 -25 580 -25 Q91 -25 83 442 L288 442 Q301 159 580 159 Q691 159 761.5 215 Q832 271 832 360 Q832 448 775 494 Q718 540 515 617 Q287 704 204.5 787 Q122 870 122 1012 Q122 1181 244 1285.5 Q366 1390 563 1390 Q767 1390 884 1284 Q1001 1178 1010 987 Z M939 1779 L665 1500 L480 1500 L206 1779 L399 1779 L572 1610 L745 1779 L939 1779 Z " />
<glyph glyph-name="scaron" unicode="&#x161;" horiz-adv-x="949" d="M818 1415 L578 1115 L393 1115 L153 1415 L339 1415 L485 1231 L631 1415 L818 1415 Z M849 689 L655 689 Q635 843 479 843 Q409 843 364 808.5 Q319 774 319 720 Q319 667 360 640.5 Q401 614 551 570 Q732 517 796.5 457 Q861 397 861 281 Q861 137 761 55 Q661 -27 485 -27 Q84 -27 84 313 L275 313 Q290 130 480 130 Q658 130 658 266 Q658 322 615.5 347.5 Q573 373 382 431 Q237 475 177.5 536 Q118 597 118 701 Q118 834 218.5 916.5 Q319 999 482 999 Q649 999 744.5 918.5 Q840 838 849 689 Z " />
<glyph glyph-name="Zcaron" unicode="&#x17d;" horiz-adv-x="1018" d="M107 1365 L967 1365 L967 1217 L303 182 L950 182 L950 0 L54 0 L54 165 L711 1186 L107 1186 L107 1365 Z M900 1779 L626 1500 L441 1500 L166 1779 L360 1779 L533 1610 L705 1779 L900 1779 Z " />
<glyph glyph-name="zcaron" unicode="&#x17e;" horiz-adv-x="843" d="M93 972 L793 972 L793 822 L283 166 L792 166 L792 0 L46 0 L46 155 L549 806 L93 806 L93 972 Z M768 1415 L528 1115 L343 1115 L103 1415 L289 1415 L436 1231 L581 1415 L768 1415 Z " />
<glyph glyph-name="brokenbar" unicode="&#xa6;" horiz-adv-x="1024" d="M411 1365 L612 1365 L612 671 L411 671 L411 1365 Z M411 314 L612 314 L612 -341 L411 -341 L411 314 Z " />
<glyph glyph-name="Eth" unicode="&#xd0;" horiz-adv-x="1304" d="M170 1365 L447 1365 Q759 1365 898 1291 Q1045 1214 1130.5 1050.5 Q1216 887 1216 683 Q1216 480 1134.5 319 Q1053 158 911 79 Q824 31 727.5 15.5 Q631 0 418 0 L170 0 L170 628 L47 628 L47 799 L170 799 L170 1365 Z M381 182 L491 182 Q719 182 818 248 Q998 367 998 684 Q998 1003 803 1123 Q741 1162 674.5 1173 Q608 1184 440 1184 L381 1184 L381 799 L678 799 L678 628 L381 628 L381 182 Z " />
<glyph glyph-name="eth" unicode="&#xf0;" horiz-adv-x="1066" d="M555 1286 L707 1371 L775 1276 L626 1194 Q848 939 917.5 805 Q987 671 987 497 Q987 239 844 96 Q722 -27 541 -27 Q357 -27 230 92 Q79 234 79 483 Q79 698 198.5 841 Q318 984 499 984 Q550 984 619 955 L492 1119 L352 1043 L279 1135 L428 1219 L342 1321 L453 1392 L555 1286 Z M539 831 Q424 831 354.5 736 Q285 641 285 484 Q285 332 354.5 234.5 Q424 137 533 137 Q642 137 711.5 234.5 Q781 332 781 484 Q781 638 713.5 734.5 Q646 831 539 831 Z " />
<glyph glyph-name="Yacute" unicode="&#xdd;" horiz-adv-x="1103" d="M11 1365 L250 1365 L553 777 L856 1365 L1092 1365 L657 554 L657 0 L447 0 L447 554 L11 1365 Z M372 1486 L686 1794 L947 1794 L567 1486 L372 1486 Z " />
<glyph glyph-name="yacute" unicode="&#xfd;" horiz-adv-x="964" d="M33 972 L247 972 L485 199 L732 972 L942 972 L617 46 Q551 -143 517 -206.5 Q483 -270 422 -320 Q311 -410 121 -410 Q99 -410 56 -409 L56 -233 Q77 -233 92 -233 Q216 -233 272 -192.5 Q328 -152 373 -28 L33 972 Z M338 1106 L576 1415 L837 1415 L495 1106 L338 1106 Z " />
<glyph glyph-name="Thorn" unicode="&#xde;" horiz-adv-x="1119" d="M169 1365 L380 1365 L380 1206 L444 1206 Q710 1206 827 1167 Q942 1129 1008.5 1026.5 Q1075 924 1075 785 Q1075 649 1010 548 Q945 447 834 410 Q724 373 471 373 L380 373 L380 0 L169 0 L169 1365 Z M380 555 L470 555 Q646 555 716 575 Q857 616 857 785 Q857 941 743 992 Q668 1025 468 1025 L380 1025 L380 555 Z " />
<glyph glyph-name="thorn" unicode="&#xfe;" horiz-adv-x="1084" d="M145 -403 L145 1373 L346 1373 L346 844 Q439 994 607 994 Q755 994 856 895 Q1004 751 1004 489 Q1004 261 896 119.5 Q788 -22 614 -22 Q451 -22 346 119 L346 -403 L145 -403 Z M576 823 Q468 823 405 730.5 Q342 638 342 482 Q342 330 405.5 239.5 Q469 149 575 149 Q671 149 721 213 Q798 312 798 485 Q798 641 738 732 Q678 823 576 823 Z " />
<glyph glyph-name="minus" unicode="&#x2212;" horiz-adv-x="1133" d="M103 762 L1030 762 L1030 608 L103 608 L103 762 Z " />
<glyph glyph-name="multiply" unicode="&#xd7;" horiz-adv-x="1133" d="M677 684 L970 391 L861 283 L570 574 L272 277 L162 387 L460 684 L168 976 L277 1085 L568 793 L861 1085 L971 975 L677 684 Z " />
<glyph glyph-name="onesuperior" unicode="&#xb9;" horiz-adv-x="739" d="M159 1121 L159 1203 Q320 1206 348 1336 L445 1336 L445 532 L307 532 L307 1121 L159 1121 Z " />
<glyph glyph-name="twosuperior" unicode="&#xb2;" horiz-adv-x="739" d="M243 1096 L121 1096 Q121 1215 189.5 1281 Q258 1347 381 1347 Q493 1347 561 1290 Q629 1233 629 1139 Q629 1068 572.5 986.5 Q516 905 294 654 L638 654 L638 532 L112 532 L112 637 L132 661 Q380 945 433.5 1017 Q487 1089 487 1137 Q487 1229 375 1229 Q254 1229 243 1096 Z " />
<glyph glyph-name="threesuperior" unicode="&#xb3;" horiz-adv-x="739" d="M238 1124 L117 1124 Q121 1234 189 1294 Q257 1354 377 1354 Q488 1354 555.5 1297.5 Q623 1241 623 1147 Q623 1025 503 971 Q641 925 641 779 Q641 668 563.5 600 Q486 532 361 532 Q227 532 154 597.5 Q81 663 82 783 L208 783 Q208 649 357 649 Q502 649 502 778 Q502 906 306 906 Q297 906 273 905 L273 1018 Q298 1017 310 1017 Q483 1017 483 1137 Q483 1238 366 1238 Q254 1238 238 1124 Z " />
<glyph glyph-name="onehalf" unicode="&#xbd;" horiz-adv-x="1746" d="M159 1121 L159 1203 Q320 1205 347 1336 L444 1336 L444 532 L306 532 L306 1121 L159 1121 Z M1177 1331 L1342 1331 L568 0 L404 0 L1177 1331 Z M1249 564 L1127 564 Q1128 684 1196 749.5 Q1264 815 1387 815 Q1499 815 1567 758 Q1635 701 1635 607 Q1635 537 1575 450 Q1515 363 1300 122 L1644 122 L1644 0 L1118 0 L1118 105 Q1136 126 1220 223 Q1392 419 1442.5 490 Q1493 561 1493 604 Q1493 645 1461.5 671 Q1430 697 1381 697 Q1259 697 1249 564 Z " />
<glyph glyph-name="onequarter" unicode="&#xbc;" horiz-adv-x="1746" d="M159 1121 L159 1203 Q320 1205 348 1336 L445 1336 L445 532 L307 532 L307 1121 L159 1121 Z M1177 1331 L1342 1331 L568 0 L404 0 L1177 1331 Z M1539 287 L1687 287 L1687 176 L1542 176 L1542 -9 L1402 -9 L1402 176 L1060 176 L1060 279 L1389 803 L1539 803 L1539 287 Z M1408 287 L1408 637 L1196 287 L1408 287 Z " />
<glyph glyph-name="threequarters" unicode="&#xbe;" horiz-adv-x="1745" d="M238 1124 L117 1124 Q121 1234 189 1294 Q257 1354 377 1354 Q488 1354 555.5 1297.5 Q623 1241 623 1147 Q623 1025 503 971 Q641 925 641 779 Q641 668 563.5 600 Q486 532 361 532 Q227 532 154 597.5 Q81 663 82 783 L208 783 Q208 649 357 649 Q502 649 502 778 Q502 906 306 906 Q297 906 273 905 L273 1018 Q298 1017 310 1017 Q483 1017 483 1137 Q483 1238 366 1238 Q254 1238 238 1124 Z M1178 1331 L1343 1331 L569 0 L404 0 L1178 1331 Z M1540 287 L1687 287 L1687 176 L1543 176 L1543 -9 L1403 -9 L1403 176 L1060 176 L1060 279 L1390 803 L1540 803 L1540 287 Z M1410 287 L1410 637 L1197 287 L1410 287 Z " />
<glyph glyph-name="Gbreve" unicode="&#x11e;" horiz-adv-x="1295" d="M385 1781 L475 1781 Q540 1630 677 1630 Q811 1630 877 1781 L967 1781 Q952 1653 873 1575.5 Q794 1498 677 1498 Q560 1498 480 1575.5 Q400 1653 385 1781 Z M721 692 L1177 692 L1177 127 Q961 -25 700 -25 Q443 -25 281 135 Q88 327 88 685 Q88 1038 282 1232 Q441 1390 677 1390 Q888 1390 1013.5 1276.5 Q1139 1163 1158 955 L971 955 Q925 1206 679 1206 Q520 1206 431 1096 Q310 949 310 685 Q310 436 412.5 297.5 Q515 159 699 159 Q856 159 997 248 L997 526 L721 526 L721 692 Z " />
<glyph glyph-name="gbreve" unicode="&#x11f;" horiz-adv-x="1040" d="M269 1396 L364 1396 Q419 1246 537 1246 Q649 1246 704 1396 L799 1396 Q785 1262 715.5 1185.5 Q646 1109 539 1109 Q430 1109 356 1187.5 Q282 1266 269 1396 Z M999 972 L999 825 L800 827 Q866 752 866 630 Q866 455 727 389 Q653 354 440 323 Q338 308 338 253 Q338 224 370.5 214 Q403 204 543 190 Q770 168 847 127 Q975 59 975 -100 Q975 -248 852.5 -331.5 Q730 -415 513 -415 Q300 -415 174.5 -338.5 Q49 -262 49 -131 Q49 32 249 102 Q142 145 142 218 Q142 307 315 374 Q136 456 136 652 Q136 806 240 898 Q344 990 519 990 Q597 990 689 964 L999 972 Z M508 835 Q421 835 368.5 785.5 Q316 736 316 654 Q316 577 367 530.5 Q418 484 502 484 Q587 484 638.5 530.5 Q690 577 690 654 Q690 734 639 784.5 Q588 835 508 835 Z M490 28 Q225 28 225 -116 Q225 -183 303.5 -222.5 Q382 -262 515 -262 Q639 -262 710 -223.5 Q781 -185 781 -118 Q781 28 490 28 Z " />
<glyph glyph-name="Scedilla" unicode="&#x15e;" horiz-adv-x="1140" d="M596 -25 L561 -119 Q768 -153 768 -319 Q768 -412 701.5 -473.5 Q635 -535 535 -535 Q457 -535 350 -481 L350 -379 Q439 -418 485 -418 Q606 -418 606 -302 Q606 -183 463 -183 Q443 -183 406 -188 L465 -16 Q101 54 83 442 L288 442 Q312 159 584 159 Q693 159 762.5 211.5 Q832 264 832 346 Q832 426 776.5 471.5 Q721 517 518 603 Q293 700 210.5 786 Q128 872 128 1011 Q128 1177 251.5 1283.5 Q375 1390 568 1390 Q767 1390 882.5 1284 Q998 1178 1009 987 L805 987 Q787 1206 562 1206 Q467 1206 403.5 1155.5 Q340 1105 340 1030 Q340 963 389.5 926 Q439 889 648 801 Q895 698 961 626 Q1049 530 1049 381 Q1049 118 809 17 Q713 -23 596 -25 Z " />
<glyph glyph-name="scedilla" unicode="&#x15f;" horiz-adv-x="949" d="M485 -27 L455 -102 Q637 -134 637 -275 Q637 -357 579 -411 Q521 -465 432 -465 Q358 -465 267 -417 L267 -328 Q352 -362 388 -362 Q495 -362 495 -260 Q495 -155 366 -155 Q349 -155 318 -158 L371 -17 Q84 39 84 313 L275 313 Q290 130 480 130 Q658 130 658 266 Q658 322 615.5 347.5 Q573 373 382 431 Q237 475 177.5 536 Q118 597 118 701 Q118 834 218.5 916.5 Q319 999 482 999 Q649 999 744.5 918.5 Q840 838 849 689 L655 689 Q635 843 479 843 Q409 843 364 808.5 Q319 774 319 720 Q319 667 360 640.5 Q401 614 551 570 Q733 517 797 457 Q861 397 861 281 Q861 142 762.5 57.5 Q664 -27 502 -27 Q497 -27 485 -27 Z " />
<glyph glyph-name="Cacute" unicode="&#x106;" horiz-adv-x="1230" d="M484 1486 L798 1794 L1059 1794 L679 1486 L484 1486 Z M1139 952 L952 952 Q903 1206 671 1206 Q505 1206 407.5 1064.5 Q310 923 310 682 Q310 440 407.5 299.5 Q505 159 672 159 Q940 159 967 487 L1159 487 Q1150 308 1080 187 Q957 -25 682 -25 Q443 -25 283 132 Q88 323 88 680 Q88 1065 305 1255 Q458 1390 673 1390 Q877 1390 998.5 1275.5 Q1120 1161 1139 952 Z " />
<glyph glyph-name="cacute" unicode="&#x107;" horiz-adv-x="987" d="M372 1106 L610 1415 L871 1415 L529 1106 L372 1106 Z M900 651 L702 651 Q671 835 519 835 Q412 835 348.5 740 Q285 645 285 483 Q285 321 347.5 229 Q410 137 520 137 Q685 137 711 340 L907 340 Q896 170 792.5 71.5 Q689 -27 521 -27 Q341 -27 222 90 Q79 231 79 484 Q79 718 200 858.5 Q321 999 523 999 Q686 999 783 909.5 Q880 820 900 651 Z " />
<glyph glyph-name="Ccaron" unicode="&#x10c;" horiz-adv-x="1230" d="M1036 1779 L762 1500 L577 1500 L302 1779 L496 1779 L669 1610 L841 1779 L1036 1779 Z M1139 952 L952 952 Q903 1206 671 1206 Q505 1206 407.5 1064.5 Q310 923 310 682 Q310 440 407.5 299.5 Q505 159 672 159 Q940 159 967 487 L1159 487 Q1150 308 1080 187 Q957 -25 682 -25 Q443 -25 283 132 Q88 323 88 680 Q88 1065 305 1255 Q458 1390 673 1390 Q877 1390 998.5 1275.5 Q1120 1161 1139 952 Z " />
<glyph glyph-name="ccaron" unicode="&#x10d;" horiz-adv-x="987" d="M852 1415 L612 1115 L427 1115 L186 1415 L372 1415 L519 1231 L664 1415 L852 1415 Z M900 651 L702 651 Q671 835 519 835 Q412 835 348.5 740 Q285 645 285 483 Q285 321 347.5 229 Q410 137 520 137 Q685 137 711 340 L907 340 Q896 170 792.5 71.5 Q689 -27 521 -27 Q341 -27 222 90 Q79 231 79 484 Q79 718 200 858.5 Q321 999 523 999 Q686 999 783 909.5 Q880 820 900 651 Z " />
<glyph glyph-name="nbspace" unicode="&#xa0;" horiz-adv-x="512" d="" />
<glyph glyph-name="uni00AD" unicode="&#xad;" horiz-adv-x="547" d="M0 591 L547 591 L547 441 L0 441 L0 591 Z " />
<glyph glyph-name="Amacron" unicode="&#x100;" horiz-adv-x="1198" d="M495 1369 L700 1369 L1167 0 L948 0 L847 320 L350 320 L247 0 L30 0 L495 1369 Z M791 502 L598 1116 L405 502 L791 502 Z M288 1706 L909 1706 L909 1574 L288 1574 L288 1706 Z " />
<glyph glyph-name="amacron" unicode="&#x101;" horiz-adv-x="1014" d="M216 1326 L792 1326 L792 1196 L216 1196 L216 1326 Z M318 698 L124 698 Q159 994 520 994 Q776 994 842 843 Q873 771 873 613 L873 234 Q873 71 903 0 L717 0 Q702 56 700 120 Q620 -22 422 -22 Q269 -22 179.5 52.5 Q90 127 90 255 Q90 463 313 547 Q419 587 678 632 L678 659 Q678 752 639 791.5 Q600 831 508 831 Q343 831 318 698 Z M678 493 Q466 461 381 413 Q296 365 296 278 Q296 215 342.5 176 Q389 137 462 137 Q575 137 626.5 204.5 Q678 272 678 418 L678 493 Z " />
<glyph glyph-name="Abreve" unicode="&#x102;" horiz-adv-x="1198" d="M495 1369 L700 1369 L1167 0 L948 0 L847 320 L350 320 L247 0 L30 0 L495 1369 Z M791 502 L598 1116 L405 502 L791 502 Z M308 1781 L398 1781 Q463 1630 599 1630 Q733 1630 800 1781 L889 1781 Q875 1653 795.5 1575.5 Q716 1498 600 1498 Q483 1498 403 1575.5 Q323 1653 308 1781 Z " />
<glyph glyph-name="abreve" unicode="&#x103;" horiz-adv-x="1014" d="M236 1396 L331 1396 Q386 1246 504 1246 Q616 1246 671 1396 L766 1396 Q752 1262 683 1185.5 Q614 1109 507 1109 Q397 1109 323 1187.5 Q249 1266 236 1396 Z M318 698 L124 698 Q159 994 520 994 Q776 994 842 843 Q873 771 873 613 L873 234 Q873 71 903 0 L717 0 Q702 56 700 120 Q620 -22 422 -22 Q269 -22 179.5 52.5 Q90 127 90 255 Q90 463 313 547 Q419 587 678 632 L678 659 Q678 752 639 791.5 Q600 831 508 831 Q343 831 318 698 Z M678 493 Q466 461 381 413 Q296 365 296 278 Q296 215 342.5 176 Q389 137 462 137 Q575 137 626.5 204.5 Q678 272 678 418 L678 493 Z " />
<glyph glyph-name="Aogonek" unicode="&#x104;" horiz-adv-x="1198" d="M1167 0 Q1065 -75 1027 -119 Q989 -163 989 -205 Q989 -300 1101 -300 Q1141 -300 1194 -282 L1194 -385 Q1120 -417 1053 -417 Q956 -417 892.5 -361.5 Q829 -306 829 -221 Q829 -148 871.5 -99 Q914 -50 1021 0 L949 0 L846 320 L349 320 L247 0 L30 0 L495 1369 L700 1369 L1167 0 Z M791 502 L598 1115 L404 502 L791 502 Z " />
<glyph glyph-name="aogonek" unicode="&#x105;" horiz-adv-x="1014" d="M902 0 Q735 -108 735 -198 Q735 -285 838 -285 Q881 -285 928 -266 L928 -365 Q867 -393 802 -393 Q706 -393 646.5 -342 Q587 -291 587 -209 Q587 -80 770 0 L716 0 Q702 58 700 120 Q620 -22 422 -22 Q269 -22 179.5 52.5 Q90 127 90 255 Q90 461 313 546 Q418 587 678 632 L678 664 Q678 753 638 792 Q598 831 507 831 Q343 831 318 698 L124 698 Q159 994 520 994 Q776 994 842 843 Q873 771 873 613 L873 234 Q873 75 902 0 Z M678 493 Q466 461 381 413.5 Q296 366 296 279 Q296 215 342 176 Q388 137 462 137 Q575 137 626.5 204.5 Q678 272 678 418 L678 493 Z " />
<glyph glyph-name="Ccircumflex" unicode="&#x108;" horiz-adv-x="1230" d="M1139 952 L952 952 Q903 1206 671 1206 Q505 1206 407.5 1064.5 Q310 923 310 682 Q310 440 407.5 299.5 Q505 159 672 159 Q940 159 967 487 L1159 487 Q1150 308 1080 187 Q957 -25 682 -25 Q443 -25 283 132 Q88 323 88 680 Q88 1065 305 1255 Q458 1390 673 1390 Q877 1390 998.5 1275.5 Q1120 1161 1139 952 Z M310 1500 L584 1779 L769 1779 L1043 1500 L850 1500 L677 1669 L504 1500 L310 1500 Z " />
<glyph glyph-name="ccircumflex" unicode="&#x109;" horiz-adv-x="987" d="M900 651 L702 651 Q671 835 519 835 Q412 835 348.5 740 Q285 645 285 483 Q285 321 347.5 229 Q410 137 520 137 Q685 137 711 340 L907 340 Q896 170 792.5 71.5 Q689 -27 521 -27 Q341 -27 222 90 Q79 231 79 484 Q79 718 200 858.5 Q321 999 523 999 Q686 999 783 909.5 Q880 820 900 651 Z M173 1115 L413 1415 L598 1415 L838 1115 L652 1115 L505 1299 L360 1115 L173 1115 Z " />
<glyph glyph-name="Cdotaccent" unicode="&#x10a;" horiz-adv-x="1230" d="M669 1786 Q729 1786 771.5 1743 Q814 1700 814 1639 Q814 1579 771 1536 Q728 1493 667 1493 Q607 1493 564 1536 Q521 1579 521 1639 Q521 1701 564 1743.5 Q607 1786 669 1786 Z M1139 952 L952 952 Q903 1206 671 1206 Q505 1206 407.5 1064.5 Q310 923 310 682 Q310 440 407.5 299.5 Q505 159 672 159 Q940 159 967 487 L1159 487 Q1150 308 1080 187 Q957 -25 682 -25 Q443 -25 283 132 Q88 323 88 680 Q88 1065 305 1255 Q458 1390 673 1390 Q877 1390 998.5 1275.5 Q1120 1161 1139 952 Z " />
<glyph glyph-name="cdotaccent" unicode="&#x10b;" horiz-adv-x="987" d="M518 1391 Q569 1391 605 1354.5 Q641 1318 641 1267 Q641 1215 604.5 1178.5 Q568 1142 517 1142 Q465 1142 428.5 1178.5 Q392 1215 392 1266 Q392 1319 428.5 1355 Q465 1391 518 1391 Z M900 651 L702 651 Q671 835 519 835 Q412 835 348.5 740 Q285 645 285 483 Q285 321 347.5 229 Q410 137 520 137 Q685 137 711 340 L907 340 Q896 170 792.5 71.5 Q689 -27 521 -27 Q341 -27 222 90 Q79 231 79 484 Q79 718 200 858.5 Q321 999 523 999 Q686 999 783 909.5 Q880 820 900 651 Z " />
<glyph glyph-name="Dcaron" unicode="&#x10e;" horiz-adv-x="1304" d="M169 1365 L446 1365 Q758 1365 897 1291 Q1044 1214 1129.5 1050.5 Q1215 887 1215 684 Q1215 481 1133.5 319.5 Q1052 158 910 79 Q824 31 727 15.5 Q630 0 417 0 L169 0 L169 1365 Z M380 182 L490 182 Q625 182 692 195.5 Q759 209 817 248 Q997 368 997 685 Q997 1003 802 1124 Q740 1162 673.5 1173 Q607 1184 439 1184 L380 1184 L380 182 Z M976 1779 L702 1500 L517 1500 L242 1779 L436 1779 L609 1610 L781 1779 L976 1779 Z " />
<glyph glyph-name="dcaron" unicode="&#x10f;" horiz-adv-x="1266" d="M938 1373 L938 298 Q938 83 956 0 L766 0 Q754 52 754 95 Q754 111 756 137 Q662 -22 482 -22 Q321 -22 217 85 Q79 226 79 477 Q79 746 231 895 Q332 994 474 994 Q564 994 623 961.5 Q682 929 737 851 L737 1373 L938 1373 Z M518 823 Q419 823 364 755 Q285 656 285 480 Q285 327 345.5 238 Q406 149 510 149 Q606 149 660 215 Q741 313 741 487 Q741 642 681 732.5 Q621 823 518 823 Z M1165 941 L1060 941 Q1158 1051 1170 1160 Q1047 1167 1047 1271 Q1047 1322 1083.5 1357 Q1120 1392 1173 1392 Q1233 1392 1269.5 1347.5 Q1306 1303 1306 1231 Q1306 1102 1165 941 Z " />
<glyph glyph-name="Dcroat" unicode="&#x110;" horiz-adv-x="1304" d="M170 1365 L447 1365 Q759 1365 898 1291 Q1045 1214 1130.5 1050.5 Q1216 887 1216 683 Q1216 480 1134.5 319 Q1053 158 911 79 Q824 31 727.5 15.5 Q631 0 418 0 L170 0 L170 628 L47 628 L47 799 L170 799 L170 1365 Z M381 182 L491 182 Q719 182 818 248 Q998 367 998 684 Q998 1003 803 1123 Q741 1162 674.5 1173 Q608 1184 440 1184 L381 1184 L381 799 L678 799 L678 628 L381 628 L381 182 Z " />
<glyph glyph-name="dcroat" unicode="&#x111;" horiz-adv-x="1084" d="M938 1373 L938 1237 L1061 1237 L1061 1100 L938 1100 L938 298 Q938 83 956 0 L766 0 Q754 52 754 95 Q754 111 756 137 Q662 -22 482 -22 Q321 -22 217 85 Q79 226 79 477 Q79 745 232 895 Q332 994 475 994 Q638 994 737 851 L737 1100 L478 1100 L478 1237 L737 1237 L737 1373 L938 1373 Z M518 823 Q419 823 364 755 Q285 656 285 480 Q285 327 345.5 238 Q406 149 510 149 Q606 149 660 215 Q741 313 741 487 Q741 642 681 732.5 Q621 823 518 823 Z " />
<glyph glyph-name="Emacron" unicode="&#x112;" horiz-adv-x="1066" d="M380 798 L928 798 L928 616 L380 616 L380 182 L995 182 L995 0 L169 0 L169 1365 L977 1365 L977 1184 L380 1184 L380 798 Z M265 1706 L886 1706 L886 1574 L265 1574 L265 1706 Z " />
<glyph glyph-name="emacron" unicode="&#x113;" horiz-adv-x="1026" d="M245 1326 L821 1326 L821 1196 L245 1196 L245 1326 Z M946 442 L282 442 Q295 138 539 138 Q682 138 745 266 L926 253 Q842 -27 534 -27 Q363 -27 246 69 Q79 206 79 474 Q79 711 201.5 855 Q324 999 527 999 Q720 999 833.5 860 Q947 721 947 486 Q947 473 946 442 Z M741 592 Q712 838 522 838 Q336 838 288 592 L741 592 Z " />
<glyph glyph-name="Ebreve" unicode="&#x114;" horiz-adv-x="1066" d="M380 798 L928 798 L928 616 L380 616 L380 182 L995 182 L995 0 L169 0 L169 1365 L977 1365 L977 1184 L380 1184 L380 798 Z M283 1781 L373 1781 Q439 1630 575 1630 Q709 1630 775 1781 L865 1781 Q850 1652 771 1575 Q692 1498 575 1498 Q458 1498 378 1575.5 Q298 1653 283 1781 Z " />
<glyph glyph-name="ebreve" unicode="&#x115;" horiz-adv-x="1026" d="M946 442 L282 442 Q295 138 539 138 Q682 138 745 266 L926 253 Q842 -27 534 -27 Q363 -27 246 69 Q79 206 79 474 Q79 711 201.5 855 Q324 999 527 999 Q720 999 833.5 860 Q947 721 947 486 Q947 473 946 442 Z M741 592 Q712 838 522 838 Q336 838 288 592 L741 592 Z M268 1396 L363 1396 Q419 1246 537 1246 Q647 1246 704 1396 L799 1396 Q785 1263 715.5 1186 Q646 1109 539 1109 Q429 1109 355 1187.5 Q281 1266 268 1396 Z " />
<glyph glyph-name="Edotaccent" unicode="&#x116;" horiz-adv-x="1066" d="M380 798 L928 798 L928 616 L380 616 L380 182 L995 182 L995 0 L169 0 L169 1365 L977 1365 L977 1184 L380 1184 L380 798 Z M578 1786 Q637 1786 679.5 1743 Q722 1700 722 1640 Q722 1579 679 1536 Q636 1493 576 1493 Q515 1493 472 1536 Q429 1579 429 1639 Q429 1701 472 1743.5 Q515 1786 578 1786 Z " />
<glyph glyph-name="edotaccent" unicode="&#x117;" horiz-adv-x="1026" d="M536 1391 Q587 1391 623 1354.5 Q659 1318 659 1267 Q659 1215 622.5 1178.5 Q586 1142 535 1142 Q483 1142 446.5 1178.5 Q410 1215 410 1266 Q410 1319 446.5 1355 Q483 1391 536 1391 Z M946 442 L282 442 Q295 138 539 138 Q682 138 745 266 L926 253 Q842 -27 534 -27 Q363 -27 246 69 Q79 206 79 474 Q79 711 201.5 855 Q324 999 527 999 Q720 999 833.5 860 Q947 721 947 486 Q947 473 946 442 Z M741 592 Q712 838 522 838 Q336 838 288 592 L741 592 Z " />
<glyph glyph-name="Eogonek" unicode="&#x118;" horiz-adv-x="1066" d="M995 0 Q882 -83 847 -122.5 Q812 -162 812 -206 Q812 -300 924 -300 Q964 -300 1017 -282 L1017 -385 Q943 -417 876 -417 Q779 -417 715.5 -361 Q652 -305 652 -220 Q652 -85 842 0 L169 0 L169 1365 L977 1365 L977 1184 L380 1184 L380 798 L928 798 L928 616 L380 616 L380 182 L995 182 L995 0 Z " />
<glyph glyph-name="eogonek" unicode="&#x119;" horiz-adv-x="1026" d="M858 -266 L858 -365 Q798 -393 728 -393 Q635 -393 576 -341.5 Q517 -290 517 -208 Q517 -147 548 -105 Q579 -63 663 -10 Q589 -27 536 -27 Q399 -27 294 36 Q79 163 79 474 Q79 711 201.5 855 Q324 999 527 999 Q720 999 833.5 860 Q947 721 947 486 Q947 473 946 442 L282 442 Q295 138 539 138 Q682 138 745 266 L926 253 Q903 169 774 9 Q665 -125 665 -197 Q665 -285 768 -285 Q812 -285 858 -266 Z M741 592 Q712 838 522 838 Q336 838 288 592 L741 592 Z " />
<glyph glyph-name="Ecaron" unicode="&#x11a;" horiz-adv-x="1066" d="M380 798 L928 798 L928 616 L380 616 L380 182 L995 182 L995 0 L169 0 L169 1365 L977 1365 L977 1184 L380 1184 L380 798 Z M942 1779 L668 1500 L483 1500 L208 1779 L402 1779 L575 1610 L747 1779 L942 1779 Z " />
<glyph glyph-name="ecaron" unicode="&#x11b;" horiz-adv-x="1026" d="M865 1415 L625 1115 L440 1115 L200 1415 L386 1415 L532 1231 L678 1415 L865 1415 Z M946 442 L282 442 Q295 138 539 138 Q682 138 745 266 L926 253 Q842 -27 534 -27 Q363 -27 246 69 Q79 206 79 474 Q79 711 201.5 855 Q324 999 527 999 Q720 999 833.5 860 Q947 721 947 486 Q947 473 946 442 Z M741 592 Q712 838 522 838 Q336 838 288 592 L741 592 Z " />
<glyph glyph-name="Gcircumflex" unicode="&#x11c;" horiz-adv-x="1295" d="M311 1500 L585 1779 L770 1779 L1045 1500 L851 1500 L678 1669 L506 1500 L311 1500 Z M721 692 L1177 692 L1177 127 Q961 -25 700 -25 Q443 -25 281 135 Q88 327 88 685 Q88 1038 282 1232 Q441 1390 677 1390 Q888 1390 1013.5 1276.5 Q1139 1163 1158 955 L971 955 Q925 1206 679 1206 Q520 1206 431 1096 Q310 949 310 685 Q310 436 412.5 297.5 Q515 159 699 159 Q856 159 997 248 L997 526 L721 526 L721 692 Z " />
<glyph glyph-name="gcircumflex" unicode="&#x11d;" horiz-adv-x="1040" d="M201 1115 L441 1415 L626 1415 L867 1115 L681 1115 L534 1299 L388 1115 L201 1115 Z M999 972 L999 825 L800 827 Q866 752 866 630 Q866 455 727 389 Q653 354 440 323 Q338 308 338 253 Q338 224 370.5 214 Q403 204 543 190 Q770 168 847 127 Q975 59 975 -100 Q975 -248 852.5 -331.5 Q730 -415 513 -415 Q300 -415 174.5 -338.5 Q49 -262 49 -131 Q49 32 249 102 Q142 145 142 218 Q142 307 315 374 Q136 456 136 652 Q136 806 240 898 Q344 990 519 990 Q597 990 689 964 L999 972 Z M508 835 Q421 835 368.5 785.5 Q316 736 316 654 Q316 577 367 530.5 Q418 484 502 484 Q587 484 638.5 530.5 Q690 577 690 654 Q690 734 639 784.5 Q588 835 508 835 Z M490 28 Q225 28 225 -116 Q225 -183 303.5 -222.5 Q382 -262 515 -262 Q639 -262 710 -223.5 Q781 -185 781 -118 Q781 28 490 28 Z " />
<glyph glyph-name="Gdotaccent" unicode="&#x120;" horiz-adv-x="1295" d="M680 1786 Q740 1786 782.5 1743 Q825 1700 825 1639 Q825 1579 782 1536 Q739 1493 679 1493 Q618 1493 575 1536 Q532 1579 532 1639 Q532 1701 575 1743.5 Q618 1786 680 1786 Z M721 692 L1177 692 L1177 127 Q961 -25 700 -25 Q443 -25 281 135 Q88 327 88 685 Q88 1038 282 1232 Q441 1390 677 1390 Q888 1390 1013.5 1276.5 Q1139 1163 1158 955 L971 955 Q925 1206 679 1206 Q520 1206 431 1096 Q310 949 310 685 Q310 436 412.5 297.5 Q515 159 699 159 Q856 159 997 248 L997 526 L721 526 L721 692 Z " />
<glyph glyph-name="gdotaccent" unicode="&#x121;" horiz-adv-x="1040" d="M999 972 L999 825 L800 827 Q866 752 866 630 Q866 455 727 389 Q653 354 440 323 Q338 308 338 253 Q338 224 370.5 214 Q403 204 543 190 Q770 168 847 127 Q975 59 975 -100 Q975 -248 852.5 -331.5 Q730 -415 513 -415 Q300 -415 174.5 -338.5 Q49 -262 49 -131 Q49 32 249 102 Q142 145 142 218 Q142 307 315 374 Q136 456 136 652 Q136 806 240 898 Q344 990 519 990 Q597 990 689 964 L999 972 Z M508 835 Q421 835 368.5 785.5 Q316 736 316 654 Q316 577 367 530.5 Q418 484 502 484 Q587 484 638.5 530.5 Q690 577 690 654 Q690 734 639 784.5 Q588 835 508 835 Z M490 28 Q225 28 225 -116 Q225 -183 303.5 -222.5 Q382 -262 515 -262 Q639 -262 710 -223.5 Q781 -185 781 -118 Q781 28 490 28 Z M534 1391 Q585 1391 621 1354.5 Q657 1318 657 1267 Q657 1215 620.5 1178.5 Q584 1142 533 1142 Q481 1142 444.5 1178.5 Q408 1215 408 1266 Q408 1319 444.5 1355 Q481 1391 534 1391 Z " />
<glyph glyph-name="Gcommaaccent" unicode="&#x122;" horiz-adv-x="1295" d="M677 -555 L574 -555 Q671 -447 683 -338 Q562 -333 562 -229 Q562 -178 598 -143.5 Q634 -109 686 -109 Q745 -109 781 -153 Q817 -197 817 -268 Q817 -395 677 -555 Z M721 692 L1177 692 L1177 127 Q961 -25 700 -25 Q443 -25 281 135 Q88 327 88 685 Q88 1038 282 1232 Q441 1390 677 1390 Q888 1390 1013.5 1276.5 Q1139 1163 1158 955 L971 955 Q925 1206 679 1206 Q520 1206 431 1096 Q310 949 310 685 Q310 436 412.5 297.5 Q515 159 699 159 Q856 159 997 248 L997 526 L721 526 L721 692 Z " />
<glyph glyph-name="gcommaaccent" unicode="&#x123;" horiz-adv-x="1040" d="M999 972 L999 825 L800 827 Q866 752 866 630 Q866 455 727 389 Q653 354 440 323 Q338 308 338 253 Q338 224 370.5 214 Q403 204 543 190 Q770 168 847 127 Q975 59 975 -100 Q975 -248 852.5 -331.5 Q730 -415 513 -415 Q300 -415 174.5 -338.5 Q49 -262 49 -131 Q49 32 249 102 Q142 145 142 218 Q142 307 315 374 Q136 456 136 652 Q136 806 240 898 Q344 990 519 990 Q597 990 689 964 L999 972 Z M508 835 Q421 835 368.5 785.5 Q316 736 316 654 Q316 577 367 530.5 Q418 484 502 484 Q587 484 638.5 530.5 Q690 577 690 654 Q690 734 639 784.5 Q588 835 508 835 Z M490 28 Q225 28 225 -116 Q225 -183 303.5 -222.5 Q382 -262 515 -262 Q639 -262 710 -223.5 Q781 -185 781 -118 Q781 28 490 28 Z M543 1556 L648 1556 Q550 1447 538 1337 Q660 1330 660 1226 Q660 1175 623.5 1140 Q587 1105 535 1105 Q475 1105 438.5 1149.5 Q402 1194 402 1266 Q402 1397 543 1556 Z " />
<glyph glyph-name="Hcircumflex" unicode="&#x124;" horiz-adv-x="1350" d="M380 800 L969 800 L969 1365 L1180 1365 L1180 0 L969 0 L969 625 L380 625 L380 0 L169 0 L169 1365 L380 1365 L380 800 Z M308 1500 L582 1779 L767 1779 L1042 1500 L848 1500 L675 1669 L503 1500 L308 1500 Z " />
<glyph glyph-name="hcircumflex" unicode="&#x125;" horiz-adv-x="1086" d="M146 1373 L347 1373 L347 861 Q455 994 626 994 Q816 994 899 863 Q948 786 948 560 L948 0 L747 0 L747 526 Q747 672 721 726 Q676 816 566 816 Q347 816 347 515 L347 0 L146 0 L146 1373 Z M-116 1500 L158 1779 L343 1779 L618 1500 L424 1500 L251 1669 L79 1500 L-116 1500 Z " />
<glyph glyph-name="Hbar" unicode="&#x126;" horiz-adv-x="1350" d="M969 1159 L969 1365 L1180 1365 L1180 1159 L1303 1159 L1303 988 L1180 988 L1180 0 L969 0 L969 625 L380 625 L380 0 L169 0 L169 988 L46 988 L46 1159 L169 1159 L169 1365 L380 1365 L380 1159 L969 1159 Z M969 988 L380 988 L380 800 L969 800 L969 988 Z " />
<glyph glyph-name="hbar" unicode="&#x127;" horiz-adv-x="1086" d="M145 1373 L346 1373 L346 1237 L619 1237 L619 1100 L346 1100 L346 861 Q454 994 625 994 Q815 994 899 863 Q947 786 947 560 L947 0 L746 0 L746 526 Q746 674 720 726 Q674 816 565 816 Q458 816 402 739 Q346 662 346 515 L346 0 L145 0 L145 1100 L22 1100 L22 1237 L145 1237 L145 1373 Z " />
<glyph glyph-name="Itilde" unicode="&#x128;" horiz-adv-x="550" d="M382 0 L169 0 L169 1365 L382 1365 L382 0 Z M32 1510 L-72 1541 Q-15 1749 126 1749 Q177 1749 276 1707 Q382 1663 416 1663 Q479 1663 520 1763 L615 1733 Q597 1633 544 1574.5 Q491 1516 419 1516 Q373 1516 258 1563 Q162 1603 127 1603 Q59 1603 32 1510 Z " />
<glyph glyph-name="itilde" unicode="&#x129;" horiz-adv-x="495" d="M145 972 L350 972 L350 0 L145 0 L145 972 Z M31 1137 L-64 1161 Q-14 1376 114 1376 Q165 1376 252 1334 Q344 1290 376 1290 Q435 1290 471 1390 L560 1366 Q543 1262 495.5 1202 Q448 1142 384 1142 Q336 1142 240 1186 Q145 1230 117 1230 Q57 1230 31 1137 Z " />
<glyph glyph-name="Imacron" unicode="&#x12a;" horiz-adv-x="551" d="M381 0 L168 0 L168 1365 L381 1365 L381 0 Z M19 1706 L531 1706 L531 1574 L19 1574 L19 1706 Z " />
<glyph glyph-name="imacron" unicode="&#x12b;" horiz-adv-x="496" d="M145 972 L350 972 L350 0 L145 0 L145 972 Z M14 1327 L481 1327 L481 1196 L14 1196 L14 1327 Z " />
<glyph glyph-name="Ibreve" unicode="&#x12c;" horiz-adv-x="550" d="M381 0 L168 0 L168 1365 L381 1365 L381 0 Z M-16 1781 L74 1781 Q140 1630 275 1630 Q409 1630 476 1781 L565 1781 Q550 1652 471.5 1575 Q393 1498 276 1498 Q159 1498 79 1575.5 Q-1 1653 -16 1781 Z " />
<glyph glyph-name="ibreve" unicode="&#x12d;" horiz-adv-x="495" d="M145 972 L350 972 L350 0 L145 0 L145 972 Z M-3 1389 L92 1389 Q128 1246 249 1246 Q348 1246 403 1389 L498 1389 Q466 1109 252 1109 Q27 1109 -3 1389 Z " />
<glyph glyph-name="Iogonek" unicode="&#x12e;" horiz-adv-x="550" d="M271 0 L168 0 L168 1365 L382 1365 L382 0 Q310 -87 290 -125 Q270 -163 270 -210 Q270 -300 367 -300 Q388 -300 434 -282 L434 -385 Q366 -418 313 -418 Q229 -418 169.5 -360 Q110 -302 110 -219 Q110 -101 271 0 Z " />
<glyph glyph-name="iogonek" unicode="&#x12f;" horiz-adv-x="495" d="M351 0 Q237 -122 237 -197 Q237 -285 318 -285 Q354 -285 395 -268 L395 -365 Q338 -394 283 -394 Q200 -394 144 -340.5 Q88 -287 88 -208 Q88 -147 120 -102.5 Q152 -58 237 0 L145 0 L145 972 L351 972 L351 0 Z M251 1388 Q305 1388 339.5 1352.5 Q374 1317 374 1260 Q374 1204 339 1169.5 Q304 1135 247 1135 Q191 1135 156 1169 Q121 1203 121 1258 Q121 1315 157.5 1351.5 Q194 1388 251 1388 Z " />
<glyph glyph-name="Idot" unicode="&#x130;" horiz-adv-x="550" d="M382 0 L169 0 L169 1365 L382 1365 L382 0 Z M277 1786 Q337 1786 379.5 1743 Q422 1700 422 1640 Q422 1579 379 1536 Q336 1493 275 1493 Q215 1493 172 1536 Q129 1579 129 1639 Q129 1701 172 1743.5 Q215 1786 277 1786 Z " />
<glyph glyph-name="IJ" unicode="&#x132;" horiz-adv-x="1165" d="M381 0 L168 0 L168 1365 L381 1365 L381 0 Z M787 1365 L1000 1365 L1000 276 Q1000 109 992.5 47 Q985 -15 958 -67 Q873 -231 580 -231 Q563 -231 517 -229 L517 -51 Q704 -51 753 9 Q775 37 781 82.5 Q787 128 787 274 L787 1365 Z " />
<glyph glyph-name="ij" unicode="&#x133;" horiz-adv-x="1025" d="M145 972 L350 972 L350 0 L145 0 L145 972 Z M251 1388 Q305 1388 339.5 1352.5 Q374 1317 374 1260 Q374 1204 339 1169.5 Q304 1135 247 1135 Q191 1135 156 1169 Q121 1203 121 1258 Q121 1315 157.5 1351.5 Q194 1388 251 1388 Z M679 972 L884 972 L884 114 Q884 -46 871.5 -113.5 Q859 -181 819 -238 Q720 -380 466 -380 Q453 -380 418 -379 L418 -205 Q438 -205 449 -205 Q613 -205 656 -118 Q678 -75 679 113 L679 972 Z M784 1388 Q839 1388 873 1353 Q907 1318 907 1261 Q907 1205 872 1170 Q837 1135 780 1135 Q724 1135 689 1169.5 Q654 1204 654 1259 Q654 1316 690 1352 Q726 1388 784 1388 Z " />
<glyph glyph-name="Jcircumflex" unicode="&#x134;" horiz-adv-x="641" d="M264 1365 L477 1365 L477 276 Q477 106 469.5 45.5 Q462 -15 435 -67 Q350 -231 57 -231 Q40 -231 -6 -229 L-6 -51 Q178 -52 229 7 Q252 34 258 80 Q264 126 264 274 L264 1365 Z M-1 1500 L273 1779 L458 1779 L732 1500 L539 1500 L366 1669 L193 1500 L-1 1500 Z " />
<glyph glyph-name="jcircumflex" unicode="&#x135;" horiz-adv-x="537" d="M191 972 L396 972 L396 114 Q396 -46 383.5 -113.5 Q371 -181 331 -238 Q232 -380 -23 -380 Q-36 -380 -70 -379 L-70 -204 Q-46 -206 -38 -206 Q125 -206 168 -119 Q191 -73 191 113 L191 972 Z M-46 1115 L194 1415 L379 1415 L619 1115 L433 1115 L287 1299 L141 1115 L-46 1115 Z " />
<glyph glyph-name="Kcommaaccent" unicode="&#x136;" horiz-adv-x="1214" d="M909 1365 L1156 1365 L624 726 L1200 0 L923 0 L384 720 L909 1365 Z M169 1365 L380 1365 L380 0 L169 0 L169 1365 Z M634 -555 L531 -555 Q628 -447 640 -338 Q519 -332 519 -228 Q519 -178 555 -143.5 Q591 -109 643 -109 Q702 -109 738.5 -153 Q775 -197 775 -268 Q775 -394 634 -555 Z " />
<glyph glyph-name="kcommaaccent" unicode="&#x137;" horiz-adv-x="1046" d="M731 972 L974 972 L590 527 L1005 0 L733 0 L350 523 L731 972 Z M145 1373 L346 1373 L346 0 L145 0 L145 1373 Z M522 -561 L417 -561 Q515 -452 527 -342 Q405 -334 405 -231 Q405 -180 441.5 -145 Q478 -110 531 -110 Q590 -110 626.5 -154.5 Q663 -199 663 -271 Q663 -400 522 -561 Z " />
<glyph glyph-name="kgreenlandic" unicode="&#x138;" horiz-adv-x="1046" d="M731 972 L974 972 L590 527 L1005 0 L733 0 L350 523 L731 972 Z M145 972 L346 972 L346 0 L145 0 L145 972 Z " />
<glyph glyph-name="Lacute" unicode="&#x139;" horiz-adv-x="1016" d="M169 1365 L386 1365 L386 182 L975 182 L975 0 L169 0 L169 1365 Z M142 1486 L455 1794 L717 1794 L337 1486 L142 1486 Z " />
<glyph glyph-name="lacute" unicode="&#x13a;" horiz-adv-x="495" d="M145 1373 L350 1373 L350 0 L145 0 L145 1373 Z M118 1486 L377 1794 L625 1794 L281 1486 L118 1486 Z " />
<glyph glyph-name="Lcommaaccent" unicode="&#x13b;" horiz-adv-x="1016" d="M169 1365 L386 1365 L386 182 L975 182 L975 0 L169 0 L169 1365 Z M563 -555 L459 -555 Q556 -446 568 -338 Q448 -332 448 -228 Q448 -178 484 -143.5 Q520 -109 572 -109 Q631 -109 667 -152.5 Q703 -196 703 -267 Q703 -395 563 -555 Z " />
<glyph glyph-name="lcommaaccent" unicode="&#x13c;" horiz-adv-x="495" d="M135 1373 L340 1373 L340 0 L135 0 L135 1373 Z M221 -561 L116 -561 Q213 -454 226 -342 Q104 -335 104 -231 Q104 -180 140.5 -145 Q177 -110 230 -110 Q290 -110 326.5 -154.5 Q363 -199 363 -271 Q363 -400 221 -561 Z " />
<glyph glyph-name="Lcaron" unicode="&#x13d;" horiz-adv-x="1016" d="M169 1365 L386 1365 L386 182 L975 182 L975 0 L169 0 L169 1365 Z M692 947 L589 947 Q686 1053 698 1163 Q577 1170 577 1273 Q577 1323 613 1357.5 Q649 1392 701 1392 Q760 1392 796.5 1348.5 Q833 1305 833 1233 Q833 1106 692 947 Z " />
<glyph glyph-name="lcaron" unicode="&#x13e;" horiz-adv-x="674" d="M145 1373 L350 1373 L350 0 L145 0 L145 1373 Z M574 947 L471 947 Q568 1053 580 1163 Q459 1170 459 1273 Q459 1323 495 1357.5 Q531 1392 583 1392 Q642 1392 678 1348.5 Q714 1305 714 1233 Q714 1104 574 947 Z " />
<glyph glyph-name="Ldot" unicode="&#x13f;" horiz-adv-x="1016" d="M169 1365 L386 1365 L386 182 L975 182 L975 0 L169 0 L169 1365 Z M784 837 Q847 837 893 791 Q939 745 939 680 Q939 616 893 570 Q847 524 782 524 Q718 524 672 569.5 Q626 615 626 680 Q626 746 672 791.5 Q718 837 784 837 Z " />
<glyph glyph-name="ldot" unicode="&#x140;" horiz-adv-x="779" d="M145 1373 L350 1373 L350 0 L145 0 L145 1373 Z M641 857 Q697 857 737.5 816 Q778 775 778 718 Q778 661 737.5 620.5 Q697 580 640 580 Q582 580 541.5 620.5 Q501 661 501 718 Q501 776 541.5 816.5 Q582 857 641 857 Z " />
<glyph glyph-name="Nacute" unicode="&#x143;" horiz-adv-x="1368" d="M169 1365 L396 1365 L998 322 L998 1365 L1198 1365 L1198 0 L980 0 L370 1041 L370 0 L169 0 L169 1365 Z M501 1486 L815 1794 L1076 1794 L696 1486 L501 1486 Z " />
<glyph glyph-name="nacute" unicode="&#x144;" horiz-adv-x="1080" d="M376 1106 L613 1415 L875 1415 L533 1106 L376 1106 Z M118 972 L312 972 Q331 920 332 840 Q436 994 625 994 Q825 994 902 845 Q941 770 941 560 L941 0 L740 0 L740 526 Q740 676 716 728 Q675 816 565 816 Q345 816 345 519 L345 0 L144 0 L144 632 Q144 871 118 972 Z " />
<glyph glyph-name="Ncommaaccent" unicode="&#x145;" horiz-adv-x="1368" d="M169 1365 L396 1365 L998 322 L998 1365 L1198 1365 L1198 0 L980 0 L370 1041 L370 0 L169 0 L169 1365 Z M660 -555 L556 -555 Q653 -448 666 -338 Q545 -333 545 -228 Q545 -178 581 -143.5 Q617 -109 669 -109 Q727 -109 763.5 -153 Q800 -197 800 -268 Q800 -396 660 -555 Z " />
<glyph glyph-name="ncommaaccent" unicode="&#x146;" horiz-adv-x="1080" d="M515 -561 L410 -561 Q507 -453 520 -342 Q398 -335 398 -231 Q398 -180 434.5 -145 Q471 -110 524 -110 Q583 -110 619.5 -154.5 Q656 -199 656 -271 Q656 -399 515 -561 Z M118 972 L312 972 Q331 920 332 840 Q436 994 625 994 Q825 994 902 845 Q941 770 941 560 L941 0 L740 0 L740 526 Q740 676 716 728 Q675 816 565 816 Q345 816 345 519 L345 0 L144 0 L144 632 Q144 871 118 972 Z " />
<glyph glyph-name="Ncaron" unicode="&#x147;" horiz-adv-x="1368" d="M169 1365 L396 1365 L998 322 L998 1365 L1198 1365 L1198 0 L980 0 L370 1041 L370 0 L169 0 L169 1365 Z M1050 1779 L776 1500 L591 1500 L316 1779 L510 1779 L683 1610 L855 1779 L1050 1779 Z " />
<glyph glyph-name="ncaron" unicode="&#x148;" horiz-adv-x="1080" d="M118 972 L312 972 Q331 920 332 840 Q436 994 625 994 Q825 994 902 845 Q941 770 941 560 L941 0 L740 0 L740 526 Q740 676 716 728 Q675 816 565 816 Q345 816 345 519 L345 0 L144 0 L144 632 Q144 871 118 972 Z M856 1415 L616 1115 L431 1115 L190 1415 L376 1415 L523 1231 L668 1415 L856 1415 Z " />
<glyph glyph-name="napostrophe" unicode="&#x149;" horiz-adv-x="1308" d="M190 910 L70 910 Q176 1028 191 1147 Q63 1153 63 1264 Q63 1316 101 1353 Q139 1390 194 1390 Q256 1390 294.5 1343.5 Q333 1297 333 1221 Q333 1080 190 910 Z M345 972 L540 972 Q559 920 560 840 Q663 994 853 994 Q1053 994 1130 845 Q1169 770 1169 560 L1169 0 L968 0 L968 526 Q968 676 944 728 Q903 816 793 816 Q573 816 573 519 L573 0 L372 0 L372 632 Q372 876 345 972 Z " />
<glyph glyph-name="Eng" unicode="&#x14a;" horiz-adv-x="1337" d="M141 1374 L343 1374 Q370 1303 371 1199 Q509 1391 753 1391 Q872 1391 969 1341 Q1066 1291 1116 1204 Q1174 1104 1174 843 L1174 128 Q1174 -42 1166.5 -103 Q1159 -164 1132 -216 Q1046 -380 754 -380 Q736 -380 691 -378 L691 -200 Q879 -200 929 -140 Q951 -112 957 -66.5 Q963 -21 963 125 L963 795 Q963 1000 923 1079 Q859 1208 691 1208 Q512 1208 433 1055 Q389 970 389 763 L389 0 L178 0 L178 932 Q178 1153 172.5 1219.5 Q167 1286 141 1374 Z " />
<glyph glyph-name="eng" unicode="&#x14b;" horiz-adv-x="1079" d="M117 972 L311 972 Q330 921 331 840 Q435 994 624 994 Q824 994 901 845 Q940 770 940 560 L940 114 Q940 -45 927.5 -113 Q915 -181 875 -238 Q776 -380 521 -380 Q507 -380 474 -379 L474 -204 Q496 -205 507 -205 Q670 -205 715 -118 Q739 -72 739 113 L739 526 Q739 690 701 752.5 Q663 815 563 815 Q344 815 344 519 L344 0 L143 0 L143 632 Q143 871 117 972 Z " />
<glyph glyph-name="Omacron" unicode="&#x14c;" horiz-adv-x="1353" d="M677 1390 Q920 1390 1082 1218 Q1265 1025 1265 683 Q1265 341 1082 147 Q920 -25 678 -25 Q432 -25 271 147 Q88 341 88 693 Q88 1024 271 1218 Q433 1390 677 1390 Z M677 1208 Q509 1208 416 1076 Q310 926 310 690 Q310 442 408 299.5 Q506 157 677 157 Q845 157 937 289 Q1043 440 1043 683 Q1043 924 944 1066 Q845 1208 677 1208 Z M366 1706 L987 1706 L987 1574 L366 1574 L366 1706 Z " />
<glyph glyph-name="omacron" unicode="&#x14d;" horiz-adv-x="1066" d="M241 1326 L817 1326 L817 1196 L241 1196 L241 1326 Z M533 999 Q711 999 836 879 Q987 735 987 485 Q987 236 836 92 Q712 -27 534 -27 Q354 -27 230 92 Q79 236 79 492 Q79 737 230 879 Q356 999 533 999 Z M533 835 Q424 835 354.5 738.5 Q285 642 285 490 Q285 330 353 234 Q421 138 533 138 Q644 138 712.5 234 Q781 330 781 485 Q781 641 712 738 Q643 835 533 835 Z " />
<glyph glyph-name="Obreve" unicode="&#x14e;" horiz-adv-x="1353" d="M677 1390 Q920 1390 1082 1218 Q1265 1025 1265 683 Q1265 341 1082 147 Q920 -25 678 -25 Q432 -25 271 147 Q88 341 88 693 Q88 1024 271 1218 Q433 1390 677 1390 Z M677 1208 Q509 1208 416 1076 Q310 926 310 690 Q310 442 408 299.5 Q506 157 677 157 Q845 157 937 289 Q1043 440 1043 683 Q1043 924 944 1066 Q845 1208 677 1208 Z M386 1781 L475 1781 Q542 1630 677 1630 Q811 1630 878 1781 L967 1781 Q952 1652 873 1575 Q794 1498 678 1498 Q561 1498 481 1575.5 Q401 1653 386 1781 Z " />
<glyph glyph-name="obreve" unicode="&#x14f;" horiz-adv-x="1066" d="M533 999 Q711 999 836 879 Q987 735 987 485 Q987 236 836 92 Q712 -27 534 -27 Q354 -27 230 92 Q79 236 79 492 Q79 737 230 879 Q356 999 533 999 Z M533 835 Q424 835 354.5 738.5 Q285 642 285 490 Q285 330 353 234 Q421 138 533 138 Q644 138 712.5 234 Q781 330 781 485 Q781 641 712 738 Q643 835 533 835 Z M268 1396 L363 1396 Q418 1246 536 1246 Q647 1246 703 1396 L798 1396 Q785 1263 715 1186 Q645 1109 538 1109 Q428 1109 354.5 1187.5 Q281 1266 268 1396 Z " />
<glyph glyph-name="Ohungarumlaut" unicode="&#x150;" horiz-adv-x="1353" d="M434 1486 L686 1794 L921 1794 L593 1486 L434 1486 Z M750 1486 L1002 1794 L1237 1794 L908 1486 L750 1486 Z M676 1390 Q884 1390 1035 1261 Q1265 1065 1265 685 Q1265 301 1035 104 Q885 -25 669 -25 Q468 -25 318 104 Q88 301 88 683 Q88 1068 318 1261 Q471 1390 676 1390 Z M676 1208 Q506 1208 408 1068 Q310 928 310 683 Q310 430 419 281 Q511 157 672 157 Q847 157 945 296.5 Q1043 436 1043 685 Q1043 938 934 1084 Q841 1208 676 1208 Z " />
<glyph glyph-name="ohungarumlaut" unicode="&#x151;" horiz-adv-x="1066" d="M320 1106 L521 1415 L748 1415 L464 1106 L320 1106 Z M621 1106 L821 1415 L1049 1415 L765 1106 L621 1106 Z M533 999 Q711 999 836 879 Q987 735 987 485 Q987 236 836 92 Q712 -27 534 -27 Q354 -27 230 92 Q79 236 79 492 Q79 737 230 879 Q356 999 533 999 Z M533 835 Q424 835 354.5 738.5 Q285 642 285 490 Q285 330 353 234 Q421 138 533 138 Q644 138 712.5 234 Q781 330 781 485 Q781 641 712 738 Q643 835 533 835 Z " />
<glyph glyph-name="Racute" unicode="&#x154;" horiz-adv-x="1181" d="M169 1365 L463 1365 Q749 1365 867 1310 Q1074 1215 1074 961 Q1074 691 814 586 L1150 0 L901 0 L590 550 L380 550 L380 0 L169 0 L169 1365 Z M380 732 L475 732 Q654 732 723 757 Q856 805 856 963 Q856 1098 749 1150 Q681 1184 464 1184 L380 1184 L380 732 Z M406 1486 L719 1794 L981 1794 L600 1486 L406 1486 Z " />
<glyph glyph-name="racute" unicode="&#x155;" horiz-adv-x="723" d="M245 1106 L483 1415 L745 1415 L402 1106 L245 1106 Z M132 972 L324 972 Q339 898 339 823 Q339 803 337 766 Q442 994 602 994 Q643 994 699 974 L699 771 Q622 815 558 815 Q347 815 347 444 L347 0 L145 0 L145 656 Q144 888 132 972 Z " />
<glyph glyph-name="Rcommaaccent" unicode="&#x156;" horiz-adv-x="1181" d="M169 1365 L463 1365 Q749 1365 867 1310 Q1074 1215 1074 961 Q1074 691 814 586 L1150 0 L901 0 L590 550 L380 550 L380 0 L169 0 L169 1365 Z M380 732 L475 732 Q654 732 723 757 Q856 805 856 963 Q856 1098 749 1150 Q681 1184 464 1184 L380 1184 L380 732 Z M609 -555 L506 -555 Q603 -447 615 -338 Q494 -332 494 -228 Q494 -178 530 -143.5 Q566 -109 618 -109 Q677 -109 713.5 -152.5 Q750 -196 750 -267 Q750 -394 609 -555 Z " />
<glyph glyph-name="rcommaaccent" unicode="&#x157;" horiz-adv-x="723" d="M131 972 L323 972 Q338 898 338 823 Q338 803 336 766 Q442 994 602 994 Q642 994 698 974 L698 771 Q621 815 557 815 Q346 815 346 444 L346 0 L144 0 L144 656 Q143 888 131 972 Z M232 -560 L127 -560 Q225 -451 237 -341 Q115 -335 115 -230 Q115 -179 151.5 -144 Q188 -109 241 -109 Q301 -109 337.5 -153.5 Q374 -198 374 -270 Q374 -399 232 -560 Z " />
<glyph glyph-name="Rcaron" unicode="&#x158;" horiz-adv-x="1181" d="M169 1365 L463 1365 Q749 1365 867 1310 Q1074 1215 1074 961 Q1074 691 814 586 L1150 0 L901 0 L590 550 L380 550 L380 0 L169 0 L169 1365 Z M380 732 L475 732 Q654 732 723 757 Q856 805 856 963 Q856 1098 749 1150 Q681 1184 464 1184 L380 1184 L380 732 Z M959 1779 L685 1500 L500 1500 L225 1779 L419 1779 L592 1610 L764 1779 L959 1779 Z " />
<glyph glyph-name="rcaron" unicode="&#x159;" horiz-adv-x="723" d="M131 972 L323 972 Q338 898 338 823 Q338 803 336 766 Q442 994 602 994 Q642 994 698 974 L698 771 Q621 815 557 815 Q346 815 346 444 L346 0 L144 0 L144 656 Q143 888 131 972 Z M747 1415 L507 1115 L322 1115 L82 1415 L268 1415 L415 1231 L560 1415 L747 1415 Z " />
<glyph glyph-name="Sacute" unicode="&#x15a;" horiz-adv-x="1140" d="M1010 987 L805 987 Q786 1206 560 1206 Q462 1206 397.5 1154 Q333 1102 333 1023 Q333 952 384 915 Q435 878 645 798 Q886 707 960 624 Q1048 525 1048 380 Q1048 191 923 83 Q798 -25 580 -25 Q91 -25 83 442 L288 442 Q301 159 580 159 Q691 159 761.5 215 Q832 271 832 360 Q832 448 775 494 Q718 540 515 617 Q287 704 204.5 787 Q122 870 122 1012 Q122 1181 244 1285.5 Q366 1390 563 1390 Q767 1390 884 1284 Q1001 1178 1010 987 Z M385 1486 L699 1794 L960 1794 L580 1486 L385 1486 Z " />
<glyph glyph-name="sacute" unicode="&#x15b;" horiz-adv-x="949" d="M336 1106 L574 1415 L835 1415 L493 1106 L336 1106 Z M849 689 L655 689 Q635 843 479 843 Q409 843 364 808.5 Q319 774 319 720 Q319 667 360 640.5 Q401 614 551 570 Q732 517 796.5 457 Q861 397 861 281 Q861 137 761 55 Q661 -27 485 -27 Q84 -27 84 313 L275 313 Q290 130 480 130 Q658 130 658 266 Q658 322 615.5 347.5 Q573 373 382 431 Q237 475 177.5 536 Q118 597 118 701 Q118 834 218.5 916.5 Q319 999 482 999 Q649 999 744.5 918.5 Q840 838 849 689 Z " />
<glyph glyph-name="Scircumflex" unicode="&#x15c;" horiz-adv-x="1140" d="M206 1500 L480 1779 L665 1779 L939 1500 L746 1500 L573 1669 L400 1500 L206 1500 Z M1012 987 L806 987 Q787 1206 563 1206 Q466 1206 402 1156.5 Q338 1107 338 1032 Q338 951 414 906 Q454 882 648 801 Q896 697 962 625 Q1049 531 1049 379 Q1049 191 925 83 Q801 -25 586 -25 Q347 -25 218.5 94.5 Q90 214 84 442 L289 442 Q313 159 588 159 Q699 159 765.5 209.5 Q832 260 832 344 Q832 426 776 472.5 Q720 519 519 604 Q306 694 236 758 Q127 858 127 1013 Q127 1180 250 1285 Q373 1390 569 1390 Q771 1390 886.5 1285 Q1002 1180 1012 987 Z " />
<glyph glyph-name="scircumflex" unicode="&#x15d;" horiz-adv-x="949" d="M154 1115 L395 1415 L579 1415 L820 1115 L634 1115 L487 1299 L342 1115 L154 1115 Z M849 689 L655 689 Q635 843 479 843 Q409 843 364 808.5 Q319 774 319 720 Q319 667 360 640.5 Q401 614 551 570 Q732 517 796.5 457 Q861 397 861 281 Q861 137 761 55 Q661 -27 485 -27 Q84 -27 84 313 L275 313 Q290 130 480 130 Q658 130 658 266 Q658 322 615.5 347.5 Q573 373 382 431 Q237 475 177.5 536 Q118 597 118 701 Q118 834 218.5 916.5 Q319 999 482 999 Q649 999 744.5 918.5 Q840 838 849 689 Z " />
<glyph glyph-name="Tcommaaccent" unicode="&#x162;" horiz-adv-x="992" d="M33 1365 L960 1365 L960 1184 L601 1184 L601 0 L390 0 L390 1184 L33 1184 L33 1365 Z M484 -555 L380 -555 Q478 -448 489 -338 Q369 -332 369 -228 Q369 -179 405 -144 Q441 -109 493 -109 Q552 -109 588 -153 Q624 -197 624 -268 Q624 -396 484 -555 Z " />
<glyph glyph-name="tcommaaccent" unicode="&#x163;" horiz-adv-x="691" d="M403 972 L617 972 L614 813 L400 813 L393 383 Q390 233 407.5 195 Q425 157 496 157 Q563 157 639 189 L636 19 Q536 -20 440 -20 Q306 -20 245.5 47 Q185 114 185 262 Q185 291 188 383 L200 813 L51 813 L54 972 L206 972 L213 1252 L408 1252 L403 972 Z M369 -561 L264 -561 Q361 -453 374 -342 Q252 -335 252 -231 Q252 -180 288.5 -145 Q325 -110 378 -110 Q438 -110 474.5 -154.5 Q511 -199 511 -271 Q511 -399 369 -561 Z " />
<glyph glyph-name="Tcaron" unicode="&#x164;" horiz-adv-x="992" d="M33 1365 L960 1365 L960 1184 L601 1184 L601 0 L390 0 L390 1184 L33 1184 L33 1365 Z M863 1779 L589 1500 L404 1500 L130 1779 L323 1779 L496 1610 L669 1779 L863 1779 Z " />
<glyph glyph-name="tcaron" unicode="&#x165;" horiz-adv-x="734" d="M403 972 L617 972 L614 813 L400 813 L393 383 Q390 233 407.5 195 Q425 157 496 157 Q563 157 639 189 L636 19 Q536 -20 440 -20 Q305 -20 245 46.5 Q185 113 185 263 Q185 291 188 383 L200 813 L51 813 L54 972 L206 972 L213 1252 L408 1252 L403 972 Z M634 1081 L529 1081 Q627 1190 639 1300 Q517 1306 517 1411 Q517 1462 553.5 1497 Q590 1532 643 1532 Q703 1532 739.5 1487.5 Q776 1443 776 1371 Q776 1242 634 1081 Z " />
<glyph glyph-name="Tbar" unicode="&#x166;" horiz-adv-x="992" d="M601 898 L870 898 L870 727 L601 727 L601 0 L390 0 L390 727 L122 727 L122 898 L390 898 L390 1184 L33 1184 L33 1365 L960 1365 L960 1184 L601 1184 L601 898 Z " />
<glyph glyph-name="tbar" unicode="&#x167;" horiz-adv-x="691" d="M403 972 L616 972 L616 813 L400 813 L398 675 L604 675 L604 538 L395 538 L393 382 Q390 233 407.5 195 Q425 157 496 157 Q563 157 640 189 L637 19 Q536 -20 440 -20 Q305 -20 245 46.5 Q185 113 185 262 Q185 287 188 383 L193 538 L51 538 L51 675 L197 675 L201 813 L53 813 L53 972 L206 972 L213 1252 L408 1252 L403 972 Z " />
<glyph glyph-name="Utilde" unicode="&#x168;" horiz-adv-x="1334" d="M153 1365 L364 1365 L364 572 Q364 374 396 304 Q463 159 667 159 Q888 159 947 330 Q969 394 969 572 L969 1365 L1180 1365 L1180 569 Q1180 324 1136 229 Q1082 109 958 42 Q834 -25 667 -25 Q499 -25 375 42 Q251 109 196 229 Q153 324 153 569 L153 1365 Z M423 1510 L319 1541 Q376 1749 517 1749 Q568 1749 668 1707 Q773 1663 807 1663 Q871 1663 911 1763 L1006 1733 Q988 1633 935 1574.5 Q882 1516 810 1516 Q765 1516 650 1563 Q554 1603 518 1603 Q451 1603 423 1510 Z " />
<glyph glyph-name="utilde" unicode="&#x169;" horiz-adv-x="1082" d="M318 1137 L223 1161 Q274 1376 401 1376 Q451 1376 538 1334 Q631 1290 663 1290 Q721 1290 757 1390 L847 1366 Q829 1262 782 1202 Q735 1142 671 1142 Q622 1142 526 1186 Q432 1230 403 1230 Q343 1230 318 1137 Z M139 972 L340 972 L340 399 Q340 269 382.5 212.5 Q425 156 523 156 Q736 156 736 438 L736 972 L937 972 L937 298 Q937 79 961 0 L768 0 Q752 48 748 120 Q657 -22 481 -22 Q279 -22 188 126 Q139 205 139 392 L139 972 Z " />
<glyph glyph-name="Umacron" unicode="&#x16a;" horiz-adv-x="1334" d="M153 1365 L364 1365 L364 572 Q364 374 396 304 Q463 159 667 159 Q888 159 947 330 Q969 394 969 572 L969 1365 L1180 1365 L1180 569 Q1180 324 1136 229 Q1082 109 958 42 Q834 -25 667 -25 Q499 -25 375 42 Q251 109 196 229 Q153 324 153 569 L153 1365 Z M356 1706 L977 1706 L977 1574 L356 1574 L356 1706 Z " />
<glyph glyph-name="umacron" unicode="&#x16b;" horiz-adv-x="1082" d="M139 972 L340 972 L340 399 Q340 269 382.5 212.5 Q425 156 523 156 Q736 156 736 438 L736 972 L937 972 L937 298 Q937 79 961 0 L768 0 Q752 48 748 120 Q657 -22 481 -22 Q279 -22 188 126 Q139 205 139 392 L139 972 Z M248 1327 L824 1327 L824 1196 L248 1196 L248 1327 Z " />
<glyph glyph-name="Ubreve" unicode="&#x16c;" horiz-adv-x="1334" d="M153 1365 L364 1365 L364 572 Q364 374 396 304 Q463 159 667 159 Q888 159 947 330 Q969 394 969 572 L969 1365 L1180 1365 L1180 569 Q1180 324 1136 229 Q1082 109 958 42 Q834 -25 667 -25 Q499 -25 375 42 Q251 109 196 229 Q153 324 153 569 L153 1365 Z M376 1781 L466 1781 Q532 1630 667 1630 Q801 1630 868 1781 L957 1781 Q942 1652 863 1575 Q784 1498 668 1498 Q551 1498 471 1575.5 Q391 1653 376 1781 Z " />
<glyph glyph-name="ubreve" unicode="&#x16d;" horiz-adv-x="1082" d="M271 1396 L366 1396 Q422 1246 539 1246 Q650 1246 706 1396 L801 1396 Q787 1262 717.5 1185.5 Q648 1109 542 1109 Q432 1109 358 1187.5 Q284 1266 271 1396 Z M139 972 L340 972 L340 399 Q340 269 382.5 212.5 Q425 156 523 156 Q736 156 736 438 L736 972 L937 972 L937 298 Q937 79 961 0 L768 0 Q752 48 748 120 Q657 -22 481 -22 Q279 -22 188 126 Q139 205 139 392 L139 972 Z " />
<glyph glyph-name="Uring" unicode="&#x16e;" horiz-adv-x="1334" d="M669 1853 Q749 1853 806 1795 Q863 1737 863 1656 Q863 1575 805.5 1517.5 Q748 1460 667 1460 Q586 1460 528 1517.5 Q470 1575 470 1656 Q470 1738 528 1795.5 Q586 1853 669 1853 Z M668 1757 Q625 1757 595.5 1727.5 Q566 1698 566 1656 Q566 1615 595.5 1585.5 Q625 1556 667 1556 Q708 1556 737.5 1585.5 Q767 1615 767 1656 Q767 1698 737.5 1727.5 Q708 1757 668 1757 Z M153 1365 L364 1365 L364 572 Q364 374 396 304 Q463 159 667 159 Q888 159 947 330 Q969 394 969 572 L969 1365 L1180 1365 L1180 569 Q1180 324 1136 229 Q1082 109 958 42 Q834 -25 667 -25 Q499 -25 375 42 Q251 109 196 229 Q153 324 153 569 L153 1365 Z " />
<glyph glyph-name="uring" unicode="&#x16f;" horiz-adv-x="1082" d="M539 1476 Q618 1476 675.5 1418 Q733 1360 733 1279 Q733 1198 675.5 1140.5 Q618 1083 537 1083 Q456 1083 398 1140.5 Q340 1198 340 1279 Q340 1361 398 1418.5 Q456 1476 539 1476 Z M538 1380 Q495 1380 465.5 1351 Q436 1322 436 1279 Q436 1238 465.5 1208.5 Q495 1179 537 1179 Q578 1179 607.5 1208.5 Q637 1238 637 1279 Q637 1321 608 1350.5 Q579 1380 538 1380 Z M139 972 L340 972 L340 399 Q340 269 382.5 212.5 Q425 156 523 156 Q736 156 736 438 L736 972 L937 972 L937 298 Q937 79 961 0 L768 0 Q752 48 748 120 Q657 -22 481 -22 Q279 -22 188 126 Q139 205 139 392 L139 972 Z " />
<glyph glyph-name="Uhungarumlaut" unicode="&#x170;" horiz-adv-x="1334" d="M414 1486 L667 1794 L901 1794 L573 1486 L414 1486 Z M730 1486 L982 1794 L1217 1794 L889 1486 L730 1486 Z M153 1365 L364 1365 L364 572 Q364 374 396 304 Q463 159 667 159 Q889 159 947 330 Q969 394 969 572 L969 1365 L1180 1365 L1180 569 Q1180 324 1136 229 Q1082 109 958 42 Q834 -25 667 -25 Q499 -25 375 42 Q251 109 197 229 Q153 324 153 569 L153 1365 Z " />
<glyph glyph-name="uhungarumlaut" unicode="&#x171;" horiz-adv-x="1082" d="M332 1106 L532 1415 L760 1415 L476 1106 L332 1106 Z M633 1106 L833 1415 L1061 1415 L777 1106 L633 1106 Z M139 972 L340 972 L340 399 Q340 269 382.5 212.5 Q425 156 523 156 Q736 156 736 438 L736 972 L937 972 L937 298 Q937 79 961 0 L768 0 Q752 48 748 120 Q657 -22 481 -22 Q279 -22 188 126 Q139 205 139 392 L139 972 Z " />
<glyph glyph-name="Uogonek" unicode="&#x172;" horiz-adv-x="1334" d="M1023 -282 L1023 -385 Q949 -417 883 -417 Q785 -417 721.5 -361.5 Q658 -306 658 -220 Q658 -151 696.5 -104.5 Q735 -58 836 -5 Q744 -25 668 -25 Q500 -25 375.5 42 Q251 109 196 229 Q153 324 153 569 L153 1365 L364 1365 L364 572 Q364 374 396 304 Q463 159 667 159 Q888 159 947 330 Q969 394 969 572 L969 1365 L1180 1365 L1180 569 Q1180 347 1150.5 262.5 Q1121 178 1001 57 Q820 -126 820 -201 Q820 -300 930 -300 Q970 -300 1023 -282 Z " />
<glyph glyph-name="uogonek" unicode="&#x173;" horiz-adv-x="1082" d="M961 0 Q856 -86 826 -122 Q796 -158 796 -199 Q796 -285 899 -285 Q943 -285 989 -266 L989 -365 Q929 -393 860 -393 Q766 -393 707 -341.5 Q648 -290 648 -208 Q648 -84 817 0 L768 0 Q752 48 748 120 Q657 -22 481 -22 Q279 -22 188 126 Q139 205 139 392 L139 972 L340 972 L340 399 Q340 269 382.5 212.5 Q425 156 523 156 Q736 156 736 438 L736 972 L937 972 L937 298 Q937 76 961 0 Z " />
<glyph glyph-name="Wcircumflex" unicode="&#x174;" horiz-adv-x="1691" d="M27 1365 L226 1365 L488 254 L756 1365 L938 1365 L1206 254 L1471 1365 L1665 1365 L1326 -4 L1090 -4 L844 968 L601 -4 L366 -4 L27 1365 Z M481 1500 L755 1779 L941 1779 L1215 1500 L1022 1500 L848 1669 L676 1500 L481 1500 Z " />
<glyph glyph-name="wcircumflex" unicode="&#x175;" horiz-adv-x="1450" d="M29 972 L233 972 L427 246 L641 972 L807 972 L1020 246 L1216 972 L1419 972 L1132 -8 L923 -8 L721 658 L521 -8 L312 -8 L29 972 Z M391 1115 L632 1415 L817 1415 L1057 1115 L871 1115 L724 1299 L579 1115 L391 1115 Z " />
<glyph glyph-name="Ycircumflex" unicode="&#x176;" horiz-adv-x="1103" d="M185 1500 L459 1779 L644 1779 L918 1500 L725 1500 L552 1669 L379 1500 L185 1500 Z M11 1365 L250 1365 L555 777 L856 1365 L1092 1365 L657 554 L657 0 L447 0 L447 554 L11 1365 Z " />
<glyph glyph-name="ycircumflex" unicode="&#x177;" horiz-adv-x="964" d="M33 972 L247 972 L485 199 L732 972 L942 972 L617 46 Q551 -143 517 -206.5 Q483 -270 422 -320 Q311 -410 121 -410 Q99 -410 56 -409 L56 -233 Q77 -233 92 -233 Q216 -233 272 -192.5 Q328 -152 373 -28 L33 972 Z M155 1115 L395 1415 L580 1415 L821 1115 L635 1115 L488 1299 L343 1115 L155 1115 Z " />
<glyph glyph-name="Zacute" unicode="&#x179;" horiz-adv-x="1018" d="M107 1365 L967 1365 L967 1217 L303 182 L950 182 L950 0 L54 0 L54 165 L711 1186 L107 1186 L107 1365 Z M358 1486 L672 1794 L933 1794 L552 1486 L358 1486 Z " />
<glyph glyph-name="zacute" unicode="&#x17a;" horiz-adv-x="844" d="M93 972 L793 972 L793 822 L283 166 L792 166 L792 0 L46 0 L46 155 L549 806 L93 806 L93 972 Z M293 1106 L531 1415 L792 1415 L450 1106 L293 1106 Z " />
<glyph glyph-name="Zdotaccent" unicode="&#x17b;" horiz-adv-x="1018" d="M107 1365 L967 1365 L967 1217 L303 182 L950 182 L950 0 L54 0 L54 165 L711 1186 L107 1186 L107 1365 Z M534 1786 Q594 1786 636.5 1743 Q679 1700 679 1639 Q679 1579 636 1536 Q593 1493 532 1493 Q472 1493 429 1536 Q386 1579 386 1639 Q386 1701 429 1743.5 Q472 1786 534 1786 Z " />
<glyph glyph-name="zdotaccent" unicode="&#x17c;" horiz-adv-x="843" d="M93 972 L793 972 L793 822 L283 166 L792 166 L792 0 L46 0 L46 155 L549 806 L93 806 L93 972 Z M439 1391 Q490 1391 526 1354.5 Q562 1318 562 1267 Q562 1215 525.5 1178.5 Q489 1142 438 1142 Q386 1142 349.5 1178.5 Q313 1215 313 1266 Q313 1319 349.5 1355 Q386 1391 439 1391 Z " />
<glyph glyph-name="longs" unicode="&#x17f;" horiz-adv-x="630" d="M166 0 L166 1033 Q166 1213 213 1288 Q285 1401 447 1401 Q535 1401 638 1362 L638 1192 Q541 1226 484 1226 Q416 1226 393.5 1184 Q371 1142 371 1016 L371 0 L166 0 Z " />
<glyph glyph-name="uni01CD" unicode="&#x1cd;" horiz-adv-x="1198" d="M495 1369 L700 1369 L1167 0 L948 0 L847 320 L350 320 L247 0 L30 0 L495 1369 Z M791 502 L598 1116 L405 502 L791 502 Z M966 1779 L691 1500 L506 1500 L232 1779 L425 1779 L598 1610 L771 1779 L966 1779 Z " />
<glyph glyph-name="uni01CE" unicode="&#x1ce;" horiz-adv-x="1014" d="M838 1415 L598 1115 L413 1115 L173 1415 L359 1415 L505 1231 L651 1415 L838 1415 Z M318 698 L124 698 Q159 994 520 994 Q776 994 842 843 Q873 771 873 613 L873 234 Q873 71 903 0 L717 0 Q702 56 700 120 Q620 -22 422 -22 Q269 -22 179.5 52.5 Q90 127 90 255 Q90 463 313 547 Q419 587 678 632 L678 659 Q678 752 639 791.5 Q600 831 508 831 Q343 831 318 698 Z M678 493 Q466 461 381 413 Q296 365 296 278 Q296 215 342.5 176 Q389 137 462 137 Q575 137 626.5 204.5 Q678 272 678 418 L678 493 Z " />
<glyph glyph-name="uni01D3" unicode="&#x1d3;" horiz-adv-x="1334" d="M1034 1779 L759 1500 L574 1500 L300 1779 L493 1779 L667 1610 L839 1779 L1034 1779 Z M153 1365 L364 1365 L364 572 Q364 374 396 304 Q463 159 667 159 Q888 159 947 330 Q969 394 969 572 L969 1365 L1180 1365 L1180 569 Q1180 324 1136 229 Q1082 109 958 42 Q834 -25 667 -25 Q499 -25 375 42 Q251 109 196 229 Q153 324 153 569 L153 1365 Z " />
<glyph glyph-name="uni01D4" unicode="&#x1d4;" horiz-adv-x="1082" d="M139 972 L340 972 L340 399 Q340 269 382.5 212.5 Q425 156 523 156 Q736 156 736 438 L736 972 L937 972 L937 298 Q937 79 961 0 L768 0 Q752 48 748 120 Q657 -22 481 -22 Q279 -22 188 126 Q139 205 139 392 L139 972 Z M869 1415 L629 1115 L444 1115 L204 1415 L390 1415 L536 1231 L682 1415 L869 1415 Z " />
<glyph glyph-name="uni01E6" unicode="&#x1e6;" horiz-adv-x="1295" d="M1044 1779 L770 1500 L585 1500 L310 1779 L504 1779 L677 1610 L849 1779 L1044 1779 Z M721 692 L1177 692 L1177 127 Q961 -25 700 -25 Q443 -25 281 135 Q88 327 88 685 Q88 1038 282 1232 Q441 1390 677 1390 Q888 1390 1013.5 1276.5 Q1139 1163 1158 955 L971 955 Q925 1206 679 1206 Q520 1206 431 1096 Q310 949 310 685 Q310 436 412.5 297.5 Q515 159 699 159 Q856 159 997 248 L997 526 L721 526 L721 692 Z " />
<glyph glyph-name="uni01E7" unicode="&#x1e7;" horiz-adv-x="1040" d="M865 1415 L625 1115 L440 1115 L200 1415 L386 1415 L532 1231 L678 1415 L865 1415 Z M999 972 L999 825 L800 827 Q866 752 866 630 Q866 455 727 389 Q653 354 440 323 Q338 308 338 253 Q338 224 370.5 214 Q403 204 543 190 Q770 168 847 127 Q975 59 975 -100 Q975 -248 852.5 -331.5 Q730 -415 513 -415 Q300 -415 174.5 -338.5 Q49 -262 49 -131 Q49 32 249 102 Q142 145 142 218 Q142 307 315 374 Q136 456 136 652 Q136 806 240 898 Q344 990 519 990 Q597 990 689 964 L999 972 Z M508 835 Q421 835 368.5 785.5 Q316 736 316 654 Q316 577 367 530.5 Q418 484 502 484 Q587 484 638.5 530.5 Q690 577 690 654 Q690 734 639 784.5 Q588 835 508 835 Z M490 28 Q225 28 225 -116 Q225 -183 303.5 -222.5 Q382 -262 515 -262 Q639 -262 710 -223.5 Q781 -185 781 -118 Q781 28 490 28 Z " />
<glyph glyph-name="uni01F4" unicode="&#x1f4;" horiz-adv-x="1295" d="M492 1486 L805 1794 L1067 1794 L686 1486 L492 1486 Z M721 692 L1177 692 L1177 127 Q961 -25 700 -25 Q443 -25 281 135 Q88 327 88 685 Q88 1038 282 1232 Q441 1390 677 1390 Q888 1390 1013.5 1276.5 Q1139 1163 1158 955 L971 955 Q925 1206 679 1206 Q520 1206 431 1096 Q310 949 310 685 Q310 436 412.5 297.5 Q515 159 699 159 Q856 159 997 248 L997 526 L721 526 L721 692 Z " />
<glyph glyph-name="Scommaaccent" unicode="&#x218;" horiz-adv-x="1140" d="M1009 987 L805 987 Q787 1206 562 1206 Q467 1206 403.5 1155.5 Q340 1105 340 1030 Q340 963 389.5 926 Q439 889 648 801 Q895 698 960 626 Q1048 530 1048 381 Q1048 196 920.5 85.5 Q793 -25 580 -25 Q348 -25 221 94.5 Q94 214 83 442 L288 442 Q312 159 584 159 Q693 159 762 211.5 Q831 264 831 346 Q831 425 775.5 471 Q720 517 518 603 Q293 700 210.5 786 Q128 872 128 1011 Q128 1178 251.5 1284 Q375 1390 569 1390 Q767 1390 882.5 1284 Q998 1178 1009 987 Z M553 -555 L449 -555 Q547 -448 559 -338 Q438 -332 438 -228 Q438 -179 474 -144 Q510 -109 562 -109 Q621 -109 657 -153 Q693 -197 693 -268 Q693 -396 553 -555 Z " />
<glyph glyph-name="scommaaccent" unicode="&#x219;" horiz-adv-x="949" d="M462 -561 L357 -561 Q455 -453 467 -342 Q345 -335 345 -230 Q345 -180 381.5 -145 Q418 -110 471 -110 Q530 -110 567 -154.5 Q604 -199 604 -270 Q604 -399 462 -561 Z M849 689 L655 689 Q635 843 479 843 Q409 843 364 808.5 Q319 774 319 720 Q319 667 360 640.5 Q401 614 551 570 Q732 517 796.5 457 Q861 397 861 281 Q861 137 761 55 Q661 -27 485 -27 Q84 -27 84 313 L275 313 Q290 130 480 130 Q658 130 658 266 Q658 322 615.5 347.5 Q573 373 382 431 Q237 475 177.5 536 Q118 597 118 701 Q118 834 218.5 916.5 Q319 999 482 999 Q649 999 744.5 918.5 Q840 838 849 689 Z " />
<glyph glyph-name="uni021A" unicode="&#x21a;" horiz-adv-x="992" d="M33 1365 L960 1365 L960 1184 L601 1184 L601 0 L390 0 L390 1184 L33 1184 L33 1365 Z M484 -555 L380 -555 Q478 -448 489 -338 Q369 -332 369 -228 Q369 -179 405 -144 Q441 -109 493 -109 Q552 -109 588 -153 Q624 -197 624 -268 Q624 -396 484 -555 Z " />
<glyph glyph-name="uni021B" unicode="&#x21b;" horiz-adv-x="691" d="M403 972 L617 972 L614 813 L400 813 L393 383 Q390 233 407.5 195 Q425 157 496 157 Q563 157 639 189 L636 19 Q536 -20 440 -20 Q306 -20 245.5 47 Q185 114 185 262 Q185 291 188 383 L200 813 L51 813 L54 972 L206 972 L213 1252 L408 1252 L403 972 Z M369 -561 L264 -561 Q361 -453 374 -342 Q252 -335 252 -231 Q252 -180 288.5 -145 Q325 -110 378 -110 Q438 -110 474.5 -154.5 Q511 -199 511 -271 Q511 -399 369 -561 Z " />
<glyph glyph-name="uni02BC" unicode="&#x2bc;" horiz-adv-x="428" d="M190 910 L70 910 Q176 1028 191 1147 Q63 1153 63 1264 Q63 1316 101 1353 Q139 1390 194 1390 Q256 1390 294.5 1343.5 Q333 1297 333 1221 Q333 1080 190 910 Z " />
<glyph glyph-name="uni02C9" unicode="&#x2c9;" horiz-adv-x="1024" d="M224 1327 L800 1327 L800 1196 L224 1196 L224 1327 Z " />
<glyph glyph-name="anoteleia" unicode="&#x387;" horiz-adv-x="518" d="M260 652 Q316 652 356.5 611 Q397 570 397 513 Q397 456 356.5 415.5 Q316 375 259 375 Q201 375 160.5 415.5 Q120 456 120 513 Q120 571 160.5 611.5 Q201 652 260 652 Z " />
<glyph glyph-name="uni060C" unicode="&#x60c;" horiz-adv-x="516" d="M290 530 L455 530 Q302 369 276 234 Q408 218 408 110 Q408 52 365 13 Q322 -26 259 -26 Q187 -26 143.5 22 Q100 70 100 148 Q100 315 290 530 Z " />
<glyph glyph-name="uni061B" unicode="&#x61b;" horiz-adv-x="518" d="M262 244 Q322 244 364 205.5 Q406 167 406 111 Q406 54 364 16 Q322 -22 261 -22 Q199 -22 157 16 Q115 54 115 110 Q115 168 157 206 Q199 244 262 244 Z M303 952 L468 952 Q315 791 289 656 Q421 640 421 532 Q421 474 378 435 Q335 396 272 396 Q200 396 156.5 444 Q113 492 113 570 Q113 738 303 952 Z " />
<glyph glyph-name="uni061E" unicode="&#x61e;" horiz-adv-x="714" d="M96 1093 L214 1226 L347 1091 L229 958 L96 1093 Z M368 1093 L486 1226 L619 1091 L501 958 L368 1093 Z M230 1342 L343 1470 L470 1340 L357 1212 L230 1342 Z " />
<glyph glyph-name="uni061F" unicode="&#x61f;" horiz-adv-x="892" d="M485 244 Q545 244 586.5 205 Q628 166 628 111 Q628 54 586 16 Q544 -22 482 -22 Q421 -22 379 16 Q337 54 337 110 Q337 168 379 206 Q421 244 485 244 Z M580 390 L384 390 L384 461 Q384 581 371.5 616 Q359 651 294 716 Q161 848 126 905.5 Q91 963 91 1050 Q91 1188 184 1268.5 Q277 1349 436 1349 Q792 1349 803 996 L627 996 Q613 1181 453 1181 Q304 1181 304 1046 Q304 960 430 838 Q530 740 555 684.5 Q580 629 580 503 L580 496 L580 390 Z " />
<glyph glyph-name="uni0621" unicode="&#x621;" horiz-adv-x="584" d="M20 -90 L30 69 L183 158 Q52 221 52 339 Q52 452 131.5 526.5 Q211 601 333 601 Q421 601 550 549 L491 425 Q398 472 336 472 Q282 472 246 438.5 Q210 405 210 355 Q210 311 246 276.5 Q282 242 328 242 Q347 242 390 258 Q478 290 607 320 L581 170 Q460 142 353.5 92 Q247 42 20 -90 Z " />
<glyph glyph-name="uni0622" unicode="&#x622;" horiz-adv-x="465" d="M180 0 L72 1288 L271 1426 L343 0 L180 0 Z M-86 1611 L9 1793 Q123 1714 207 1714 Q284 1714 367 1781 L418 1701 Q409 1693 404 1689 Q295 1595 173 1595 Q102 1595 34 1627 L-1 1564 L-86 1611 Z " />
<glyph glyph-name="uni0623" unicode="&#x623;" horiz-adv-x="465" d="M180 0 L72 1288 L271 1426 L343 0 L180 0 Z M-38 1466 L-31 1580 L64 1635 Q-15 1678 -15 1753 Q-15 1829 37.5 1878.5 Q90 1928 170 1928 Q229 1928 317 1893 L275 1804 Q214 1835 173 1835 Q95 1835 95 1764 Q95 1737 117.5 1716 Q140 1695 168 1695 Q181 1695 207 1705 Q263 1726 355 1747 L336 1640 Q189 1600 -38 1466 Z " />
<glyph glyph-name="uni0624" unicode="&#x624;" horiz-adv-x="848" d="M574 0 L451 0 Q264 0 194 41 Q96 97 96 239 Q96 425 186 545 Q276 665 416 665 Q591 665 675 477 Q761 285 761 12 Q761 -312 558 -450 Q418 -545 114 -571 L85 -396 Q576 -340 576 -38 Q576 -25 574 0 Z M569 203 Q539 493 398 493 Q342 493 307 440 Q272 387 272 302 Q272 239 302.5 221 Q333 203 437 203 L569 203 Z M154 835 L161 950 L256 1005 Q177 1048 177 1123 Q177 1199 229.5 1248.5 Q282 1298 362 1298 Q421 1298 509 1263 L467 1174 Q407 1205 366 1205 Q287 1205 287 1133 Q287 1107 309.5 1085.5 Q332 1064 360 1064 Q372 1064 399 1074 Q460 1097 547 1116 L528 1010 Q381 970 154 835 Z " />
<glyph glyph-name="uni0625" unicode="&#x625;" horiz-adv-x="465" d="M174 0 L66 1288 L265 1426 L337 0 L174 0 Z M49 -612 L57 -490 L156 -432 Q72 -386 72 -307 Q72 -227 127 -175 Q182 -123 266 -123 Q324 -123 423 -160 L377 -255 Q313 -222 271 -222 Q190 -222 190 -296 Q190 -324 213.5 -346 Q237 -368 266 -368 Q279 -368 308 -357 Q366 -336 464 -313 L444 -427 Q305 -461 49 -612 Z " />
<glyph glyph-name="uni0626" unicode="&#x626;" horiz-adv-x="1497" d="M202 424 L341 358 Q254 174 254 25 Q254 -142 354.5 -221 Q455 -300 668 -300 Q912 -300 1055 -224 Q1192 -152 1192 -35 Q1192 8 1158.5 27.5 Q1125 47 1004 75 Q840 113 777 153 Q694 207 694 316 Q694 477 826.5 598 Q959 719 1136 719 Q1265 719 1435 652 L1364 479 Q1234 546 1133 546 Q1039 546 968 486.5 Q897 427 897 348 Q897 304 931 282.5 Q965 261 1075 238 Q1234 204 1291 166 Q1384 105 1384 -28 Q1384 -216 1245 -338 Q1060 -502 656 -502 Q353 -502 211 -391 Q69 -280 69 -44 Q69 197 202 424 Z M389 688 L396 802 L491 857 Q412 902 412 976 Q412 1051 464 1101 Q516 1151 596 1151 Q654 1151 744 1115 L702 1027 Q641 1058 600 1058 Q522 1058 522 987 Q522 959 544.5 938 Q567 917 595 917 Q608 917 634 927 Q691 948 782 969 L763 862 Q612 821 389 688 Z " />
<glyph glyph-name="uni0627" unicode="&#x627;" horiz-adv-x="465" d="M181 0 L72 1288 L271 1426 L344 0 L181 0 Z " />
<glyph glyph-name="uni0628" unicode="&#x628;" horiz-adv-x="1672" d="M194 725 L338 658 Q282 542 282 440 Q282 294 390 241 Q498 188 794 188 Q1107 188 1248.5 235.5 Q1390 283 1390 388 Q1390 491 1285 600 L1438 740 Q1575 570 1575 389 Q1575 156 1403 73 Q1218 -16 781 -16 Q402 -16 250 71.5 Q98 159 98 377 Q98 552 194 725 Z M677 -308 L811 -163 L961 -309 L827 -454 L677 -308 Z " />
<glyph glyph-name="uni0629" unicode="&#x629;" horiz-adv-x="801" d="M296 790 Q462 704 535 643 Q707 499 707 295 Q707 -8 365 -8 Q83 -8 83 223 Q83 446 296 790 Z M335 557 Q259 401 259 310 Q259 192 384 192 Q530 192 530 300 Q530 444 335 557 Z M59 1030 L182 1168 L320 1027 L197 889 L59 1030 Z M336 1030 L459 1168 L597 1027 L474 889 L336 1030 Z " />
<glyph glyph-name="uni062A" unicode="&#x62a;" horiz-adv-x="1672" d="M194 725 L338 658 Q282 542 282 440 Q282 294 390 241 Q498 188 794 188 Q1107 188 1248.5 235.5 Q1390 283 1390 388 Q1390 491 1285 600 L1438 740 Q1575 570 1575 389 Q1575 156 1403 73 Q1218 -16 781 -16 Q402 -16 250 71.5 Q98 159 98 377 Q98 552 194 725 Z M551 1030 L674 1168 L812 1027 L689 889 L551 1030 Z M828 1030 L951 1168 L1089 1027 L966 889 L828 1030 Z " />
<glyph glyph-name="uni062B" unicode="&#x62b;" horiz-adv-x="1672" d="M194 725 L338 658 Q282 542 282 440 Q282 294 390 241 Q498 188 794 188 Q1107 188 1248.5 235.5 Q1390 283 1390 388 Q1390 491 1285 600 L1438 740 Q1575 570 1575 389 Q1575 156 1403 73 Q1218 -16 781 -16 Q402 -16 250 71.5 Q98 159 98 377 Q98 552 194 725 Z M563 998 L682 1131 L814 995 L696 862 L563 998 Z M835 998 L954 1131 L1086 995 L968 862 L835 998 Z M697 1247 L810 1374 L938 1244 L824 1116 L697 1247 Z " />
<glyph glyph-name="uni062C" unicode="&#x62c;" horiz-adv-x="1261" d="M170 426 L58 507 Q131 631 192.5 679 Q254 727 338 727 Q404 727 554 687 Q891 597 1146 578 L1106 379 Q731 345 525.5 210 Q320 75 320 -138 Q320 -484 810 -484 Q982 -484 1157 -419 L1194 -595 Q1005 -674 731 -674 Q425 -674 259 -543.5 Q93 -413 93 -173 Q93 62 241 208.5 Q389 355 726 455 Q636 470 534 497 Q378 537 335 537 Q291 537 265 519.5 Q239 502 170 426 Z M619 -61 L754 84 L904 -62 L770 -207 L619 -61 Z " />
<glyph glyph-name="uni062D" unicode="&#x62d;" horiz-adv-x="1261" d="M170 426 L58 507 Q131 631 192.5 679 Q254 727 338 727 Q404 727 554 687 Q891 597 1146 578 L1106 379 Q731 345 525.5 210 Q320 75 320 -138 Q320 -484 810 -484 Q982 -484 1157 -419 L1194 -595 Q1005 -674 731 -674 Q425 -674 259 -543.5 Q93 -413 93 -173 Q93 62 241 208.5 Q389 355 726 455 Q636 470 534 497 Q378 537 335 537 Q291 537 265 519.5 Q239 502 170 426 Z " />
<glyph glyph-name="uni062E" unicode="&#x62e;" horiz-adv-x="1261" d="M170 426 L58 507 Q131 631 192.5 679 Q254 727 338 727 Q404 727 554 687 Q891 597 1146 578 L1106 379 Q731 345 525.5 210 Q320 75 320 -138 Q320 -484 810 -484 Q982 -484 1157 -419 L1194 -595 Q1005 -674 731 -674 Q425 -674 259 -543.5 Q93 -413 93 -173 Q93 62 241 208.5 Q389 355 726 455 Q636 470 534 497 Q378 537 335 537 Q291 537 265 519.5 Q239 502 170 426 Z M434 1029 L568 1173 L718 1027 L584 882 L434 1029 Z " />
<glyph glyph-name="uni062F" unicode="&#x62f;" horiz-adv-x="988" d="M90 437 L242 437 Q241 404 241 389 Q241 280 290 241.5 Q339 203 477 203 Q705 203 705 371 Q705 582 411 844 L554 990 Q890 659 890 364 Q890 171 788 84 Q686 -3 460 -3 Q244 -3 162 65 Q80 133 80 313 Q80 373 90 437 Z " />
<glyph glyph-name="uni0630" unicode="&#x630;" horiz-adv-x="988" d="M90 437 L242 437 Q241 404 241 389 Q241 280 290 241.5 Q339 203 477 203 Q705 203 705 371 Q705 582 411 844 L554 990 Q890 659 890 364 Q890 171 788 84 Q686 -3 460 -3 Q244 -3 162 65 Q80 133 80 313 Q80 373 90 437 Z M215 1218 L349 1362 L499 1216 L365 1071 L215 1218 Z " />
<glyph glyph-name="uni0631" unicode="&#x631;" horiz-adv-x="696" d="M-54 -571 L-84 -396 Q177 -361 285.5 -272 Q394 -183 394 -4 Q394 90 351.5 202.5 Q309 315 244 393 L405 537 Q480 422 527.5 272 Q575 122 575 -4 Q575 -326 356 -461 Q217 -547 -54 -571 Z " />
<glyph glyph-name="uni0632" unicode="&#x632;" horiz-adv-x="696" d="M-54 -571 L-84 -396 Q177 -361 285.5 -272 Q394 -183 394 -4 Q394 90 351.5 202.5 Q309 315 244 393 L405 537 Q480 422 527.5 272 Q575 122 575 -4 Q575 -326 356 -461 Q217 -547 -54 -571 Z M70 854 L204 998 L354 852 L220 707 L70 854 Z " />
<glyph glyph-name="uni0633" unicode="&#x633;" horiz-adv-x="2153" d="M186 372 L330 305 Q243 119 243 -31 Q243 -330 606 -330 Q814 -330 929 -244.5 Q1044 -159 1044 -3 Q1044 186 877 346 L1035 484 Q1093 409 1144 309 Q1174 247 1201 226 Q1228 205 1276 205 Q1413 205 1413 421 L1413 487 L1581 487 L1581 421 Q1581 303 1614.5 254 Q1648 205 1730 205 Q1869 205 1869 331 Q1869 415 1772 529 L1927 669 Q2056 492 2056 314 Q2056 0 1734 0 Q1570 0 1497 100 Q1435 0 1310 0 Q1271 0 1219 14 Q1221 -17 1221 -40 Q1221 -266 1077 -391 Q915 -532 588 -532 Q319 -532 188.5 -426 Q58 -320 58 -101 Q58 143 186 372 Z " />
<glyph glyph-name="uni0634" unicode="&#x634;" horiz-adv-x="2159" d="M186 372 L330 305 Q243 119 243 -31 Q243 -330 606 -330 Q814 -330 929 -244.5 Q1044 -159 1044 -3 Q1044 186 877 346 L1035 484 Q1093 409 1144 309 Q1174 247 1201 226 Q1228 205 1276 205 Q1413 205 1413 421 L1413 487 L1581 487 L1581 421 Q1581 303 1614.5 254 Q1648 205 1730 205 Q1869 205 1869 331 Q1869 415 1772 529 L1927 669 Q2056 492 2056 314 Q2056 0 1734 0 Q1570 0 1497 100 Q1435 0 1310 0 Q1271 0 1219 14 Q1221 -14 1221 -38 Q1221 -265 1077 -391 Q915 -532 588 -532 Q319 -532 188.5 -426 Q58 -320 58 -101 Q58 143 186 372 Z M1229 845 L1347 978 L1480 842 L1361 709 L1229 845 Z M1501 845 L1619 978 L1752 842 L1633 709 L1501 845 Z M1362 1094 L1476 1221 L1603 1091 L1490 964 L1362 1094 Z " />
<glyph glyph-name="uni0635" unicode="&#x635;" horiz-adv-x="2327" d="M186 372 L330 305 Q243 122 243 -30 Q243 -330 606 -330 Q815 -330 929.5 -244.5 Q1044 -159 1044 -4 Q1044 180 877 346 L1043 488 Q1061 456 1092 407 Q1153 308 1174.5 284 Q1196 260 1241 246 Q1479 502 1617.5 594.5 Q1756 687 1901 687 Q2052 687 2140.5 603.5 Q2229 520 2229 376 Q2229 180 2059 89 Q1889 -2 1522 -2 Q1333 -2 1220 25 Q1223 -4 1223 -30 Q1223 -268 1056.5 -400 Q890 -532 589 -532 Q319 -532 188.5 -426 Q58 -320 58 -101 Q58 143 186 372 Z M1400 205 L1622 205 Q2043 205 2043 350 Q2043 425 1994.5 470.5 Q1946 516 1866 516 Q1775 516 1688.5 458 Q1602 400 1400 205 Z " />
<glyph glyph-name="uni0636" unicode="&#x636;" horiz-adv-x="2327" d="M186 372 L330 305 Q243 122 243 -30 Q243 -330 606 -330 Q815 -330 929.5 -244.5 Q1044 -159 1044 -4 Q1044 180 877 346 L1043 488 Q1061 456 1092 407 Q1153 308 1174.5 284 Q1196 260 1241 246 Q1479 502 1617.5 594.5 Q1756 687 1901 687 Q2052 687 2140.5 603.5 Q2229 520 2229 376 Q2229 180 2059 89 Q1889 -2 1522 -2 Q1333 -2 1220 25 Q1223 -4 1223 -30 Q1223 -268 1056.5 -400 Q890 -532 589 -532 Q319 -532 188.5 -426 Q58 -320 58 -101 Q58 143 186 372 Z M1400 205 L1622 205 Q2043 205 2043 350 Q2043 425 1994.5 470.5 Q1946 516 1866 516 Q1775 516 1688.5 458 Q1602 400 1400 205 Z M1548 1029 L1682 1173 L1832 1027 L1698 882 L1548 1029 Z " />
<glyph glyph-name="uni0637" unicode="&#x637;" horiz-adv-x="1500" d="M333 205 L225 1288 L424 1426 L481 318 Q682 526 810.5 606.5 Q939 687 1073 687 Q1225 687 1313.5 603.5 Q1402 520 1402 376 Q1402 157 1205 72 Q1104 28 990 14 Q876 0 625 0 L103 0 L16 205 L333 205 Z M574 205 L795 205 Q1012 205 1114 240 Q1216 275 1216 350 Q1216 425 1167.5 470.5 Q1119 516 1039 516 Q948 516 861.5 458 Q775 400 574 205 Z " />
<glyph glyph-name="uni0638" unicode="&#x638;" horiz-adv-x="1500" d="M333 205 L225 1288 L424 1426 L481 318 Q682 526 810.5 606.5 Q939 687 1073 687 Q1225 687 1313.5 603.5 Q1402 520 1402 376 Q1402 157 1205 72 Q1104 28 990 14 Q876 0 625 0 L103 0 L16 205 L333 205 Z M574 205 L795 205 Q1012 205 1114 240 Q1216 275 1216 350 Q1216 425 1167.5 470.5 Q1119 516 1039 516 Q948 516 861.5 458 Q775 400 574 205 Z M752 1029 L886 1173 L1036 1027 L902 882 L752 1029 Z " />
<glyph glyph-name="uni0639" unicode="&#x639;" horiz-adv-x="1134" d="M990 455 L940 262 Q634 230 469.5 122.5 Q305 15 305 -154 Q305 -484 782 -484 Q943 -484 1108 -432 L1145 -608 Q962 -674 704 -674 Q404 -674 241 -547 Q78 -420 78 -186 Q78 85 343 250 Q237 300 193 362 Q149 424 149 523 Q149 696 267 810 Q385 924 564 924 Q699 924 881 851 L804 684 Q671 751 573 751 Q478 751 417 692 Q356 633 356 541 Q356 465 415.5 409 Q475 353 555 353 Q583 353 641 372 Q817 429 990 455 Z " />
<glyph glyph-name="uni063A" unicode="&#x63a;" horiz-adv-x="1134" d="M990 455 L940 262 Q634 230 469.5 122.5 Q305 15 305 -154 Q305 -484 782 -484 Q943 -484 1108 -432 L1145 -608 Q962 -674 704 -674 Q404 -674 241 -547 Q78 -420 78 -186 Q78 85 343 250 Q237 300 193 362 Q149 424 149 523 Q149 696 267 810 Q385 924 564 924 Q699 924 881 851 L804 684 Q671 751 573 751 Q478 751 417 692 Q356 633 356 541 Q356 465 415.5 409 Q475 353 555 353 Q583 353 641 372 Q817 429 990 455 Z M339 1226 L473 1371 L623 1225 L489 1080 L339 1226 Z " />
<glyph glyph-name="uni0640" unicode="&#x640;" horiz-adv-x="668" d="M-41 0 L-41 205 L709 205 L709 0 L-41 0 Z " />
<glyph glyph-name="uni0641" unicode="&#x641;" horiz-adv-x="1711" d="M198 726 L338 659 Q282 542 282 441 Q282 296 394.5 242 Q507 188 808 188 Q1223 188 1363 268 Q1425 303 1429 409 L1291 409 Q1105 409 1028.5 460 Q952 511 952 635 Q952 815 1042 931 Q1132 1047 1272 1047 Q1447 1047 1531 859 Q1614 674 1614 423 Q1614 148 1426 67 Q1236 -16 804 -16 Q414 -16 256 71.5 Q98 159 98 375 Q98 552 198 726 Z M1425 585 Q1395 875 1254 875 Q1198 875 1163 822 Q1128 769 1128 683 Q1128 621 1158.5 603 Q1189 585 1293 585 L1425 585 Z M1017 1310 L1151 1455 L1301 1309 L1167 1164 L1017 1310 Z " />
<glyph glyph-name="uni0642" unicode="&#x642;" horiz-adv-x="1361" d="M1089 0 L967 0 Q779 0 709 41 Q611 97 611 238 Q611 425 701.5 545 Q792 665 932 665 Q1107 665 1191 477 Q1275 289 1275 24 Q1275 -532 620 -532 Q333 -532 195 -425 Q57 -318 57 -96 Q57 144 190 372 L329 306 Q241 121 241 -27 Q241 -182 337.5 -256 Q434 -330 636 -330 Q858 -330 978 -242 Q1092 -160 1092 -37 Q1092 -21 1089 0 Z M1085 203 Q1054 493 913 493 Q857 493 822 440 Q787 387 787 302 Q787 239 817.5 221 Q848 203 953 203 L1085 203 Z M594 967 L717 1106 L855 965 L732 827 L594 967 Z M871 967 L994 1106 L1132 965 L1009 827 L871 967 Z " />
<glyph glyph-name="uni0643" unicode="&#x643;" horiz-adv-x="1742" d="M198 725 L337 658 Q282 540 282 441 Q282 295 392 241 Q502 187 800 187 Q1159 187 1306 243 Q1420 287 1420 391 Q1420 416 1410 535 L1349 1288 L1548 1426 L1592 552 Q1598 441 1598 398 Q1598 158 1427 75 Q1239 -16 792 -16 Q406 -16 252 71 Q98 158 98 377 Q98 553 198 725 Z M631 507 L659 631 L778 631 Q860 631 860 668 Q860 715 732 793 L760 887 L1121 1053 L1077 912 L886 829 Q1001 730 1001 635 Q1001 507 786 507 L631 507 Z " />
<glyph glyph-name="uni0644" unicode="&#x644;" horiz-adv-x="1223" d="M191 371 L330 305 Q243 121 243 -29 Q243 -326 558 -326 Q730 -326 828.5 -235.5 Q927 -145 927 13 Q927 98 916 236 L829 1288 L1029 1426 L1089 253 Q1097 84 1097 29 Q1097 -190 1002 -328 Q864 -529 535 -529 Q292 -529 175 -423 Q58 -317 58 -97 Q58 145 191 371 Z " />
<glyph glyph-name="uni0645" unicode="&#x645;" horiz-adv-x="1022" d="M269 244 Q245 311 245 397 Q245 523 311.5 592.5 Q378 662 499 662 Q668 662 798 517 Q925 376 925 221 Q925 112 873.5 47.5 Q822 -17 735 -17 Q676 -17 523 21 Q396 52 321 52 Q235 52 235 -32 Q235 -66 245 -128 L278 -345 Q296 -458 296 -504 Q296 -641 140 -691 L71 -220 Q48 -65 48 -7 Q48 221 269 244 Z M434 239 Q514 228 617 200 Q670 186 691 186 Q741 186 741 233 Q741 314 656 407.5 Q571 501 497 501 Q411 501 411 376 Q411 302 434 239 Z " />
<glyph glyph-name="uni0646" unicode="&#x646;" horiz-adv-x="1285" d="M186 371 L330 305 Q243 122 243 -31 Q243 -330 605 -330 Q812 -330 927.5 -243 Q1043 -156 1043 -1 Q1043 188 877 346 L1035 484 Q1224 255 1224 -4 Q1224 -243 1080 -378 Q916 -532 587 -532 Q318 -532 188 -426 Q58 -320 58 -101 Q58 143 186 371 Z M491 850 L626 994 L776 848 L642 703 L491 850 Z " />
<glyph glyph-name="uni0647" unicode="&#x647;" horiz-adv-x="801" d="M296 790 Q465 702 535 643 Q707 499 707 295 Q707 -8 365 -8 Q83 -8 83 224 Q83 443 296 790 Z M335 557 Q259 400 259 310 Q259 192 384 192 Q530 192 530 300 Q530 444 335 557 Z " />
<glyph glyph-name="uni0648" unicode="&#x648;" horiz-adv-x="848" d="M574 0 L451 0 Q264 0 194 41 Q96 97 96 239 Q96 425 186 545 Q276 665 416 665 Q591 665 675 477 Q761 285 761 12 Q761 -312 558 -450 Q418 -545 114 -571 L85 -396 Q576 -340 576 -38 Q576 -25 574 0 Z M569 203 Q539 493 398 493 Q342 493 307 440 Q272 387 272 302 Q272 239 302.5 221 Q333 203 437 203 L569 203 Z " />
<glyph glyph-name="uni0649" unicode="&#x649;" horiz-adv-x="1497" d="M202 424 L341 358 Q254 174 254 25 Q254 -142 354.5 -221 Q455 -300 668 -300 Q912 -300 1055 -224 Q1192 -152 1192 -35 Q1192 8 1158.5 27.5 Q1125 47 1004 75 Q840 113 777 153 Q694 207 694 316 Q694 477 826.5 598 Q959 719 1136 719 Q1265 719 1435 652 L1364 479 Q1234 546 1133 546 Q1039 546 968 486.5 Q897 427 897 348 Q897 304 931 282.5 Q965 261 1075 238 Q1234 204 1291 166 Q1384 105 1384 -28 Q1384 -216 1245 -338 Q1060 -502 656 -502 Q353 -502 211 -391 Q69 -280 69 -44 Q69 197 202 424 Z " />
<glyph glyph-name="uni064A" unicode="&#x64a;" horiz-adv-x="1497" d="M202 559 L341 493 Q254 309 254 160 Q254 -8 355 -86.5 Q456 -165 674 -165 Q904 -165 1046.5 -113.5 Q1189 -62 1189 21 Q1189 60 1155 78.5 Q1121 97 1002 124 Q824 165 759 214 Q694 263 694 357 Q694 512 826.5 630 Q959 748 1134 748 Q1265 748 1435 681 L1364 508 Q1224 576 1116 576 Q1029 576 963 520 Q897 464 897 390 Q897 350 932 329 Q967 308 1073 286 Q1232 253 1289 216 Q1381 155 1381 29 Q1381 -125 1244 -229 Q1060 -367 660 -367 Q354 -367 211.5 -256.5 Q69 -146 69 91 Q69 332 202 559 Z M383 -572 L506 -434 L644 -574 L521 -713 L383 -572 Z M660 -572 L783 -434 L921 -574 L798 -713 L660 -572 Z " />
<glyph glyph-name="uni064B" unicode="&#x64b;" d="M281 950 L292 1059 L680 1249 L668 1140 L281 950 Z M269 1156 L281 1265 L668 1455 L656 1346 L269 1156 Z " />
<glyph glyph-name="uni064C" unicode="&#x64c;" d="M102 1130 L82 1225 Q140 1247 181 1247 Q308 1247 312 1072 Q419 1083 496 1144 Q345 1193 345 1281 Q345 1350 391.5 1395 Q438 1440 510 1440 Q670 1440 670 1277 Q670 1240 660 1204 L718 1194 L676 1106 L615 1118 Q516 1003 285 971 L217 990 Q221 1030 221 1051 Q221 1147 172 1147 Q143 1147 102 1130 Z M558 1223 Q565 1251 565 1271 Q565 1353 504 1353 Q450 1353 450 1299 Q450 1253 558 1223 Z " />
<glyph glyph-name="uni064D" unicode="&#x64d;" d="M209 -687 L233 -553 L657 -340 L633 -474 L209 -687 Z M209 -452 L233 -319 L657 -105 L633 -239 L209 -452 Z " />
<glyph glyph-name="uni064E" unicode="&#x64e;" d="M257 1013 L269 1122 L656 1312 L644 1203 L257 1013 Z " />
<glyph glyph-name="uni064F" unicode="&#x64f;" d="M443 1117 Q292 1165 292 1254 Q292 1323 338.5 1368 Q385 1413 457 1413 Q617 1413 617 1250 Q617 1215 607 1176 L665 1166 L623 1079 L562 1091 Q474 988 256 946 L279 1051 Q382 1070 443 1117 Z M505 1196 Q512 1222 512 1243 Q512 1326 452 1326 Q397 1326 397 1272 Q397 1225 505 1196 Z " />
<glyph glyph-name="uni0650" unicode="&#x650;" d="M209 -469 L233 -335 L657 -122 L633 -256 L209 -469 Z " />
<glyph glyph-name="uni0651" unicode="&#x651;" d="M176 1350 L279 1350 Q292 1221 301 1195.5 Q310 1170 344 1170 Q384 1170 384 1215 Q384 1244 372 1350 L474 1350 Q488 1219 497 1194.5 Q506 1170 540 1170 Q580 1170 580 1215 Q580 1239 567 1350 L670 1350 Q683 1227 683 1200 Q683 1081 557 1081 Q488 1081 447 1122 Q415 1081 346 1081 Q244 1081 206 1163 Q193 1193 180 1312 L176 1350 Z " />
<glyph glyph-name="uni0652" unicode="&#x652;" d="M449 1412 Q526 1412 582.5 1356 Q639 1300 639 1222 Q639 1143 582.5 1087.5 Q526 1032 445 1032 Q365 1032 308.5 1088 Q252 1144 252 1223 Q252 1302 309.5 1357 Q367 1412 449 1412 Z M447 1323 Q408 1323 380.5 1294 Q353 1265 353 1223 Q353 1180 380 1150.5 Q407 1121 445 1121 Q484 1121 511 1150.5 Q538 1180 538 1222 Q538 1263 511 1293 Q484 1323 447 1323 Z " />
<glyph glyph-name="uni0653" unicode="&#x653;" d="M204 1157 L299 1340 Q412 1260 497 1260 Q575 1260 657 1327 L708 1247 Q699 1239 694 1235 Q586 1141 463 1141 Q393 1141 324 1173 L289 1110 L204 1157 Z " />
<glyph glyph-name="uni0654" unicode="&#x654;" d="M261 958 L268 1072 L363 1127 Q284 1170 284 1246 Q284 1321 336.5 1370.5 Q389 1420 469 1420 Q526 1420 616 1385 L574 1297 Q514 1327 472 1327 Q394 1327 394 1256 Q394 1229 416.5 1208 Q439 1187 467 1187 Q479 1187 506 1197 Q564 1219 654 1239 L635 1132 Q491 1094 261 958 Z " />
<glyph glyph-name="uni0655" unicode="&#x655;" d="M212 -612 L220 -490 L319 -432 Q235 -386 235 -307 Q235 -227 290 -175 Q345 -123 429 -123 Q487 -123 586 -160 L540 -255 Q476 -222 434 -222 Q353 -222 353 -296 Q353 -324 376.5 -346 Q400 -368 429 -368 Q442 -368 471 -357 Q529 -336 627 -313 L607 -427 Q468 -461 212 -612 Z " />
<glyph glyph-name="uni0656" unicode="&#x656;" d="M658 -502 L523 -518 L485 -143 L620 -128 L658 -502 Z " />
<glyph glyph-name="uni0657" unicode="&#x657;" d="M435 1300 Q599 1277 599 1154 Q599 1075 554.5 1030 Q510 985 432 985 Q251 985 251 1167 Q251 1286 334.5 1351 Q418 1416 645 1473 L663 1383 Q651 1379 639 1376 Q512 1341 435 1300 Z M364 1250 Q352 1213 352 1180 Q352 1077 427 1077 Q499 1077 499 1154 Q499 1227 380 1247 Q371 1248 364 1250 Z " />
<glyph glyph-name="uni0658" unicode="&#x658;" d="M719 1340 Q706 1224 631.5 1159.5 Q557 1095 435 1095 Q313 1095 239 1159 Q165 1223 152 1340 L264 1340 Q299 1207 435 1207 Q572 1207 607 1340 L719 1340 Z " />
<glyph glyph-name="uni0660" unicode="&#x660;" horiz-adv-x="806" d="M141 692 L362 932 Q472 852 514.5 810 Q557 768 612 687 L392 447 Q310 555 270 594 Q230 633 141 692 Z " />
<glyph glyph-name="uni0661" unicode="&#x661;" horiz-adv-x="693" d="M368 0 Q343 492 265 755.5 Q187 1019 -3 1254 L129 1457 Q351 1146 438 829 Q525 512 530 0 L368 0 Z " />
<glyph glyph-name="uni0662" unicode="&#x662;" horiz-adv-x="905" d="M367 0 Q343 487 267 747.5 Q191 1008 6 1240 L106 1394 Q335 1441 495 1441 Q607 1441 755 1416 L766 1201 Q615 1235 525 1235 Q408 1235 283 1205 Q418 949 471.5 685 Q525 421 529 0 L367 0 Z " />
<glyph glyph-name="uni0663" unicode="&#x663;" horiz-adv-x="1131" d="M368 0 Q343 492 265 755.5 Q187 1019 -3 1254 L129 1457 Q169 1402 245 1284 Q329 1156 402 1156 Q517 1156 517 1403 L517 1424 L657 1424 L657 1403 Q657 1284 683.5 1233 Q710 1182 773 1182 Q830 1182 852.5 1224 Q875 1266 875 1371 L875 1424 L1018 1424 L1018 1355 Q1018 1199 988 1120 Q937 986 787 986 Q682 986 606 1081 Q547 971 444 971 Q417 971 387 979 Q523 622 530 0 L368 0 Z " />
<glyph glyph-name="uni0664" unicode="&#x664;" horiz-adv-x="752" d="M330 717 L178 841 Q79 920 53 954.5 Q27 989 27 1043 Q27 1166 234 1295 Q393 1393 568 1460 L549 1266 Q479 1238 353 1169 Q230 1102 230 1059 Q230 1031 316 965 L566 767 L558 676 L402 571 Q274 484 274 410 Q274 333 373 273.5 Q472 214 699 155 L655 -38 Q322 54 189 145 Q56 236 56 374 Q56 453 94 511.5 Q132 570 236 647 L330 717 Z " />
<glyph glyph-name="uni0665" unicode="&#x665;" horiz-adv-x="1041" d="M493 1364 Q680 1364 803 1076 Q926 787 926 475 Q926 253 810.5 130 Q695 7 487 7 Q286 7 173 135 Q61 264 61 474 Q61 783 184 1076 Q305 1364 493 1364 Z M493 1163 Q396 1163 319.5 962.5 Q243 762 243 508 Q243 350 323 274 Q389 211 490 211 Q744 211 744 509 Q744 763 667.5 963 Q591 1163 493 1163 Z " />
<glyph glyph-name="uni0666" unicode="&#x666;" horiz-adv-x="973" d="M487 1137 Q393 1125 304 1125 Q103 1125 35.5 1193.5 Q-32 1262 -42 1478 L101 1483 Q121 1385 159 1357.5 Q197 1330 310 1330 Q431 1330 620 1357 L648 1281 Q655 782 700.5 551 Q746 320 873 143 L740 -60 Q600 160 545 419.5 Q490 679 487 1137 Z " />
<glyph glyph-name="uni0667" unicode="&#x667;" horiz-adv-x="1146" d="M476 0 Q398 818 -35 1254 L89 1460 Q270 1227 369 1013.5 Q468 800 536 497 Q571 798 647.5 1010.5 Q724 1223 880 1460 L1021 1260 Q638 823 648 0 L476 0 Z " />
<glyph glyph-name="uni0668" unicode="&#x668;" horiz-adv-x="1146" d="M130 -60 L-11 140 Q371 585 362 1424 L534 1424 Q611 590 1045 146 L921 -60 Q734 196 637 409.5 Q540 623 474 927 Q439 620 365 407.5 Q291 195 130 -60 Z " />
<glyph glyph-name="uni0669" unicode="&#x669;" horiz-adv-x="993" d="M571 678 L431 678 Q222 678 143 729 Q35 798 35 971 Q35 1178 131 1310 Q227 1442 378 1442 Q532 1442 619 1313 Q710 1180 732 860 Q753 568 792.5 423 Q832 278 929 143 L797 -60 Q691 104 644 258 Q597 412 571 678 Z M556 872 Q524 1271 366 1271 Q299 1271 255.5 1201 Q212 1131 212 1024 Q212 930 251.5 901 Q291 872 417 872 L556 872 Z " />
<glyph glyph-name="uni066A" unicode="&#x66a;" horiz-adv-x="1276" d="M41 921 L226 1121 Q374 1013 440 913 L254 712 Q163 832 41 921 Z M739 356 L924 557 Q1072 450 1138 348 L952 147 Q862 268 739 356 Z M163 0 L892 1424 L1073 1424 L343 0 L163 0 Z " />
<glyph glyph-name="uni066B" unicode="&#x66b;" horiz-adv-x="481" d="M217 -236 L63 -236 Q193 -117 220 3 Q89 13 89 121 Q89 175 130 211.5 Q171 248 233 248 Q301 248 341.5 205 Q382 162 382 90 Q382 -73 217 -236 Z " />
<glyph glyph-name="uni066C" unicode="&#x66c;" horiz-adv-x="481" d="M217 907 L63 907 Q193 1026 220 1146 Q89 1156 89 1263 Q89 1318 130.5 1354.5 Q172 1391 233 1391 Q300 1391 341 1348 Q382 1305 382 1233 Q382 1070 217 907 Z " />
<glyph glyph-name="uni066D" unicode="&#x66d;" horiz-adv-x="1024" d="M447 787 L443 1043 L581 1043 L577 787 L819 870 L861 739 L617 664 L770 459 L659 378 L512 588 L365 378 L254 459 L407 664 L163 739 L205 870 L447 787 Z " />
<glyph glyph-name="uni0670" unicode="&#x670;" d="M444 911 L364 1224 L516 1361 L566 923 L444 911 Z " />
<glyph glyph-name="uni0674" unicode="&#x674;" d="M-72 1466 L-65 1580 L30 1635 Q-49 1678 -49 1753 Q-49 1829 3.5 1878.5 Q56 1928 136 1928 Q195 1928 283 1893 L241 1804 Q180 1835 139 1835 Q61 1835 61 1764 Q61 1737 83.5 1716 Q106 1695 134 1695 Q147 1695 173 1705 Q229 1726 321 1747 L302 1640 Q155 1600 -72 1466 Z " />
<glyph glyph-name="uni0679" unicode="&#x679;" horiz-adv-x="1672" d="M194 725 L338 658 Q282 542 282 440 Q282 294 390 241 Q498 188 794 188 Q1107 188 1248.5 235.5 Q1390 283 1390 388 Q1390 491 1285 600 L1438 740 Q1575 570 1575 389 Q1575 156 1403 73 Q1218 -16 781 -16 Q402 -16 250 71.5 Q98 159 98 377 Q98 552 194 725 Z M680 1041 L632 1383 L739 1463 L764 1090 Q851 1179 902 1210.5 Q953 1242 1012 1242 Q1081 1242 1122.5 1206 Q1164 1170 1164 1109 Q1164 1022 1088 987.5 Q1012 953 818 953 L587 953 L537 1041 L680 1041 Z M822 1041 L895 1041 Q1062 1041 1062 1100 Q1062 1166 996 1166 Q940 1166 822 1041 Z " />
<glyph glyph-name="uni067E" unicode="&#x67e;" horiz-adv-x="1672" d="M194 725 L338 658 Q282 542 282 440 Q282 294 390 241 Q498 188 794 188 Q1107 188 1248.5 235.5 Q1390 283 1390 388 Q1390 491 1285 600 L1438 740 Q1575 570 1575 389 Q1575 156 1403 73 Q1218 -16 781 -16 Q402 -16 250 71.5 Q98 159 98 377 Q98 552 194 725 Z M573 -256 L685 -131 L811 -259 L699 -385 L573 -256 Z M835 -256 L947 -131 L1073 -259 L961 -385 L835 -256 Z M717 -489 L823 -369 L944 -492 L837 -612 L717 -489 Z " />
<glyph glyph-name="uni0686" unicode="&#x686;" horiz-adv-x="1261" d="M170 426 L58 507 Q131 631 192.5 679 Q254 727 338 727 Q404 727 554 687 Q764 631 827 619.5 Q890 608 1146 578 L1106 379 Q731 345 525.5 210 Q320 75 320 -138 Q320 -484 805 -484 Q976 -484 1157 -419 L1199 -593 Q1007 -674 729 -674 Q425 -674 259 -543.5 Q93 -413 93 -173 Q93 61 241 208 Q389 355 726 455 Q635 471 534 497 Q378 537 335 537 Q291 537 265 519.5 Q239 502 170 426 Z M522 4 L629 125 L751 1 L643 -120 L522 4 Z M778 4 L885 125 L1007 1 L899 -121 L778 4 Z M662 -209 L765 -94 L881 -212 L779 -328 L662 -209 Z " />
<glyph glyph-name="uni0688" unicode="&#x688;" horiz-adv-x="988" d="M91 437 L243 437 Q241 410 241 389 Q241 280 290 241.5 Q339 203 477 203 Q706 203 706 371 Q706 582 412 844 L555 990 Q891 660 891 364 Q891 171 789 84 Q687 -3 461 -3 Q245 -3 162.5 65 Q80 133 80 311 Q80 371 91 437 Z M187 1151 L140 1492 L246 1572 L271 1199 Q357 1288 408.5 1319.5 Q460 1351 519 1351 Q588 1351 629.5 1315 Q671 1279 671 1219 Q671 1132 595 1097.5 Q519 1063 325 1063 L94 1063 L44 1151 L187 1151 Z M329 1151 L402 1151 Q569 1151 569 1210 Q569 1275 503 1275 Q447 1275 329 1151 Z " />
<glyph glyph-name="uni0691" unicode="&#x691;" horiz-adv-x="696" d="M-54 -571 L-84 -396 Q177 -361 285.5 -272 Q394 -183 394 -4 Q394 90 351.5 202.5 Q309 315 244 393 L405 537 Q480 422 527.5 272 Q575 122 575 -4 Q575 -326 356 -461 Q217 -547 -54 -571 Z M95 778 L47 1120 L154 1200 L179 826 Q267 917 317.5 948 Q368 979 426 979 Q496 979 537.5 943 Q579 907 579 847 Q579 759 502.5 724.5 Q426 690 233 690 L2 690 L-48 778 L95 778 Z M237 778 L310 778 Q477 778 477 837 Q477 903 411 903 Q355 903 237 778 Z " />
<glyph glyph-name="uni0698" unicode="&#x698;" horiz-adv-x="696" d="M-54 -571 L-84 -396 Q177 -361 285.5 -272 Q394 -183 394 -4 Q394 90 351.5 202.5 Q309 315 244 393 L405 537 Q480 422 527.5 272 Q575 122 575 -4 Q575 -326 356 -461 Q217 -547 -54 -571 Z M4 797 L122 930 L255 794 L137 661 L4 797 Z M276 797 L394 930 L527 794 L409 661 L276 797 Z M138 1046 L251 1173 L379 1043 L265 916 L138 1046 Z " />
<glyph glyph-name="uni06A4" unicode="&#x6a4;" horiz-adv-x="1711" d="M198 726 L338 659 Q282 542 282 441 Q282 296 394.5 242 Q507 188 808 188 Q1223 188 1363 268 Q1425 303 1429 409 L1291 409 Q1105 409 1028.5 460 Q952 511 952 635 Q952 815 1042 931 Q1132 1047 1272 1047 Q1447 1047 1531 859 Q1614 674 1614 423 Q1614 148 1426 67 Q1236 -16 804 -16 Q414 -16 256 71.5 Q98 159 98 375 Q98 552 198 726 Z M1425 585 Q1395 875 1254 875 Q1198 875 1163 822 Q1128 769 1128 683 Q1128 621 1158.5 603 Q1189 585 1293 585 L1425 585 Z M941 1272 L1059 1405 L1191 1270 L1073 1137 L941 1272 Z M1213 1272 L1331 1405 L1463 1270 L1345 1137 L1213 1272 Z M1074 1521 L1187 1649 L1315 1519 L1202 1391 L1074 1521 Z " />
<glyph glyph-name="uni06A9" unicode="&#x6a9;" horiz-adv-x="1865" d="M194 725 L338 658 Q282 542 282 440 Q282 294 390 241 Q498 188 794 188 Q1108 188 1249 235 Q1390 282 1390 387 Q1390 507 1258 652 Q1243 668 1042 850 L1080 1023 L1826 1424 L1771 1181 L1247 918 Q1395 783 1448 717 Q1575 558 1575 385 Q1575 156 1403 73 Q1219 -16 781 -16 Q402 -16 250 71.5 Q98 159 98 377 Q98 552 194 725 Z " />
<glyph glyph-name="uni06AF" unicode="&#x6af;" horiz-adv-x="1865" d="M194 725 L338 658 Q282 542 282 440 Q282 294 390 241 Q498 188 794 188 Q1106 188 1247.5 235 Q1389 282 1389 386 Q1389 479 1317.5 567.5 Q1246 656 1038 819 L1076 992 L1813 1311 L1764 1101 L1243 887 Q1440 716 1507.5 614 Q1575 512 1575 383 Q1575 156 1403 73 Q1219 -16 781 -16 Q402 -16 250 71.5 Q98 159 98 377 Q98 552 194 725 Z M1083 1096 L1123 1260 L1859 1579 L1820 1415 L1083 1096 Z " />
<glyph glyph-name="uni06BA" unicode="&#x6ba;" horiz-adv-x="1285" d="M186 371 L330 305 Q243 122 243 -31 Q243 -330 605 -330 Q812 -330 927.5 -243 Q1043 -156 1043 -1 Q1043 188 877 346 L1035 484 Q1224 255 1224 -4 Q1224 -243 1080 -378 Q916 -532 587 -532 Q318 -532 188 -426 Q58 -320 58 -101 Q58 143 186 371 Z " />
<glyph glyph-name="uni06BE" unicode="&#x6be;" horiz-adv-x="1426" d="M123 -690 L59 -259 Q36 -106 36 -44 Q36 90 101.5 147.5 Q167 205 321 205 L443 205 Q371 281 371 381 Q371 524 503 605 L411 628 L435 807 Q757 726 987 633 Q1182 555 1258.5 479.5 Q1335 404 1335 291 Q1335 128 1226 53 Q1145 -3 934 -3 Q760 -3 649 30 Q532 0 365 0 L319 0 Q225 0 225 -79 Q225 -117 234 -176 L261 -344 Q279 -456 279 -504 Q279 -640 123 -690 Z M652 537 Q592 537 550 491 Q508 445 508 379 Q508 312 549.5 265 Q591 218 649 218 Q708 218 749.5 265 Q791 312 791 378 Q791 442 749.5 489.5 Q708 537 652 537 Z M840 187 L963 187 Q1079 187 1120 207.5 Q1161 228 1161 285 Q1161 351 1116.5 385 Q1072 419 893 488 Q924 427 924 381 Q924 273 840 187 Z " />
<glyph glyph-name="uni06C0" unicode="&#x6c0;" horiz-adv-x="801" d="M296 790 Q465 702 535 643 Q707 499 707 295 Q707 -8 365 -8 Q83 -8 83 224 Q83 443 296 790 Z M335 557 Q259 400 259 310 Q259 192 384 192 Q530 192 530 300 Q530 444 335 557 Z M118 835 L126 950 L220 1005 Q141 1048 141 1123 Q141 1199 193.5 1248.5 Q246 1298 326 1298 Q384 1298 474 1263 L431 1174 Q371 1205 330 1205 Q251 1205 251 1133 Q251 1107 273.5 1085.5 Q296 1064 324 1064 Q336 1064 363 1074 Q424 1097 511 1116 L492 1010 Q345 969 118 835 Z " />
<glyph glyph-name="uni06C1" unicode="&#x6c1;" horiz-adv-x="801" d="M296 790 Q465 702 535 643 Q707 499 707 295 Q707 -8 365 -8 Q83 -8 83 224 Q83 443 296 790 Z M335 557 Q259 400 259 310 Q259 192 384 192 Q530 192 530 300 Q530 444 335 557 Z " />
<glyph glyph-name="uni06C2" unicode="&#x6c2;" horiz-adv-x="801" d="M296 790 Q465 702 535 643 Q707 499 707 295 Q707 -8 365 -8 Q83 -8 83 224 Q83 443 296 790 Z M335 557 Q259 400 259 310 Q259 192 384 192 Q530 192 530 300 Q530 444 335 557 Z M95 835 L102 950 L197 1005 Q118 1048 118 1123 Q118 1199 170.5 1248.5 Q223 1298 303 1298 Q362 1298 450 1263 L408 1174 Q348 1205 307 1205 Q228 1205 228 1133 Q228 1106 250.5 1085 Q273 1064 301 1064 Q313 1064 340 1074 Q401 1097 488 1116 L469 1010 Q321 969 95 835 Z " />
<glyph glyph-name="uni06C3" unicode="&#x6c3;" horiz-adv-x="801" d="M295 790 Q464 702 534 643 Q706 497 706 295 Q706 -8 364 -8 Q82 -8 82 224 Q82 444 295 790 Z M335 557 Q258 400 258 310 Q258 192 383 192 Q529 192 529 300 Q529 443 335 557 Z M25 1030 L148 1168 L286 1027 L163 889 L25 1030 Z M302 1030 L425 1168 L563 1027 L440 889 L302 1030 Z " />
<glyph glyph-name="uni06CC" unicode="&#x6cc;" horiz-adv-x="1497" d="M202 424 L341 358 Q254 174 254 25 Q254 -142 354.5 -221 Q455 -300 668 -300 Q912 -300 1055 -224 Q1192 -152 1192 -35 Q1192 8 1158.5 27.5 Q1125 47 1004 75 Q840 113 777 153 Q694 207 694 316 Q694 477 826.5 598 Q959 719 1136 719 Q1265 719 1435 652 L1364 479 Q1234 546 1133 546 Q1039 546 968 486.5 Q897 427 897 348 Q897 304 931 282.5 Q965 261 1075 238 Q1234 204 1291 166 Q1384 105 1384 -28 Q1384 -216 1245 -338 Q1060 -502 656 -502 Q353 -502 211 -391 Q69 -280 69 -44 Q69 197 202 424 Z " />
<glyph glyph-name="uni06D2" unicode="&#x6d2;" horiz-adv-x="1697" d="M1129 376 L1016 273 Q941 361 897 388.5 Q853 416 785 416 Q617 416 466 278.5 Q315 141 315 -12 Q315 -115 392 -146 Q527 -199 889 -199 Q1287 -199 1737 -130 Q1646 -258 1545 -311 Q1368 -405 907 -405 Q465 -405 287.5 -326 Q110 -247 110 -49 Q110 201 353 415 Q554 592 783 592 Q901 592 975.5 545.5 Q1050 499 1129 376 Z " />
<glyph glyph-name="uni06D3" unicode="&#x6d3;" horiz-adv-x="1738" d="M1129 376 L1016 273 Q941 361 897 388.5 Q853 416 785 416 Q617 416 466 278.5 Q315 141 315 -12 Q315 -115 392 -146 Q527 -199 889 -199 Q1287 -199 1737 -130 Q1646 -258 1545 -311 Q1368 -405 907 -405 Q465 -405 287.5 -326 Q110 -247 110 -49 Q110 201 353 415 Q554 592 783 592 Q901 592 975.5 545.5 Q1050 499 1129 376 Z M446 727 L454 842 L549 897 Q469 941 469 1015 Q469 1091 521.5 1140.5 Q574 1190 654 1190 Q713 1190 802 1155 L759 1066 Q698 1097 658 1097 Q579 1097 579 1026 Q579 999 601.5 978 Q624 957 652 957 Q664 957 691 967 Q751 989 839 1009 L821 902 Q674 862 446 727 Z " />
<glyph glyph-name="uni06D4" unicode="&#x6d4;" horiz-adv-x="575" d="M551 545 L506 391 L12 391 L58 545 L551 545 Z " />
<glyph glyph-name="uni06E0" unicode="&#x6e0;" horiz-adv-x="1022" d="M317 1029 L451 1173 L601 1027 L467 882 L317 1029 Z " />
<glyph glyph-name="uni06F0" unicode="&#x6f0;" horiz-adv-x="806" d="M141 692 L362 932 Q472 852 514.5 810 Q557 768 612 687 L392 447 Q310 555 270 594 Q230 633 141 692 Z " />
<glyph glyph-name="uni06F1" unicode="&#x6f1;" horiz-adv-x="693" d="M368 0 Q343 492 265 755.5 Q187 1019 -3 1254 L129 1457 Q351 1146 438 829 Q525 512 530 0 L368 0 Z " />
<glyph glyph-name="uni06F2" unicode="&#x6f2;" horiz-adv-x="940" d="M368 0 Q343 492 265 755.5 Q187 1019 -3 1254 L129 1457 Q150 1429 206 1349 Q284 1237 335 1202 Q386 1167 470 1167 Q674 1167 674 1395 L674 1424 L827 1424 L827 1378 Q827 1164 750.5 1067 Q674 970 504 970 Q455 970 384 987 Q464 759 495.5 547 Q527 335 530 0 L368 0 Z " />
<glyph glyph-name="uni06F3" unicode="&#x6f3;" horiz-adv-x="1131" d="M368 0 Q343 492 265 755.5 Q187 1019 -3 1254 L129 1457 Q169 1402 245 1284 Q329 1156 402 1156 Q517 1156 517 1403 L517 1424 L657 1424 L657 1403 Q657 1284 683.5 1233 Q710 1182 773 1182 Q830 1182 852.5 1224 Q875 1266 875 1371 L875 1424 L1018 1424 L1018 1355 Q1018 1199 988 1120 Q937 986 787 986 Q682 986 606 1081 Q547 971 444 971 Q417 971 387 979 Q523 622 530 0 L368 0 Z " />
<glyph glyph-name="uni06F4" unicode="&#x6f4;" horiz-adv-x="974" d="M368 0 Q343 492 265 755.5 Q187 1019 -3 1254 L129 1457 Q192 1369 268 1238 Q365 1444 568 1444 Q671 1444 809 1379 L739 1236 Q644 1297 568 1297 Q487 1297 429 1230.5 Q371 1164 371 1070 Q371 908 558 908 Q683 908 801 1025 L905 894 Q752 752 558 752 Q506 752 453 765 Q526 455 530 0 L368 0 Z " />
<glyph glyph-name="uni06F5" unicode="&#x6f5;" horiz-adv-x="1041" d="M493 1364 Q680 1364 803 1076 Q926 787 926 475 Q926 253 810.5 130 Q695 7 487 7 Q286 7 173 135 Q61 264 61 474 Q61 783 184 1076 Q305 1364 493 1364 Z M493 1163 Q396 1163 319.5 962.5 Q243 762 243 508 Q243 350 323 274 Q389 211 490 211 Q744 211 744 509 Q744 763 667.5 963 Q591 1163 493 1163 Z " />
<glyph glyph-name="uni06F6" unicode="&#x6f6;" horiz-adv-x="973" d="M375 708 Q203 758 134.5 832.5 Q66 907 66 1045 Q66 1225 175.5 1333.5 Q285 1442 467 1442 Q603 1442 781 1370 L705 1203 Q571 1269 475 1269 Q382 1269 327.5 1212.5 Q273 1156 273 1058 Q273 961 328 915 Q383 869 539 836 Q660 921 909 1032 L844 794 Q561 669 428 494 Q295 319 239 0 L76 0 Q137 468 375 708 Z " />
<glyph glyph-name="uni06F7" unicode="&#x6f7;" horiz-adv-x="1146" d="M476 0 Q398 818 -35 1254 L89 1460 Q270 1227 369 1013.5 Q468 800 536 497 Q571 798 647.5 1010.5 Q724 1223 880 1460 L1021 1260 Q638 823 648 0 L476 0 Z " />
<glyph glyph-name="uni06F8" unicode="&#x6f8;" horiz-adv-x="1146" d="M130 -60 L-11 140 Q371 585 362 1424 L534 1424 Q611 590 1045 146 L921 -60 Q734 196 637 409.5 Q540 623 474 927 Q439 620 365 407.5 Q291 195 130 -60 Z " />
<glyph glyph-name="uni06F9" unicode="&#x6f9;" horiz-adv-x="993" d="M571 678 L431 678 Q222 678 143 729 Q35 798 35 971 Q35 1178 131 1310 Q227 1442 378 1442 Q532 1442 619 1313 Q710 1180 732 860 Q753 568 792.5 423 Q832 278 929 143 L797 -60 Q691 104 644 258 Q597 412 571 678 Z M556 872 Q524 1271 366 1271 Q299 1271 255.5 1201 Q212 1131 212 1024 Q212 930 251.5 901 Q291 872 417 872 L556 872 Z " />
<glyph glyph-name="Wacute" unicode="&#x1e82;" horiz-adv-x="566" d="M57 591 L509 591 L509 441 L57 441 L57 591 Z " />
<glyph glyph-name="Wdieresis" unicode="&#x1e84;" horiz-adv-x="1691" d="M27 1365 L226 1365 L488 254 L756 1365 L938 1365 L1206 254 L1471 1365 L1665 1365 L1326 -4 L1090 -4 L844 968 L601 -4 L366 -4 L27 1365 Z M661 1774 Q716 1774 755 1734.5 Q794 1695 794 1639 Q794 1584 754.5 1544.5 Q715 1505 660 1505 Q604 1505 564.5 1544.5 Q525 1584 525 1639 Q525 1696 564.5 1735 Q604 1774 661 1774 Z M1035 1774 Q1090 1774 1129 1734.5 Q1168 1695 1168 1639 Q1168 1584 1128.5 1544.5 Q1089 1505 1033 1505 Q978 1505 938.5 1544.5 Q899 1584 899 1639 Q899 1696 938.5 1735 Q978 1774 1035 1774 Z " />
<glyph glyph-name="uni2002" unicode="&#x2002;" horiz-adv-x="1024" d="" />
<glyph glyph-name="uni2003" unicode="&#x2003;" horiz-adv-x="2048" d="" />
<glyph glyph-name="uni2007" unicode="&#x2007;" horiz-adv-x="1133" d="" />
<glyph glyph-name="uni200A" unicode="&#x200a;" horiz-adv-x="256" d="" />
<glyph glyph-name="uni2011" unicode="&#x2011;" horiz-adv-x="547" d="M0 591 L547 591 L547 441 L0 441 L0 591 Z " />
<glyph glyph-name="figuredash" unicode="&#x2012;" horiz-adv-x="1024" d="M115 591 L908 591 L908 441 L115 441 L115 591 Z " />
<glyph glyph-name="afii00208" unicode="&#x2015;" horiz-adv-x="1241" d="M0 591 L1241 591 L1241 441 L0 441 L0 591 Z " />
<glyph glyph-name="underscoredbl" unicode="&#x2017;" horiz-adv-x="1024" d="M0 -110 L1024 -110 L1024 -233 L0 -233 L0 -110 Z M0 -349 L1024 -349 L1024 -473 L0 -473 L0 -349 Z " />
<glyph glyph-name="exclamdbl" unicode="&#x203c;" horiz-adv-x="934" d="M334 1365 L334 1001 L280 397 L171 397 L118 999 L118 1365 L334 1365 Z M338 262 L338 0 L114 0 L114 262 L338 262 Z M816 1365 L816 1001 L762 397 L653 397 L600 999 L600 1365 L816 1365 Z M820 262 L820 0 L596 0 L596 262 L820 262 Z " />
<glyph glyph-name="radicalex" unicode="&#x203e;" horiz-adv-x="1024" d="M0 1795 L1024 1795 L1024 1614 L0 1614 L0 1795 Z " />
<glyph glyph-name="zerosuperior" unicode="&#x2070;" horiz-adv-x="739" d="M374 1347 Q508 1347 586 1236 Q664 1125 664 934 Q664 741 585.5 631 Q507 521 370 521 Q232 521 153.5 630.5 Q75 740 75 932 Q75 1129 153.5 1238 Q232 1347 374 1347 Z M372 1234 Q215 1234 215 931 Q215 791 256 712 Q297 633 369 633 Q524 633 524 933 Q524 1234 372 1234 Z " />
<glyph glyph-name="foursuperior" unicode="&#x2074;" horiz-adv-x="739" d="M533 828 L680 828 L680 717 L536 717 L536 532 L396 532 L396 717 L53 717 L53 820 L383 1345 L533 1345 L533 828 Z M403 828 L403 1178 L190 828 L403 828 Z " />
<glyph glyph-name="fivesuperior" unicode="&#x2075;" horiz-adv-x="739" d="M184 1331 L595 1331 L584 1212 L289 1212 L256 1039 Q319 1077 391 1077 Q502 1077 573 1003 Q644 929 644 814 Q644 689 561.5 605 Q479 521 357 521 Q242 521 171.5 583 Q101 645 94 752 L225 752 Q242 638 353 638 Q418 638 458.5 685.5 Q499 733 499 808 Q499 879 462.5 922 Q426 965 366 965 Q285 965 231 891 L111 907 L184 1331 Z " />
<glyph glyph-name="sixsuperior" unicode="&#x2076;" horiz-adv-x="740" d="M399 1346 L554 1346 Q431 1213 336 1074 Q370 1081 397 1081 Q507 1081 577 1005 Q647 929 647 810 Q647 683 570.5 602 Q494 521 373 521 Q249 521 170.5 602 Q92 683 92 811 Q92 928 161.5 1049 Q231 1170 399 1346 Z M370 974 Q308 974 270 927 Q232 880 232 805 Q232 731 270 683.5 Q308 636 368 636 Q431 636 469 682.5 Q507 729 507 806 Q507 880 469 927 Q431 974 370 974 Z " />
<glyph glyph-name="sevensuperior" unicode="&#x2077;" horiz-adv-x="737" d="M114 1331 L668 1331 L668 1229 L266 532 L112 532 L501 1205 L114 1205 L114 1331 Z " />
<glyph glyph-name="eightsuperior" unicode="&#x2078;" horiz-adv-x="739" d="M199 953 Q109 1010 109 1116 Q109 1214 183.5 1280.5 Q258 1347 370 1347 Q481 1347 555.5 1281 Q630 1215 630 1116 Q630 1010 540 953 Q649 889 649 766 Q649 660 570 590.5 Q491 521 369 521 Q248 521 169 590.5 Q90 660 90 766 Q90 888 199 953 Z M371 1237 Q249 1237 249 1121 Q249 1069 282.5 1037 Q316 1005 369 1005 Q423 1005 456.5 1037 Q490 1069 490 1121 Q490 1172 457 1204.5 Q424 1237 371 1237 Z M371 896 Q309 896 269.5 859 Q230 822 230 763 Q230 705 269.5 668 Q309 631 370 631 Q431 631 470 668 Q509 705 509 764 Q509 821 470 858.5 Q431 896 371 896 Z " />
<glyph glyph-name="ninesuperior" unicode="&#x2079;" horiz-adv-x="740" d="M338 515 L184 515 Q324 666 403 789 Q370 782 343 782 Q232 782 162 858 Q92 934 92 1053 Q92 1181 168.5 1262.5 Q245 1344 366 1344 Q490 1344 568.5 1262.5 Q647 1181 647 1052 Q647 834 338 515 Z M371 1229 Q308 1229 270 1182 Q232 1135 232 1057 Q232 983 270.5 936 Q309 889 370 889 Q431 889 469 936 Q507 983 507 1058 Q507 1134 469 1181.5 Q431 1229 371 1229 Z " />
<glyph glyph-name="zeroinferior" unicode="&#x2080;" horiz-adv-x="739" d="M374 815 Q508 815 586 704 Q664 593 664 402 Q664 209 585.5 99 Q507 -11 370 -11 Q232 -11 153.5 98.5 Q75 208 75 400 Q75 597 153.5 706 Q232 815 374 815 Z M372 702 Q215 702 215 399 Q215 259 256 180 Q297 101 369 101 Q524 101 524 401 Q524 702 372 702 Z " />
<glyph glyph-name="oneinferior" unicode="&#x2081;" horiz-adv-x="739" d="M159 589 L159 671 Q320 674 348 804 L445 804 L445 0 L307 0 L307 589 L159 589 Z " />
<glyph glyph-name="twoinferior" unicode="&#x2082;" horiz-adv-x="739" d="M243 564 L121 564 Q121 683 189 749 Q257 815 381 815 Q493 815 561 758 Q629 701 629 607 Q629 537 568.5 449.5 Q508 362 294 122 L638 122 L638 0 L112 0 L112 105 L132 129 Q378 411 432.5 483.5 Q487 556 487 604 Q487 645 455.5 671 Q424 697 375 697 Q254 697 243 564 Z " />
<glyph glyph-name="threeinferior" unicode="&#x2083;" horiz-adv-x="739" d="M238 583 L117 583 Q121 693 189 753 Q257 813 377 813 Q489 813 556 756.5 Q623 700 623 606 Q623 485 503 431 Q641 384 641 238 Q641 128 563.5 59.5 Q486 -9 361 -9 Q226 -9 153.5 57 Q81 123 82 243 L208 243 Q209 108 357 108 Q502 108 502 237 Q502 365 306 365 Q295 365 273 364 L273 478 Q299 476 311 476 Q483 476 483 595 Q483 696 366 696 Q254 696 238 583 Z " />
<glyph glyph-name="fourinferior" unicode="&#x2084;" horiz-adv-x="739" d="M533 287 L680 287 L680 176 L536 176 L536 -9 L396 -9 L396 176 L53 176 L53 279 L383 803 L533 803 L533 287 Z M403 287 L403 637 L190 287 L403 287 Z " />
<glyph glyph-name="fiveinferior" unicode="&#x2085;" horiz-adv-x="739" d="M189 799 L600 799 L589 680 L294 680 L261 507 Q325 546 394 546 Q506 546 577.5 472 Q649 398 649 282 Q649 157 566.5 73 Q484 -11 362 -11 Q247 -11 176.5 50.5 Q106 112 99 219 L230 219 Q247 106 358 106 Q423 106 463.5 153.5 Q504 201 504 277 Q504 348 467.5 391 Q431 434 371 434 Q290 434 236 359 L116 375 L189 799 Z " />
<glyph glyph-name="sixinferior" unicode="&#x2086;" horiz-adv-x="740" d="M399 814 L554 814 Q424 672 336 542 Q369 549 396 549 Q507 549 577 473 Q647 397 647 278 Q647 150 570.5 69.5 Q494 -11 373 -11 Q249 -11 170.5 70 Q92 151 92 279 Q92 396 161.5 517 Q231 638 399 814 Z M370 442 Q308 442 270 395 Q232 348 232 273 Q232 198 270 151 Q308 104 368 104 Q431 104 469 150.5 Q507 197 507 274 Q507 348 469 395 Q431 442 370 442 Z " />
<glyph glyph-name="seveninferior" unicode="&#x2087;" horiz-adv-x="737" d="M114 799 L668 799 L668 697 L266 0 L112 0 L501 673 L114 673 L114 799 Z " />
<glyph glyph-name="eightinferior" unicode="&#x2088;" horiz-adv-x="739" d="M199 421 Q109 477 109 584 Q109 682 183.5 748.5 Q258 815 370 815 Q481 815 555.5 748.5 Q630 682 630 584 Q630 477 540 421 Q649 357 649 234 Q649 128 570 58.5 Q491 -11 369 -11 Q248 -11 169 58.5 Q90 128 90 234 Q90 356 199 421 Z M371 705 Q249 705 249 588 Q249 537 282.5 505 Q316 473 369 473 Q423 473 456.5 505 Q490 537 490 589 Q490 640 457 672.5 Q424 705 371 705 Z M371 364 Q308 364 269 327 Q230 290 230 231 Q230 173 269.5 136 Q309 99 370 99 Q431 99 470 136 Q509 173 509 232 Q509 289 470 326.5 Q431 364 371 364 Z " />
<glyph glyph-name="nineinferior" unicode="&#x2089;" horiz-adv-x="740" d="M338 -17 L184 -17 Q323 134 403 257 Q369 250 343 250 Q232 250 162 326 Q92 402 92 522 Q92 650 168.5 731.5 Q245 813 366 813 Q490 813 568.5 731.5 Q647 650 647 521 Q647 302 338 -17 Z M371 698 Q308 698 270 650.5 Q232 603 232 526 Q232 451 270.5 404 Q309 357 370 357 Q431 357 469 404 Q507 451 507 527 Q507 602 469 650 Q431 698 371 698 Z " />
<glyph glyph-name="afii08941" unicode="&#x20a4;" horiz-adv-x="1133" d="M487 619 L808 619 L808 488 L462 488 Q427 302 346 163 Q458 191 579 191 Q610 191 689 187 Q736 184 759 184 Q829 184 855 218.5 Q881 253 884 352 L1052 352 Q1053 331 1053 320 Q1053 162 982 77 Q911 -8 778 -8 Q722 -8 645 -3 Q470 10 382 10 Q244 10 81 -13 Q190 137 253 488 L82 488 L82 619 L277 619 Q282 641 289 684 L296 719 L300 745 L105 745 L105 876 L324 876 Q374 1166 458 1276 Q542 1386 714 1386 Q866 1386 941 1309 Q1016 1232 1028 1065 L848 1065 Q833 1211 718 1211 Q637 1211 602.5 1149.5 Q568 1088 531 876 L831 876 L831 745 L509 745 Q500 691 498 679 Q492 643 487 619 Z " />
<glyph glyph-name="peseta" unicode="&#x20a7;" horiz-adv-x="1987" d="M143 1365 L419 1365 Q684 1365 802 1326 Q916 1288 983 1185 Q1050 1082 1050 943 Q1050 808 985 707 Q920 606 808 569 Q699 532 445 532 L359 532 L359 0 L143 0 L143 1365 Z M354 714 L444 714 Q620 714 691 734 Q832 775 832 944 Q832 1099 717 1150 Q643 1183 443 1183 L354 1183 L354 714 Z M1218 582 L1351 582 L1349 477 L1215 477 L1211 233 Q1211 225 1211 200 Q1211 139 1221.5 121.5 Q1232 104 1270 104 Q1311 104 1365 126 L1363 13 Q1297 -12 1235 -12 Q1071 -12 1071 162 Q1071 185 1073 233 L1080 477 L987 477 L989 582 L1084 582 L1088 752 L1221 752 L1218 582 Z M1913 408 L1782 408 Q1771 497 1677 497 Q1582 497 1582 433 Q1582 404 1607 389 Q1632 374 1724 349 Q1839 316 1880 279.5 Q1921 243 1921 172 Q1921 85 1857 35 Q1793 -15 1681 -15 Q1423 -15 1425 196 L1555 196 Q1562 89 1677 89 Q1783 89 1783 163 Q1783 194 1758 207.5 Q1733 221 1615 255 Q1446 304 1446 421 Q1446 501 1510.5 551 Q1575 601 1679 601 Q1905 601 1913 408 Z " />
<glyph glyph-name="Euro" unicode="&#x20ac;" horiz-adv-x="1365" d="M689 978 Q804 978 886.5 894 Q969 810 969 694 Q969 576 886 493 Q803 410 685 410 Q568 410 484.5 493.5 Q401 577 401 694 Q401 813 484.5 895.5 Q568 978 689 978 Z " />
<glyph glyph-name="uni2101" unicode="&#x2101;" horiz-adv-x="1881" d="M364 1368 L499 1368 L794 546 L647 546 L583 735 L281 735 L217 546 L70 546 L364 1368 Z M545 854 L432 1194 L319 854 L545 854 Z M1363 1365 L1536 1365 L739 0 L567 0 L1363 1365 Z M1807 584 L1668 584 Q1657 714 1520 714 Q1461 714 1422.5 685.5 Q1384 657 1384 613 Q1384 571 1414 551 Q1444 531 1576 484 Q1723 431 1776.5 377.5 Q1830 324 1830 229 Q1830 113 1752.5 49 Q1675 -15 1535 -15 Q1218 -15 1217 273 L1356 273 Q1363 105 1534 105 Q1603 105 1644 135.5 Q1685 166 1685 217 Q1685 269 1651 295 Q1617 321 1491 366 Q1345 419 1293.5 468 Q1242 517 1242 605 Q1242 708 1319 771 Q1396 834 1522 834 Q1655 834 1729.5 768.5 Q1804 703 1807 584 Z " />
<glyph glyph-name="afii61248" unicode="&#x2105;" horiz-adv-x="567" d="M284 819 Q339 819 378.5 779 Q418 739 418 684 Q418 628 378.5 588.5 Q339 549 283 549 Q227 549 187.5 588.5 Q148 628 148 684 Q148 740 187.5 779.5 Q227 819 284 819 Z " />
<glyph glyph-name="afii61289" unicode="&#x2113;" horiz-adv-x="1024" d="M522 548 L517 524 Q458 225 458 145 Q458 90 493 90 Q539 90 588 195 Q606 234 629 234 Q661 234 661 198 Q661 121 589 46 Q517 -29 445 -29 Q299 -29 299 185 Q299 249 311 393 Q240 325 224 325 Q191 325 191 366 Q191 388 227 423 Q269 463 326 530 Q409 970 509.5 1179 Q610 1388 739 1388 Q804 1388 842.5 1340 Q881 1292 881 1211 Q881 1063 795 904.5 Q709 746 522 548 Z M549 704 Q782 965 782 1196 Q782 1284 740 1284 Q694 1284 648 1144.5 Q602 1005 549 704 Z " />
<glyph glyph-name="Omega" unicode="&#x2126;" horiz-adv-x="1365" d="M58 0 L58 181 L386 181 Q58 381 58 748 Q58 1034 253 1224 Q431 1398 683 1398 Q935 1398 1113 1224 Q1307 1034 1307 747 Q1307 380 981 181 L1307 181 L1307 0 L765 0 L765 162 Q1101 351 1101 724 Q1101 932 979 1074 Q855 1217 685 1217 Q505 1217 385 1076 Q265 935 265 722 Q265 349 602 162 L602 0 L58 0 Z " />
<glyph glyph-name="onethird" unicode="&#x2153;" horiz-adv-x="1746" d="M159 1121 L159 1203 Q320 1205 348 1336 L445 1336 L445 532 L307 532 L307 1121 L159 1121 Z M1177 1331 L1342 1331 L568 0 L404 0 L1177 1331 Z M1244 583 L1123 583 Q1127 693 1195 753 Q1263 813 1383 813 Q1494 813 1561.5 756.5 Q1629 700 1629 606 Q1629 484 1509 431 Q1647 384 1647 238 Q1647 128 1569.5 59.5 Q1492 -9 1367 -9 Q1233 -9 1159.5 57 Q1086 123 1088 243 L1214 243 Q1216 108 1363 108 Q1508 108 1508 238 Q1508 365 1312 365 Q1301 365 1279 364 L1279 478 Q1305 476 1317 476 Q1489 476 1489 595 Q1489 696 1372 696 Q1260 696 1244 583 Z " />
<glyph glyph-name="twothirds" unicode="&#x2154;" horiz-adv-x="1745" d="M243 1096 L121 1096 Q122 1216 190 1281.5 Q258 1347 381 1347 Q493 1347 561 1290 Q629 1233 629 1139 Q629 1069 568.5 981.5 Q508 894 294 654 L638 654 L638 532 L112 532 L112 637 Q130 658 214 755 Q390 957 438.5 1025 Q487 1093 487 1137 Q487 1178 456 1203.5 Q425 1229 375 1229 Q252 1229 243 1096 Z M1177 1331 L1342 1331 L568 0 L404 0 L1177 1331 Z M1244 583 L1123 583 Q1127 693 1195 753 Q1263 813 1383 813 Q1494 813 1561.5 756.5 Q1629 700 1629 606 Q1629 484 1509 431 Q1647 384 1647 238 Q1647 128 1569.5 59.5 Q1492 -9 1367 -9 Q1233 -9 1159.5 57 Q1086 123 1088 243 L1214 243 Q1216 108 1363 108 Q1508 108 1508 238 Q1508 365 1311 365 Q1301 365 1279 364 L1279 478 Q1305 476 1316 476 Q1489 476 1489 595 Q1489 696 1372 696 Q1261 696 1244 583 Z " />
<glyph glyph-name="onefifth" unicode="&#x2155;" horiz-adv-x="1746" d="M159 1121 L159 1203 Q320 1205 348 1336 L445 1336 L445 532 L307 532 L307 1121 L159 1121 Z M1177 1331 L1342 1331 L568 0 L404 0 L1177 1331 Z M1196 799 L1607 799 L1596 680 L1301 680 L1268 507 Q1331 546 1403 546 Q1513 546 1584.5 472 Q1656 398 1656 282 Q1656 157 1573.5 73 Q1491 -11 1369 -11 Q1254 -11 1183 50.5 Q1112 112 1106 219 L1236 219 Q1255 106 1365 106 Q1430 106 1470.5 153.5 Q1511 201 1511 276 Q1511 347 1474.5 390.5 Q1438 434 1378 434 Q1297 434 1242 359 L1123 375 L1196 799 Z " />
<glyph glyph-name="twofifth" unicode="&#x2156;" horiz-adv-x="1746" d="M243 1096 L121 1096 Q122 1216 190 1281.5 Q258 1347 381 1347 Q493 1347 561 1290 Q629 1233 629 1139 Q629 1069 568.5 981.5 Q508 894 294 654 L638 654 L638 532 L112 532 L112 637 Q130 658 214 755 Q390 957 438.5 1025 Q487 1093 487 1137 Q487 1178 456 1203.5 Q425 1229 375 1229 Q252 1229 243 1096 Z M1177 1331 L1342 1331 L569 0 L404 0 L1177 1331 Z M1196 799 L1607 799 L1596 680 L1301 680 L1268 507 Q1331 546 1403 546 Q1513 546 1584.5 472 Q1656 398 1656 282 Q1656 157 1573.5 73 Q1491 -11 1369 -11 Q1254 -11 1183.5 50.5 Q1113 112 1106 219 L1236 219 Q1255 106 1365 106 Q1430 106 1470.5 153.5 Q1511 201 1511 276 Q1511 348 1474.5 391 Q1438 434 1378 434 Q1296 434 1243 359 L1123 375 L1196 799 Z " />
<glyph glyph-name="threefifth" unicode="&#x2157;" horiz-adv-x="1745" d="M238 1124 L117 1124 Q121 1234 189 1294 Q257 1354 377 1354 Q488 1354 555.5 1297.5 Q623 1241 623 1147 Q623 1025 503 971 Q641 924 641 779 Q641 668 563.5 600 Q486 532 361 532 Q227 532 154 597.5 Q81 663 82 783 L208 783 Q208 649 357 649 Q502 649 502 778 Q502 906 306 906 Q297 906 273 905 L273 1018 Q298 1017 310 1017 Q483 1017 483 1137 Q483 1238 366 1238 Q254 1238 238 1124 Z M1178 1331 L1343 1331 L569 0 L404 0 L1178 1331 Z M1196 799 L1607 799 L1596 680 L1302 680 L1269 507 Q1332 546 1404 546 Q1514 546 1585.5 472 Q1657 398 1657 282 Q1657 158 1574.5 73.5 Q1492 -11 1370 -11 Q1254 -11 1183.5 50.5 Q1113 112 1106 219 L1237 219 Q1255 106 1366 106 Q1431 106 1471.5 153.5 Q1512 201 1512 276 Q1512 348 1475.5 391 Q1439 434 1379 434 Q1297 434 1243 359 L1123 375 L1196 799 Z " />
<glyph glyph-name="fourfifth" unicode="&#x2158;" horiz-adv-x="1746" d="M532 828 L680 828 L680 717 L535 717 L535 532 L395 532 L395 717 L53 717 L53 820 L382 1345 L532 1345 L532 828 Z M402 828 L402 1178 L189 828 L402 828 Z M1176 1331 L1342 1331 L568 0 L403 0 L1176 1331 Z M1195 799 L1606 799 L1595 680 L1300 680 L1267 507 Q1330 546 1402 546 Q1513 546 1584 472 Q1655 398 1655 282 Q1655 157 1572.5 73 Q1490 -11 1368 -11 Q1253 -11 1183 50.5 Q1113 112 1105 219 L1236 219 Q1253 106 1364 106 Q1429 106 1469.5 153.5 Q1510 201 1510 276 Q1510 348 1473.5 391 Q1437 434 1377 434 Q1296 434 1242 359 L1122 375 L1195 799 Z " />
<glyph glyph-name="onesixth" unicode="&#x2159;" horiz-adv-x="1746" d="M159 1121 L159 1203 Q320 1205 348 1336 L445 1336 L445 532 L307 532 L307 1121 L159 1121 Z M1177 1331 L1342 1331 L568 0 L404 0 L1177 1331 Z M1406 814 L1560 814 Q1438 681 1342 542 Q1376 549 1403 549 Q1513 549 1583 473 Q1653 397 1653 278 Q1653 151 1576.5 70 Q1500 -11 1379 -11 Q1255 -11 1176.5 70 Q1098 151 1098 279 Q1098 396 1167.5 517 Q1237 638 1406 814 Z M1376 442 Q1314 442 1276 395 Q1238 348 1238 273 Q1238 198 1276 151 Q1314 104 1374 104 Q1437 104 1475 150.5 Q1513 197 1513 274 Q1513 348 1475 395 Q1437 442 1376 442 Z " />
<glyph glyph-name="fivesixth" unicode="&#x215a;" horiz-adv-x="1746" d="M184 1331 L595 1331 L584 1212 L289 1212 L256 1039 Q319 1077 391 1077 Q502 1077 573 1003 Q644 929 644 814 Q644 689 561.5 605 Q479 521 357 521 Q242 521 171.5 583 Q101 645 94 752 L225 752 Q242 638 353 638 Q418 638 458.5 685.5 Q499 733 499 808 Q499 879 462.5 922 Q426 965 366 965 Q285 965 231 891 L111 907 L184 1331 Z M1176 1331 L1342 1331 L568 0 L403 0 L1176 1331 Z M1405 814 L1560 814 Q1437 681 1342 542 Q1376 549 1402 549 Q1513 549 1583 473 Q1653 397 1653 278 Q1653 150 1576.5 69.5 Q1500 -11 1379 -11 Q1255 -11 1176.5 70 Q1098 151 1098 279 Q1098 396 1167.5 517 Q1237 638 1405 814 Z M1376 442 Q1314 442 1276 395 Q1238 348 1238 273 Q1238 198 1276 151 Q1314 104 1374 104 Q1437 104 1475 150.5 Q1513 197 1513 274 Q1513 348 1475 395 Q1437 442 1376 442 Z " />
<glyph glyph-name="oneeighth" unicode="&#x215b;" horiz-adv-x="1745" d="M159 1121 L159 1203 Q320 1205 347 1336 L444 1336 L444 532 L306 532 L306 1121 L159 1121 Z M1177 1331 L1342 1331 L568 0 L404 0 L1177 1331 Z M1206 421 Q1116 476 1116 584 Q1116 682 1190.5 748.5 Q1265 815 1376 815 Q1487 815 1561.5 748.5 Q1636 682 1636 584 Q1636 476 1546 421 Q1655 356 1655 234 Q1655 127 1576 58 Q1497 -11 1376 -11 Q1255 -11 1176 58.5 Q1097 128 1097 234 Q1097 357 1206 421 Z M1378 705 Q1256 705 1256 588 Q1256 537 1289.5 505 Q1323 473 1376 473 Q1429 473 1462.5 505 Q1496 537 1496 589 Q1496 640 1463 672.5 Q1430 705 1378 705 Z M1377 364 Q1315 364 1276 327 Q1237 290 1237 231 Q1237 173 1276 136 Q1315 99 1376 99 Q1437 99 1476 136 Q1515 173 1515 232 Q1515 289 1476 326.5 Q1437 364 1377 364 Z " />
<glyph glyph-name="threeeighths" unicode="&#x215c;" horiz-adv-x="1745" d="M238 1124 L117 1124 Q121 1234 189 1294 Q257 1354 377 1354 Q488 1354 555.5 1297.5 Q623 1241 623 1147 Q623 1025 503 971 Q641 924 641 779 Q641 668 563.5 600 Q486 532 361 532 Q227 532 154 597.5 Q81 663 82 783 L208 783 Q208 649 357 649 Q502 649 502 778 Q502 906 306 906 Q297 906 273 905 L273 1018 Q298 1017 310 1017 Q483 1017 483 1137 Q483 1238 366 1238 Q254 1238 238 1124 Z M1178 1331 L1343 1331 L569 0 L404 0 L1178 1331 Z M1206 421 Q1116 481 1116 584 Q1116 682 1190.5 748.5 Q1265 815 1376 815 Q1487 815 1562 749 Q1637 683 1637 584 Q1637 481 1547 421 Q1656 357 1656 234 Q1656 128 1577 58.5 Q1498 -11 1377 -11 Q1255 -11 1176 58.5 Q1097 128 1097 234 Q1097 358 1206 421 Z M1378 705 Q1323 705 1289.5 673 Q1256 641 1256 589 Q1256 537 1289.5 505 Q1323 473 1377 473 Q1430 473 1463.5 505 Q1497 537 1497 589 Q1497 640 1464 672.5 Q1431 705 1378 705 Z M1378 364 Q1315 364 1276 327 Q1237 290 1237 231 Q1237 173 1276.5 136 Q1316 99 1377 99 Q1438 99 1477 136 Q1516 173 1516 231 Q1516 289 1477 326.5 Q1438 364 1378 364 Z " />
<glyph glyph-name="fiveeighths" unicode="&#x215d;" horiz-adv-x="1745" d="M189 1331 L600 1331 L589 1212 L294 1212 L261 1040 Q329 1078 397 1078 Q507 1078 578 1004 Q649 930 649 815 Q649 690 566.5 605.5 Q484 521 362 521 Q247 521 176.5 583 Q106 645 99 752 L230 752 Q247 638 358 638 Q423 638 463.5 685.5 Q504 733 504 809 Q504 880 467.5 923 Q431 966 372 966 Q293 966 237 891 L116 907 L189 1331 Z M1176 1331 L1342 1331 L568 0 L403 0 L1176 1331 Z M1205 421 Q1115 480 1115 584 Q1115 682 1189.5 748.5 Q1264 815 1375 815 Q1486 815 1561 749 Q1636 683 1636 584 Q1636 481 1546 421 Q1655 358 1655 234 Q1655 128 1576 58.5 Q1497 -11 1376 -11 Q1254 -11 1175 58.5 Q1096 128 1096 234 Q1096 358 1205 421 Z M1377 705 Q1322 705 1288.5 673 Q1255 641 1255 589 Q1255 537 1288.5 505 Q1322 473 1375 473 Q1429 473 1462.5 505 Q1496 537 1496 589 Q1496 640 1463 672.5 Q1430 705 1377 705 Z M1377 364 Q1314 364 1275 327 Q1236 290 1236 231 Q1236 173 1275.5 136 Q1315 99 1375 99 Q1437 99 1476 136 Q1515 173 1515 231 Q1515 289 1476 326.5 Q1437 364 1377 364 Z " />
<glyph glyph-name="seveneighths" unicode="&#x215e;" horiz-adv-x="1743" d="M114 1331 L668 1331 L668 1229 L266 532 L112 532 L501 1205 L114 1205 L114 1331 Z M1175 1331 L1340 1331 L567 0 L402 0 L1175 1331 Z M1204 421 Q1114 478 1114 584 Q1114 683 1188.5 749 Q1263 815 1374 815 Q1485 815 1559.5 749 Q1634 683 1634 584 Q1634 478 1544 421 Q1653 358 1653 234 Q1653 128 1574 58.5 Q1495 -11 1374 -11 Q1253 -11 1174 58.5 Q1095 128 1095 234 Q1095 358 1204 421 Z M1376 705 Q1254 705 1254 589 Q1254 537 1287.5 505 Q1321 473 1374 473 Q1427 473 1460.5 505 Q1494 537 1494 589 Q1494 640 1461 672.5 Q1428 705 1376 705 Z M1376 364 Q1313 364 1274 327 Q1235 290 1235 231 Q1235 173 1274 136 Q1313 99 1374 99 Q1435 99 1474 136 Q1513 173 1513 231 Q1513 289 1474.5 326.5 Q1436 364 1376 364 Z " />
<glyph glyph-name="uni2190" unicode="&#x2190;" horiz-adv-x="1365" d="M1338 744 L1338 640 L314 640 Q346 601 383.5 526 Q421 451 421 427 Q421 399 391 399 Q374 399 344 434 Q238 556 74 646 Q27 671 27 688 Q27 707 61 726 Q245 830 358 962 Q374 981 390 981 Q421 981 421 950 Q421 892 314 744 L1338 744 Z " />
<glyph glyph-name="uni2191" unicode="&#x2191;" horiz-adv-x="1365" d="M737 27 L633 27 L633 1051 Q593 1019 518.5 981.5 Q444 944 420 944 Q392 944 392 975 Q392 991 427 1021 Q551 1130 639 1291 Q664 1338 681 1338 Q700 1338 719 1304 Q824 1119 956 1007 Q975 991 975 975 Q975 944 944 944 Q885 944 737 1051 L737 27 Z " />
<glyph glyph-name="uni2192" unicode="&#x2192;" horiz-adv-x="1365" d="M27 636 L27 740 L1051 740 Q1019 779 981.5 854 Q944 929 944 952 Q944 981 974 981 Q991 981 1021 946 Q1128 823 1291 734 Q1338 709 1338 692 Q1338 673 1304 654 Q1119 549 1007 417 Q991 398 975 398 Q944 398 944 429 Q944 488 1051 636 L27 636 Z " />
<glyph glyph-name="uni2193" unicode="&#x2193;" horiz-adv-x="1365" d="M629 1338 L733 1338 L733 314 Q772 346 847 383.5 Q922 421 946 421 Q974 421 974 390 Q974 374 939 344 Q817 238 727 74 Q702 27 685 27 Q666 27 647 61 Q542 246 410 358 Q391 374 391 390 Q391 421 422 421 Q482 421 629 314 L629 1338 Z " />
<glyph glyph-name="uni2194" unicode="&#x2194;" horiz-adv-x="1365" d="M312 635 Q420 489 420 427 Q420 397 389 397 Q373 397 341 435 Q248 546 48 661 Q27 672 27 691 Q27 708 74 733 Q238 824 343 945 Q374 980 390 980 Q420 980 420 951 Q420 928 382 853.5 Q344 779 312 739 L1051 739 Q1020 777 982 852.5 Q944 928 944 952 Q944 980 974 980 Q991 980 1021 945 Q1127 822 1291 733 Q1338 708 1338 691 Q1338 672 1304 653 Q1119 548 1007 416 Q991 397 975 397 Q944 397 944 428 Q944 487 1051 635 L312 635 Z " />
<glyph glyph-name="uni2195" unicode="&#x2195;" horiz-adv-x="1365" d="M737 312 Q885 421 945 421 Q975 421 975 390 Q975 374 937 342 Q827 250 711 48 Q700 27 681 27 Q664 27 639 74 Q549 238 427 344 Q392 374 392 391 Q392 421 421 421 Q444 421 517 383.5 Q590 346 633 312 L633 1051 Q593 1019 518.5 981.5 Q444 944 421 944 Q392 944 392 974 Q392 991 427 1021 Q550 1128 639 1291 Q664 1338 681 1338 Q700 1338 719 1304 Q824 1118 956 1007 Q975 991 975 975 Q975 944 944 944 Q885 944 737 1051 L737 312 Z " />
<glyph glyph-name="uni21A8" unicode="&#x21a8;" horiz-adv-x="1365" d="M737 312 Q885 421 945 421 Q975 421 975 390 Q975 374 937 342 Q827 250 711 48 Q700 27 681 27 Q664 27 639 74 Q549 238 427 344 Q392 374 392 391 Q392 421 420 421 Q444 421 517 383.5 Q590 346 633 312 L633 1051 Q593 1019 518.5 981.5 Q444 944 421 944 Q392 944 392 974 Q392 991 427 1021 Q550 1128 639 1291 Q664 1338 681 1338 Q700 1338 719 1304 Q824 1118 956 1007 Q975 991 975 975 Q975 944 944 944 Q885 944 737 1051 L737 312 Z M413 -139 L953 -139 L953 -227 L413 -227 L413 -139 Z " />
<glyph glyph-name="uni2205" unicode="&#x2205;" horiz-adv-x="1266" d="M907 1125 Q1130 971 1130 710 Q1130 505 984 358 Q840 213 633 213 Q546 213 461 244 L351 27 L251 79 L361 294 Q137 446 137 710 Q137 915 283 1061 Q427 1206 634 1206 Q719 1206 808 1175 L918 1392 L1016 1341 L907 1125 Z M854 1022 L513 347 Q575 327 632 327 Q792 327 903 439 Q1016 552 1016 710 Q1016 904 854 1022 Z M413 397 L756 1072 Q694 1092 635 1092 Q475 1092 364 980 Q251 867 251 710 Q251 519 413 397 Z " />
<glyph glyph-name="increment" unicode="&#x2206;" horiz-adv-x="1365" d="M46 0 L571 1365 L788 1365 L1319 0 L46 0 Z M334 188 L1027 188 L680 1120 L334 188 Z " />
<glyph glyph-name="uni2218" unicode="&#x2218;" horiz-adv-x="1024" d="M516 982 Q629 982 711 897.5 Q793 813 793 696 Q793 578 710.5 494 Q628 410 512 410 Q396 410 313 494 Q230 578 230 696 Q230 816 313 899 Q396 982 516 982 Z M514 885 Q435 885 380.5 830 Q326 775 326 696 Q326 618 380.5 562.5 Q435 507 512 507 Q589 507 643 562.5 Q697 618 697 696 Q697 773 643 829 Q589 885 514 885 Z " />
<glyph glyph-name="uni221F" unicode="&#x221f;" horiz-adv-x="659" d="M21 1000 L639 1000 L639 871 L21 871 L21 1000 Z " />
<glyph glyph-name="uni2229" unicode="&#x2229;" horiz-adv-x="1268" d="M1164 0 L963 0 L963 625 Q963 947 908 1036 Q817 1184 634 1184 Q544 1184 465.5 1138 Q387 1092 350 1016 Q305 926 305 625 L305 0 L104 0 L104 619 Q104 879 121 976.5 Q138 1074 198 1156 Q351 1365 634 1365 Q950 1365 1095 1119 Q1138 1047 1151 951.5 Q1164 856 1164 619 L1164 0 Z " />
<glyph glyph-name="uni222A" unicode="&#x222a;" horiz-adv-x="1268" d="M104 1365 L305 1365 L305 740 Q305 418 360 330 Q452 181 634 181 Q724 181 802.5 227.5 Q881 274 919 349 Q963 439 963 740 L963 1365 L1164 1365 L1164 746 Q1164 485 1147 388 Q1130 291 1071 210 Q917 0 634 0 Q319 0 173 247 Q131 318 117.5 414.5 Q104 511 104 746 L104 1365 Z " />
</font>
</svg>
